<svg id="Слой_1" data-name="Слой 1" xmlns="http://www.w3.org/2000/svg" xmlns:xlink="http://www.w3.org/1999/xlink" viewBox="0 0 1440 1407.35"><defs><style>.cls-1{fill:#fff;}.cls-2,.cls-3,.cls-5{fill:none;stroke:#000;}.cls-2{stroke-width:3px;}.cls-3{stroke-miterlimit:10;stroke-width:5px;}.cls-4{mask:url(#mask);}.cls-5{stroke-width:10px;}.cls-6{mask:url(#mask-2);}</style><mask id="mask" x="498.61" y="1000.34" width="318.38" height="318.35" maskUnits="userSpaceOnUse"><g id="path-400-inside-21_73:3" data-name="path-400-inside-21 73:3"><path class="cls-1" d="M812,1160.43a154.17,154.17,0,1,1-153.27-155.08l-.42,71.77A82.4,82.4,0,1,0,740.19,1160Z"/></g></mask><mask id="mask-2" x="1211.54" y="437.43" width="618.24" height="620.07" maskUnits="userSpaceOnUse"><g id="path-403-inside-24_73:3" data-name="path-403-inside-24 73:3"><path class="cls-1" d="M1292.16,544.35a305,305,0,1,1-75,241.5L1302.87,775a218.59,218.59,0,1,0,53.77-173.06Z"/></g></mask></defs><path class="cls-2" d="M1085.9,544.64h-111"/><path class="cls-2" d="M1204.9,639.64h-119"/><path class="cls-2" d="M966.9,848.64h-144"/><path class="cls-2" d="M1133.9,732.64h-119"/><path class="cls-2" d="M796.9,513.64v84"/><path class="cls-2" d="M1111.9,428.64h78"/><path d="M1136.23,534.64c.51,0,.93,0,1.25,0s.77.08,1.33.17a5.46,5.46,0,0,1,1.59.5,6.25,6.25,0,0,1,1.42.94,7.18,7.18,0,0,1,0,10.59,6.34,6.34,0,0,1-1.42,1,6.14,6.14,0,0,1-1.59.5c-.56.08-1,.13-1.33.15s-.74,0-1.25,0h-2.33v8.13h-2v-22Zm5.47,9.19a5.58,5.58,0,0,0,.45-2.25,5.47,5.47,0,0,0-.45-2.24,4.71,4.71,0,0,0-1.22-1.68,4.22,4.22,0,0,0-2.17-1,8.14,8.14,0,0,0-1-.11c-.26,0-.61,0-1.06,0h-2.33v10.13h2.33l1.06,0q.39,0,1-.12a4.22,4.22,0,0,0,2.17-1A4.85,4.85,0,0,0,1141.7,543.83Zm14.21,12.81V544.55h-.16l-5.84,12.09h-2v-16h2v12.09h.15l5.86-12.09h2v16Zm7.61-5.13c-.07-.75-.1-1.7-.1-2.87s0-2.12.1-2.88a7.33,7.33,0,0,1,.57-2.1,5.26,5.26,0,0,1,5.29-3.27c1,0,2.45.09,4.22.27v1.87c-1.79-.18-3.19-.27-4.22-.27a4,4,0,0,0-2.14.52,3.65,3.65,0,0,0-1.28,1.53,6.06,6.06,0,0,0-.39,1.33,11.55,11.55,0,0,0-.14,1.37c0,.38,0,.92,0,1.63s0,1.26,0,1.64a11.41,11.41,0,0,0,.14,1.36A6.06,6.06,0,0,0,1166,553a3.75,3.75,0,0,0,1.28,1.54,4,4,0,0,0,2.14.5,31.6,31.6,0,0,0,4.54-.4v1.87a31.57,31.57,0,0,1-4.54.41,5.26,5.26,0,0,1-5.29-3.27A7.31,7.31,0,0,1,1163.52,551.51Zm18.4,1.38h4v3.75h-4Zm30-18a24,24,0,0,1,4.5-.48,7.23,7.23,0,0,1,2.62.44,4.36,4.36,0,0,1,1.79,1.19,4.88,4.88,0,0,1,1,1.64,5.61,5.61,0,0,1,.32,1.9,6.08,6.08,0,0,1-.3,2,10.34,10.34,0,0,1-.89,1.88l-6.47,11.29h8.31v1.88h-10.84v-1.39l7.22-12.66c.24-.41.41-.73.51-1a4.36,4.36,0,0,0,.3-.89,4.62,4.62,0,0,0,.16-1.19,4.2,4.2,0,0,0-.16-1.15,3.21,3.21,0,0,0-.53-1,2.5,2.5,0,0,0-1.14-.81,5.11,5.11,0,0,0-1.86-.3,25.53,25.53,0,0,0-4.5.49Z"/><path d="M1271.23,629.64c.51,0,.93,0,1.25,0s.77.08,1.33.17a5.46,5.46,0,0,1,1.59.5,6.25,6.25,0,0,1,1.42.94,7.18,7.18,0,0,1,0,10.59,6.34,6.34,0,0,1-1.42,1,6.14,6.14,0,0,1-1.59.5c-.56.08-1,.13-1.33.15s-.74,0-1.25,0h-2.33v8.13h-2v-22Zm5.47,9.19a5.58,5.58,0,0,0,.45-2.25,5.47,5.47,0,0,0-.45-2.24,4.71,4.71,0,0,0-1.22-1.68,4.22,4.22,0,0,0-2.17-1,8.14,8.14,0,0,0-1-.11c-.26,0-.61,0-1.06,0h-2.33v10.13h2.33l1.06,0q.39,0,1-.12a4.22,4.22,0,0,0,2.17-1A4.85,4.85,0,0,0,1276.7,638.83Zm14.21,12.81V639.55h-.16l-5.84,12.09h-2v-16h2v12.09h.15l5.86-12.09h2v16Zm7.61-5.13c-.07-.75-.1-1.7-.1-2.87s0-2.12.1-2.88a7.33,7.33,0,0,1,.57-2.1,5.26,5.26,0,0,1,5.29-3.27c1,0,2.45.09,4.22.27v1.87c-1.79-.18-3.19-.27-4.22-.27a4,4,0,0,0-2.14.52,3.65,3.65,0,0,0-1.28,1.53,6.06,6.06,0,0,0-.39,1.33,11.55,11.55,0,0,0-.14,1.37c0,.38,0,.92,0,1.63s0,1.26,0,1.64a11.41,11.41,0,0,0,.14,1.36A6.06,6.06,0,0,0,1301,648a3.75,3.75,0,0,0,1.28,1.54,4,4,0,0,0,2.14.5,31.6,31.6,0,0,0,4.54-.4v1.87a31.57,31.57,0,0,1-4.54.41,5.26,5.26,0,0,1-5.29-3.27A7.31,7.31,0,0,1,1298.52,646.51Zm18.4,1.38h4v3.75h-4Zm30-18a24,24,0,0,1,4.5-.48,7.23,7.23,0,0,1,2.62.44,4.36,4.36,0,0,1,1.79,1.19,4.88,4.88,0,0,1,1,1.64,5.61,5.61,0,0,1,.32,1.9,6.08,6.08,0,0,1-.3,2,10.34,10.34,0,0,1-.89,1.88l-6.47,11.29h8.31v1.88h-10.84v-1.39l7.22-12.66c.24-.41.41-.73.51-1a4.36,4.36,0,0,0,.3-.89,4.62,4.62,0,0,0,.16-1.19,4.2,4.2,0,0,0-.16-1.15,3.21,3.21,0,0,0-.53-1,2.5,2.5,0,0,0-1.14-.81,5.11,5.11,0,0,0-1.86-.3,25.53,25.53,0,0,0-4.5.49Z"/><path d="M694.23,835.64c.51,0,.93,0,1.25,0s.78.08,1.33.17a5.46,5.46,0,0,1,1.59.5,6.31,6.31,0,0,1,1.43.94,7.2,7.2,0,0,1,0,10.59,6.4,6.4,0,0,1-1.43,1,6.14,6.14,0,0,1-1.59.5c-.55.08-1,.13-1.33.15s-.74,0-1.25,0H691.9v8.13h-2v-22Zm5.47,9.19a5.58,5.58,0,0,0,.45-2.25,5.47,5.47,0,0,0-.45-2.24,4.59,4.59,0,0,0-1.22-1.68,4.08,4.08,0,0,0-1-.66,4,4,0,0,0-1.16-.34,8,8,0,0,0-1-.11c-.27,0-.62,0-1.07,0H691.9v10.13h2.33l1.07,0c.26,0,.59-.06,1-.12a4.34,4.34,0,0,0,1.16-.34,4.39,4.39,0,0,0,1-.66A4.73,4.73,0,0,0,699.7,844.83Zm14.21,12.81V845.55h-.15l-5.85,12.09h-2v-16h2v12.09h.16l5.86-12.09h2v16Zm7.62-5.13c-.07-.75-.11-1.7-.11-2.87s0-2.12.11-2.88a7,7,0,0,1,.56-2.1,5.27,5.27,0,0,1,5.3-3.27c1,0,2.45.09,4.22.27v1.87c-1.79-.18-3.2-.27-4.22-.27a3.91,3.91,0,0,0-2.14.52,3.58,3.58,0,0,0-1.28,1.53,5.13,5.13,0,0,0-.39,1.33,9.77,9.77,0,0,0-.14,1.37c0,.38,0,.92,0,1.63s0,1.26,0,1.64a9.64,9.64,0,0,0,.14,1.36A5.13,5.13,0,0,0,724,854a3.67,3.67,0,0,0,1.28,1.54,3.92,3.92,0,0,0,2.14.5,31.36,31.36,0,0,0,4.53-.4v1.87a31.32,31.32,0,0,1-4.53.41,5.27,5.27,0,0,1-5.3-3.27A7,7,0,0,1,721.53,852.51Zm18.4,1.38h4v3.75h-4Zm30-18a24,24,0,0,1,4.5-.48,7.28,7.28,0,0,1,2.63.44,4.32,4.32,0,0,1,1.78,1.19,4.91,4.91,0,0,1,1,1.64,5.61,5.61,0,0,1,.31,1.9,6.08,6.08,0,0,1-.3,2,9.71,9.71,0,0,1-.89,1.88l-6.47,11.29h8.32v1.88H769.94v-1.39l7.22-12.66c.24-.41.41-.73.52-1a5.16,5.16,0,0,0,.29-.89,4.22,4.22,0,0,0,.16-1.19,3.85,3.85,0,0,0-.16-1.15,3.21,3.21,0,0,0-.53-1,2.5,2.5,0,0,0-1.14-.81,5.11,5.11,0,0,0-1.86-.3,25.53,25.53,0,0,0-4.5.49Z"/><path d="M1175.23,722.64c.51,0,.93,0,1.25,0s.77.08,1.33.17a5.46,5.46,0,0,1,1.59.5,6.25,6.25,0,0,1,1.42.94,7.18,7.18,0,0,1,0,10.59,6.34,6.34,0,0,1-1.42,1,6.14,6.14,0,0,1-1.59.5c-.56.08-1,.13-1.33.15s-.74,0-1.25,0h-2.33v8.13h-2v-22Zm5.47,9.19a5.58,5.58,0,0,0,.45-2.25,5.47,5.47,0,0,0-.45-2.24,4.71,4.71,0,0,0-1.22-1.68,4.22,4.22,0,0,0-2.17-1,8.14,8.14,0,0,0-1-.11c-.26,0-.61,0-1.06,0h-2.33v10.13h2.33l1.06,0q.39,0,1-.12a4.22,4.22,0,0,0,2.17-1A4.85,4.85,0,0,0,1180.7,731.83Zm14.21,12.81V732.55h-.16l-5.84,12.09h-2v-16h2v12.09h.15l5.86-12.09h2v16Zm7.61-5.13c-.07-.75-.1-1.7-.1-2.87s0-2.12.1-2.88a7.33,7.33,0,0,1,.57-2.1,5.26,5.26,0,0,1,5.29-3.27c1,0,2.45.09,4.22.27v1.87c-1.79-.18-3.19-.27-4.22-.27a4,4,0,0,0-2.14.52,3.65,3.65,0,0,0-1.28,1.53,6.06,6.06,0,0,0-.39,1.33,11.55,11.55,0,0,0-.14,1.37c0,.38,0,.92,0,1.63s0,1.26,0,1.64a11.41,11.41,0,0,0,.14,1.36A6.06,6.06,0,0,0,1205,741a3.75,3.75,0,0,0,1.28,1.54,4,4,0,0,0,2.14.5,31.6,31.6,0,0,0,4.54-.4v1.87a31.57,31.57,0,0,1-4.54.41,5.26,5.26,0,0,1-5.29-3.27A7.31,7.31,0,0,1,1202.52,739.51Zm18.4,1.38h4v3.75h-4Zm30-18a24,24,0,0,1,4.5-.48,7.23,7.23,0,0,1,2.62.44,4.36,4.36,0,0,1,1.79,1.19,4.88,4.88,0,0,1,1,1.64,5.61,5.61,0,0,1,.32,1.9,6.08,6.08,0,0,1-.3,2,10.34,10.34,0,0,1-.89,1.88l-6.47,11.29h8.31v1.88h-10.84v-1.39l7.22-12.66c.24-.41.41-.73.51-1a4.36,4.36,0,0,0,.3-.89,4.62,4.62,0,0,0,.16-1.19,4.2,4.2,0,0,0-.16-1.15,3.21,3.21,0,0,0-.53-1,2.5,2.5,0,0,0-1.14-.81,5.11,5.11,0,0,0-1.86-.3,25.53,25.53,0,0,0-4.5.49Z"/><path d="M770.23,627.64c.51,0,.93,0,1.25,0s.78.08,1.33.17a5.46,5.46,0,0,1,1.59.5,6.31,6.31,0,0,1,1.43.94,7.2,7.2,0,0,1,0,10.59,6.4,6.4,0,0,1-1.43,1,6.14,6.14,0,0,1-1.59.5c-.55.08-1,.13-1.33.15s-.74,0-1.25,0H767.9v8.13h-2v-22Zm5.47,9.19a5.58,5.58,0,0,0,.45-2.25,5.47,5.47,0,0,0-.45-2.24,4.59,4.59,0,0,0-1.22-1.68,4.08,4.08,0,0,0-1-.66,4,4,0,0,0-1.16-.34,8,8,0,0,0-1-.11c-.27,0-.62,0-1.07,0H767.9v10.13h2.33l1.07,0c.26,0,.59-.06,1-.12a4.34,4.34,0,0,0,1.16-.34,4.39,4.39,0,0,0,1-.66A4.73,4.73,0,0,0,775.7,636.83Zm14.21,12.81V637.55h-.15l-5.85,12.09h-2v-16h2v12.09h.16l5.86-12.09h2v16Zm7.62-5.13c-.07-.75-.11-1.7-.11-2.87s0-2.12.11-2.88a7,7,0,0,1,.56-2.1,5.27,5.27,0,0,1,5.3-3.27c1,0,2.45.09,4.22.27v1.87c-1.79-.18-3.2-.27-4.22-.27a3.91,3.91,0,0,0-2.14.52,3.58,3.58,0,0,0-1.28,1.53,5.13,5.13,0,0,0-.39,1.33,9.77,9.77,0,0,0-.14,1.37c0,.38,0,.92,0,1.63s0,1.26,0,1.64a9.64,9.64,0,0,0,.14,1.36A5.13,5.13,0,0,0,800,646a3.67,3.67,0,0,0,1.28,1.54,3.92,3.92,0,0,0,2.14.5,31.36,31.36,0,0,0,4.53-.4v1.87a31.32,31.32,0,0,1-4.53.41,5.27,5.27,0,0,1-5.3-3.27A7,7,0,0,1,797.53,644.51Zm18.4,1.38h4v3.75h-4Zm30-18a24,24,0,0,1,4.5-.48,7.28,7.28,0,0,1,2.63.44,4.32,4.32,0,0,1,1.78,1.19,4.91,4.91,0,0,1,1,1.64,5.61,5.61,0,0,1,.31,1.9,6.08,6.08,0,0,1-.3,2,9.71,9.71,0,0,1-.89,1.88l-6.47,11.29h8.32v1.88H845.94v-1.39l7.22-12.66c.24-.41.41-.73.52-1a5.16,5.16,0,0,0,.29-.89,4.22,4.22,0,0,0,.16-1.19,3.85,3.85,0,0,0-.16-1.15,3.21,3.21,0,0,0-.53-1,2.5,2.5,0,0,0-1.14-.81,5.11,5.11,0,0,0-1.86-.3,25.53,25.53,0,0,0-4.5.49Z"/><path d="M1233.23,420.64c.51,0,.93,0,1.25,0s.77.08,1.33.17a5.46,5.46,0,0,1,1.59.5,6.25,6.25,0,0,1,1.42.94,7.18,7.18,0,0,1,0,10.59,6.34,6.34,0,0,1-1.42,1,6.14,6.14,0,0,1-1.59.5c-.56.08-1,.13-1.33.15s-.74,0-1.25,0h-2.33v8.13h-2v-22Zm5.47,9.19a5.58,5.58,0,0,0,.45-2.25,5.47,5.47,0,0,0-.45-2.24,4.71,4.71,0,0,0-1.22-1.68,4.22,4.22,0,0,0-2.17-1,8.14,8.14,0,0,0-1-.11c-.26,0-.61,0-1.06,0h-2.33v10.13h2.33l1.06,0q.39,0,1-.12a4.22,4.22,0,0,0,2.17-1A4.85,4.85,0,0,0,1238.7,429.83Zm14.21,12.81V430.55h-.16l-5.84,12.09h-2v-16h2v12.09h.15l5.86-12.09h2v16Zm7.61-5.13c-.07-.75-.1-1.7-.1-2.87s0-2.12.1-2.88a7.33,7.33,0,0,1,.57-2.1,5.26,5.26,0,0,1,5.29-3.27c1,0,2.45.09,4.22.27v1.87c-1.79-.18-3.19-.27-4.22-.27a4,4,0,0,0-2.14.52,3.65,3.65,0,0,0-1.28,1.53,6.06,6.06,0,0,0-.39,1.33,11.55,11.55,0,0,0-.14,1.37c0,.38,0,.92,0,1.63s0,1.26,0,1.64a11.41,11.41,0,0,0,.14,1.36A6.06,6.06,0,0,0,1263,439a3.75,3.75,0,0,0,1.28,1.54,4,4,0,0,0,2.14.5,31.6,31.6,0,0,0,4.54-.4v1.87a31.57,31.57,0,0,1-4.54.41,5.26,5.26,0,0,1-5.29-3.27A7.31,7.31,0,0,1,1260.52,437.51Zm18.4,1.38h4v3.75h-4Zm30-18a24,24,0,0,1,4.5-.48,7.23,7.23,0,0,1,2.62.44,4.36,4.36,0,0,1,1.79,1.19,4.88,4.88,0,0,1,1,1.64,5.61,5.61,0,0,1,.32,1.9,6.08,6.08,0,0,1-.3,2,10.34,10.34,0,0,1-.89,1.88l-6.47,11.29h8.31v1.88h-10.84v-1.39l7.22-12.66c.24-.41.41-.73.51-.95a4.36,4.36,0,0,0,.3-.89,4.62,4.62,0,0,0,.16-1.19,4.2,4.2,0,0,0-.16-1.15,3.21,3.21,0,0,0-.53-1,2.5,2.5,0,0,0-1.14-.81,5.11,5.11,0,0,0-1.86-.3,25.53,25.53,0,0,0-4.5.49Z"/><path d="M726.9,933.64h14v22h-2V935.51h-10v20.13h-2Zm23.57,22.25a4,4,0,0,1-3.4-2.2h-.16v7.95h-2v-22h2v2h.16a4,4,0,0,1,3.4-2.2,4.23,4.23,0,0,1,2.75,1,5.44,5.44,0,0,1,1.75,2.72,7.63,7.63,0,0,1,.3,1.47c.07.54.12,1,.13,1.39s0,.94,0,1.69,0,1.32,0,1.7-.06.84-.13,1.38a7.63,7.63,0,0,1-.3,1.47,5.52,5.52,0,0,1-1.75,2.73A4.22,4.22,0,0,1,750.47,955.89Zm-2.09-2.55a2.53,2.53,0,0,0,1.78.67,2.49,2.49,0,0,0,1.77-.67,4.07,4.07,0,0,0,1.08-1.7,20.2,20.2,0,0,0,0-8,4,4,0,0,0-1.08-1.69,2.46,2.46,0,0,0-1.77-.69,2.5,2.5,0,0,0-1.78.69,4,4,0,0,0-1.06,1.69,19.72,19.72,0,0,0,0,8A4.13,4.13,0,0,0,748.38,953.34Zm20.54,2.3V943.55h-.16l-5.84,12.09h-2v-16h2v12.09h.16l5.86-12.09h2v16Zm8,0h-2v-16h2l4.92,8H782l4.91-8h2v16h-2V943.2h-.16l-4,6.44h-1.72l-4-6.44h-.15Zm18-3.75h4v3.75h-4Z"/><path d="M883.65,577.45q-1.74-6.93-1.75-21.81t1.75-21.81a33.14,33.14,0,0,1,9.44-16.63q6.95-6.56,17.81-6.56t17.82,6.56a33.06,33.06,0,0,1,9.43,16.63q1.76,6.93,1.75,21.81t-1.75,21.81a33.41,33.41,0,0,1-9.43,16.69q-6.94,6.5-17.82,6.5t-17.81-6.5A33.5,33.5,0,0,1,883.65,577.45ZM898,562.89a75.66,75.66,0,0,0,.81,8.87,23.18,23.18,0,0,0,4.13,10,9.63,9.63,0,0,0,7.93,3.88,9.48,9.48,0,0,0,7.88-3.88,22.75,22.75,0,0,0,4.19-10,75.66,75.66,0,0,0,.81-8.87Zm25.75-15a67.89,67.89,0,0,0-.81-8.38,22.3,22.3,0,0,0-4.19-9.93,9.43,9.43,0,0,0-7.88-3.94,9.57,9.57,0,0,0-7.93,3.94,22.72,22.72,0,0,0-4.13,9.93,67.89,67.89,0,0,0-.81,8.38Z"/><path d="M779.15,405.08q5.13-13.56,17.75-13.57t17.75,13.57a36,36,0,0,1,1.69,8.44q.57,5.37.63,9.81t.12,13.31q0,8.94-.12,13.37t-.63,9.75a36,36,0,0,1-1.69,8.44q-5.11,13.56-17.75,13.56T779.15,468.2a36.11,36.11,0,0,1-1.68-8.44q-.57-5.37-.69-9.75t-.06-13.37q0-8.94.06-13.31t.69-9.81A36.11,36.11,0,0,1,779.15,405.08Zm17.75,1.68q-2.68,0-3.81,7.88-.62,4.19-.62,22v6.56l8.37-27.56a25.41,25.41,0,0,0-1.44-6.25C798.74,407.64,797.9,406.76,796.9,406.76ZM793,457.64A26.91,26.91,0,0,0,794.4,464c.67,1.71,1.5,2.56,2.5,2.56q2.7,0,3.82-7.87.62-4.18.62-22v-6.56Z"/><path d="M1018.9,425.89h16v15h-16Zm-4.06-8.38a98.51,98.51,0,0,0-.94,16.13,98.28,98.28,0,0,0,.94,16.12,23.17,23.17,0,0,0,4.12,10,9.64,9.64,0,0,0,7.94,3.88,9.48,9.48,0,0,0,7.88-3.88,22.74,22.74,0,0,0,4.18-10,99,99,0,0,0,.94-16.12,98.51,98.51,0,0,0-.94-16.13,22.3,22.3,0,0,0-4.18-9.93,9.43,9.43,0,0,0-7.88-3.94,9.59,9.59,0,0,0-7.94,3.94A22.72,22.72,0,0,0,1014.84,417.51Zm-15.19,37.94q-1.74-6.93-1.75-21.81t1.75-21.81a33.14,33.14,0,0,1,9.44-16.63q6.93-6.56,17.81-6.56t17.81,6.56a33.07,33.07,0,0,1,9.44,16.63q1.75,6.93,1.75,21.81t-1.75,21.81a33.43,33.43,0,0,1-9.44,16.69q-6.93,6.5-17.81,6.5t-17.81-6.5A33.5,33.5,0,0,1,999.65,455.45Z"/><path class="cls-3" d="M166.1,1037.75c249,0,450.91-201.88,450.91-450.91S415.14,135.93,166.1,135.93-284.81,337.81-284.81,586.84-82.93,1037.75,166.1,1037.75Z"/><path class="cls-3" d="M166.1,1097c281.78,0,510.2-228.42,510.2-510.2S447.88,76.64,166.1,76.64s-510.2,228.42-510.2,510.2S-115.67,1097,166.1,1097Z"/><path class="cls-3" d="M166.1,1037.75c249,0,450.91-201.88,450.91-450.91S415.14,135.93,166.1,135.93-284.81,337.81-284.81,586.84-82.93,1037.75,166.1,1037.75Z"/><path d="M111.16,337.37v-33h6v27.37h13.5v5.63Zm42-33V310h-6v21.75h6v5.63h-18v-5.63h6V310h-6v-5.62Zm22.51,33.26c-2,.08-3.42.11-4.31.11A8,8,0,0,1,166,336a7.45,7.45,0,0,1-1.31-1.48,4.8,4.8,0,0,1-.68-1.64,13.06,13.06,0,0,1-.24-1.38c0-.34,0-.8,0-1.36V304.37h6v25.31a2.37,2.37,0,0,0,.65,1.85,3.58,3.58,0,0,0,2.35.59q1.59,0,3-.12Zm15-.26V322h-5.77v-5.62H196.7v21Zm-1.5-31.66a4,4,0,0,1,3-1.18,4,4,0,0,1,4.15,4.15,4.15,4.15,0,1,1-8.3,0A4,4,0,0,1,189.2,305.71Zm36,31.68a31.82,31.82,0,0,1-4.5.35,8.45,8.45,0,0,1-3.42-.67,6.82,6.82,0,0,1-2.49-1.86,6,6,0,0,1-1.12-2.08,8.56,8.56,0,0,1-.42-2c0-.54,0-1.27,0-2.21v-9.79h-6v-5.77h6v-6h6v6h6v5.77h-6v9.56a7.27,7.27,0,0,0,.35,2.58,1.38,1.38,0,0,0,1.39.84,33.88,33.88,0,0,0,4.26-.35Z"/><path d="M125,407.32h-2v-22h2l4.93,9.81h.17l4.9-9.81h2v22h-2v-18h-.15l-4,8h-1.71l-4-8H125Zm16.15-16a32.63,32.63,0,0,0,0,10.06,6.71,6.71,0,0,0,1.67,3.13,4.34,4.34,0,0,0,3.19,1.21,4.26,4.26,0,0,0,3.17-1.21,6.48,6.48,0,0,0,1.69-3.13,32.63,32.63,0,0,0,0-10.06,6.48,6.48,0,0,0-1.69-3.13,4.26,4.26,0,0,0-3.17-1.22,4.34,4.34,0,0,0-3.19,1.22A6.71,6.71,0,0,0,141.19,391.29Zm-1.95,10.48a34,34,0,0,1,0-10.9,8.24,8.24,0,0,1,2.36-4.16,6.87,6.87,0,0,1,8.91,0,8.23,8.23,0,0,1,2.35,4.16,34,34,0,0,1,0,10.9,8.3,8.3,0,0,1-2.35,4.17,6.9,6.9,0,0,1-8.91,0A8.32,8.32,0,0,1,139.24,401.77Zm17.82,5.55h-2v-22h2l9.86,18.09h.16V385.32h2v22h-2l-9.84-18.09h-.16Zm16.15-16a32.63,32.63,0,0,0,0,10.06,6.63,6.63,0,0,0,1.67,3.13,4.32,4.32,0,0,0,3.19,1.21,4.26,4.26,0,0,0,3.17-1.21,6.65,6.65,0,0,0,1.69-3.13,32.63,32.63,0,0,0,0-10.06,6.65,6.65,0,0,0-1.69-3.13,4.26,4.26,0,0,0-3.17-1.22,4.33,4.33,0,0,0-3.19,1.22A6.63,6.63,0,0,0,173.21,391.29Zm-2,10.48a34,34,0,0,1,0-10.9,8.23,8.23,0,0,1,2.35-4.16,6.87,6.87,0,0,1,8.91,0,8.24,8.24,0,0,1,2.36,4.16,34,34,0,0,1,0,10.9,8.32,8.32,0,0,1-2.36,4.17,6.9,6.9,0,0,1-8.91,0A8.3,8.3,0,0,1,171.26,401.77Zm27.82-16.45v1.87h-4v18.25h4v1.88h-10v-1.88h4V387.19h-4v-1.87Zm9.41,0c3.35,0,5.8,1.23,7.33,3.7a8.81,8.81,0,0,1,1.2,3.19,27.4,27.4,0,0,1,0,8.22,8.81,8.81,0,0,1-1.2,3.19c-1.53,2.47-4,3.7-7.33,3.7h-5.41v-22ZM215,400.24a24.94,24.94,0,0,0,0-7.84,6.67,6.67,0,0,0-1.05-2.67,6.23,6.23,0,0,0-5.48-2.54h-3.41v18.25h3.41a6.22,6.22,0,0,0,5.48-2.53A6.67,6.67,0,0,0,215,400.24Z"/><path d="M101.5,180.71l-14.18,2.5,7.33,41.62,14.19-2.5Z"/><path d="M31.66,198.1,18.12,203l14.46,39.71,13.53-4.93Z"/><path d="M17.83,974.07,31.36,979l14.45-39.71-13.53-4.92Z"/><path d="M87,993.93l14.18,2.5,7.34-41.62-14.18-2.5Z"/><path d="M230.4,996.5l14.18-2.5-7.34-41.62-14.18,2.5Z"/><path d="M300.26,979.1l13.53-4.93-14.45-39.71-13.54,4.92Z"/><path d="M366,949.84l12.47-7.2L357.37,906l-12.47,7.2Z"/><path d="M425.71,909.61l11-9.26L409.58,868l-11,9.26Z"/><path d="M477.51,859.63l9.25-11-32.37-27.16-9.26,11Z"/><path d="M519.84,801.4l7.2-12.47-36.6-21.13-7.2,12.47Z"/><path d="M551.42,736.72l4.93-13.53-39.71-14.45-4.93,13.53Z"/><path d="M571.28,667.53l2.5-14.18L532.17,646l-2.5,14.18Z"/><path d="M573.84,524.15,571.34,510l-41.62,7.34,2.5,14.18Z"/><path d="M554.55,453.84l-4.9-13.54-39.72,14.37,4.9,13.54Z"/><path d="M527.2,388.52,520,376.05l-36.6,21.13,7.2,12.47Z"/><path d="M437,277l-11-9.26-27.16,32.37,11,9.26Z"/><path d="M378.76,234.71l-12.47-7.2-21.13,36.6,12.47,7.2Z"/><path d="M314.08,203.13l-13.53-4.93L286.1,237.91l13.53,4.93Z"/><path d="M244.9,183.26l-14.18-2.5-7.34,41.62,14.18,2.5Z"/><path d="M166.1,220.37l25.78-44.66H140.32Z"/><path d="M535.37,588.75,580,614.53V563Z"/><path d="M166.1,957.34,140.32,1002h51.56Z"/><path class="cls-3" d="M232.31,277.4H104.65a36.48,36.48,0,0,0-36.48,36.48V323a36.48,36.48,0,0,0,36.48,36.48H232.31A36.48,36.48,0,0,0,268.79,323v-9.09A36.48,36.48,0,0,0,232.31,277.4Z"/><path d="M136.87,765.65h1.91v1.75c.69,0,1.89.14,3.62.29v3.6c-1.87-.18-3.08-.28-3.62-.31v5.46a5.61,5.61,0,0,1,2.39,1.42A5.53,5.53,0,0,1,142.6,780a6.55,6.55,0,0,1,.45,2.4,6.26,6.26,0,0,1-1.7,4.57,6.34,6.34,0,0,1-4.48,1.85v1.67H135v-1.72a38.66,38.66,0,0,1-3.91-.43v-3.64c1.83.27,3.13.43,3.91.48v-5.85a5.61,5.61,0,0,1-3.11-2.11,6.14,6.14,0,0,1-1.15-3.79,5.89,5.89,0,0,1,1.7-4.38,6,6,0,0,1,4.47-1.72Zm0,5.25a2.36,2.36,0,0,0-1.74.64,2.67,2.67,0,0,0-.61,1.91,2.8,2.8,0,0,0,.52,1.79,2.58,2.58,0,0,0,1.83.81Zm0,8.78v5.53c1.58-.11,2.36-1.05,2.36-2.82a2.91,2.91,0,0,0-.58-1.79A2.38,2.38,0,0,0,136.87,779.68Zm14,9.13a36.16,36.16,0,0,1-5.52-.48v-3.64a40.06,40.06,0,0,0,5.52.54c1.77,0,2.65-1,2.65-2.84a3,3,0,0,0-.38-1.49,2,2,0,0,0-1.06-1,5.7,5.7,0,0,0-1.2-.27,15.8,15.8,0,0,1-1.56-.3,6,6,0,0,1-1.53-.64,5.71,5.71,0,0,1-2.8-5.29,6.15,6.15,0,0,1,1.64-4.34,5.57,5.57,0,0,1,4.24-1.76c1.34,0,3.18.13,5.52.37v3.6q-3.63-.39-5.52-.39a1.93,1.93,0,0,0-1,.26,1.73,1.73,0,0,0-.64.65,3.35,3.35,0,0,0-.33.82,4,4,0,0,0-.09.82,2.26,2.26,0,0,0,1.19,2.3,8.13,8.13,0,0,0,1.76.4,7,7,0,0,1,2.24.66,6.06,6.06,0,0,1,2,1.58,5.9,5.9,0,0,1,1.08,2,6.94,6.94,0,0,1,.29,2,6.23,6.23,0,0,1-1.79,4.66A6.39,6.39,0,0,1,150.91,788.81Zm13.67-17.67v6.09h.93a10.1,10.1,0,0,0,1.86-.12,2.67,2.67,0,0,0,1.62-1,3.34,3.34,0,0,0,0-3.85,2.67,2.67,0,0,0-1.62-1,10.25,10.25,0,0,0-1.86-.12Zm-3.82-3.58h4.72a15.39,15.39,0,0,1,3.15.22,6,6,0,0,1,3.45,2.23,6.54,6.54,0,0,1,1.34,4.18,6.93,6.93,0,0,1-.79,3.32,6.11,6.11,0,0,1-2.12,2.3l3.28,8.76h-4.06L167,780.8h-2.38v7.76h-3.82Zm19.77,8.65a8.56,8.56,0,0,0,1.46-.08,2.14,2.14,0,0,0,1.28-.84,2.62,2.62,0,0,0,.5-1.61,2.59,2.59,0,0,0-.5-1.6,2.1,2.1,0,0,0-1.28-.83,7.36,7.36,0,0,0-1.46-.11h-.66v5.07Zm4.67,1.5a4.09,4.09,0,0,1,2.39,1.83,6.14,6.14,0,0,1,.86,3.3,5.88,5.88,0,0,1-1.1,3.58,4.88,4.88,0,0,1-2.84,1.91,14.56,14.56,0,0,1-3.18.24h-5.28v-21h4.48a13.39,13.39,0,0,1,2.74.19,5.23,5.23,0,0,1,3,1.9,5.54,5.54,0,0,1,1.17,3.58q0,3.15-2.24,4.33Zm-5.33,2.09V785h1.48a8.48,8.48,0,0,0,1.79-.12,2,2,0,0,0,1.19-.85,2.86,2.86,0,0,0,.45-1.63,2.83,2.83,0,0,0-.45-1.62,1.86,1.86,0,0,0-1.19-.85,9,9,0,0,0-1.79-.12ZM200,776.14a3.21,3.21,0,0,1,1.85,2,12,12,0,0,1,.51,3.91,13.82,13.82,0,0,1-.39,3.51,4.86,4.86,0,0,1-1.28,2.37,3.14,3.14,0,0,1-2.3.9,9.81,9.81,0,0,1-1.61-.17l.24-3.55q.57.06.78.06c.32,0,.53-.26.61-.77a15.09,15.09,0,0,0,.13-2.35,13.8,13.8,0,0,0-.13-2.11,3.45,3.45,0,0,0-.52-1.42,1.14,1.14,0,0,0-1-.55v-3.59c.54,0,.81-.63.81-1.91,0-1-.25-1.55-.75-1.55a.65.65,0,0,0-.64.41,3.1,3.1,0,0,0-.17,1.17v16.09h-3.82V772.48a5.74,5.74,0,0,1,1.15-3.74,4.17,4.17,0,0,1,3.42-1.42,4.33,4.33,0,0,1,3.36,1.39,4.94,4.94,0,0,1,1.27,3.48,7.12,7.12,0,0,1-.33,2.32A2.62,2.62,0,0,1,200,776Z"/><path class="cls-3" d="M207.61,750.52h-83a21.13,21.13,0,0,0-21.13,21.13v9a21.13,21.13,0,0,0,21.13,21.13h83a21.13,21.13,0,0,0,21.13-21.13v-9A21.13,21.13,0,0,0,207.61,750.52Z"/><path d="M158.56,891.87h10v9.37h-10ZM156,886.63a86.4,86.4,0,0,0,0,20.16A14.44,14.44,0,0,0,158.6,913a6.05,6.05,0,0,0,5,2.42,5.94,5.94,0,0,0,4.93-2.42,14.35,14.35,0,0,0,2.61-6.25,86.4,86.4,0,0,0,0-20.16,14.08,14.08,0,0,0-2.61-6.21,5.9,5.9,0,0,0-4.93-2.46,6,6,0,0,0-5,2.46A14.17,14.17,0,0,0,156,886.63Zm-9.5,23.71q-1.09-4.33-1.09-13.63t1.09-13.63a20.67,20.67,0,0,1,5.9-10.39,17.14,17.14,0,0,1,22.27,0,20.67,20.67,0,0,1,5.9,10.39q1.1,4.33,1.09,13.63t-1.09,13.63a20.92,20.92,0,0,1-5.9,10.43,17.3,17.3,0,0,1-22.27,0A20.92,20.92,0,0,1,146.53,910.34Z"/><path d="M440.83,573.59q3.21-8.48,11.09-8.47t11.1,8.47a22.58,22.58,0,0,1,1.05,5.28q.36,3.36.39,6.13c.06,1.82.08,4.6.08,8.32s0,6.51-.08,8.36-.15,3.85-.39,6.09a22.58,22.58,0,0,1-1.05,5.28q-3.21,8.48-11.1,8.47t-11.09-8.47a22.58,22.58,0,0,1-1.05-5.28q-.36-3.36-.43-6.09t0-8.36c0-3.72,0-6.5,0-8.32s.19-3.89.43-6.13A22.58,22.58,0,0,1,440.83,573.59Zm11.09,1.06q-1.68,0-2.38,4.92a135.61,135.61,0,0,0-.39,13.75v4.1l5.24-17.23a16.77,16.77,0,0,0-.9-3.9C453.07,575.19,452.55,574.65,451.92,574.65Zm-2.46,31.79a17.37,17.37,0,0,0,.9,3.95c.42,1.07.94,1.6,1.56,1.6q1.68,0,2.39-4.92a135.61,135.61,0,0,0,.39-13.75v-4.1Z"/><path d="M426.5,415a2.29,2.29,0,0,0-4.45,0,11.22,11.22,0,0,0-.74,4.45,16.39,16.39,0,0,0,.74,5.35c.49,1.41,1.24,2.11,2.22,2.11s1.74-.7,2.23-2.11a16.39,16.39,0,0,0,.74-5.35A11.22,11.22,0,0,0,426.5,415Zm-11.8-6.92q3.41-4.21,9.57-4.21t9.57,4.21a16.23,16.23,0,0,1,3.4,10.59q0,8.91-6.13,12.58v.39q6.92,3.75,6.91,13.24a16.37,16.37,0,0,1-3.63,10.94q-3.63,4.29-10.12,4.3t-10.11-4.3a16.38,16.38,0,0,1-3.64-10.94q0-9.5,6.92-13.24v-.39q-6.13-3.68-6.13-12.58A16.28,16.28,0,0,1,414.7,408.06Zm12.39,30.39a2.91,2.91,0,0,0-5.63,0,14.53,14.53,0,0,0-.94,5.63,10.62,10.62,0,0,0,.94,4.8,3.07,3.07,0,0,0,5.63,0,10.62,10.62,0,0,0,.93-4.8A14.54,14.54,0,0,0,427.09,438.45Z"/><path d="M319.18,343.48q-1.1-4.34-1.09-13.63t1.09-13.63a20.6,20.6,0,0,1,5.9-10.39,17.14,17.14,0,0,1,22.27,0,20.67,20.67,0,0,1,5.9,10.39q1.08,4.33,1.09,13.63t-1.09,13.63a20.92,20.92,0,0,1-5.9,10.43,17.3,17.3,0,0,1-22.27,0A20.85,20.85,0,0,1,319.18,343.48Zm9-9.1a44.48,44.48,0,0,0,.51,5.55,14.44,14.44,0,0,0,2.57,6.25,6.05,6.05,0,0,0,5,2.42,5.94,5.94,0,0,0,4.93-2.42,14.35,14.35,0,0,0,2.61-6.25,44.48,44.48,0,0,0,.51-5.55ZM344.26,325a39.45,39.45,0,0,0-.51-5.24,14.08,14.08,0,0,0-2.61-6.21,5.9,5.9,0,0,0-4.93-2.46,6,6,0,0,0-5,2.46,14.17,14.17,0,0,0-2.57,6.21,39.45,39.45,0,0,0-.51,5.24Z"/><path d="M418.84,748.79a18.72,18.72,0,0,0,3.83-.24,5.71,5.71,0,0,0,3.36-2.19,6.8,6.8,0,0,0,1.29-4.21A6.73,6.73,0,0,0,426,738a5.61,5.61,0,0,0-3.36-2.19,19.57,19.57,0,0,0-3.83-.28h-1.72v13.29Zm12.23,3.9a10.59,10.59,0,0,1,6.25,4.81,15.84,15.84,0,0,1,2.27,8.63,15.28,15.28,0,0,1-2.9,9.37,12.76,12.76,0,0,1-7.42,5,38.17,38.17,0,0,1-8.32.63H407.12v-55h11.72a35.08,35.08,0,0,1,7.19.51,13.79,13.79,0,0,1,7.85,5,14.59,14.59,0,0,1,3.05,9.37q0,8.25-5.86,11.33Zm-13.95,5.47v13.59H421a22.14,22.14,0,0,0,4.69-.31,5.31,5.31,0,0,0,3.12-2.22,8.28,8.28,0,0,0,0-8.52,5.12,5.12,0,0,0-3.12-2.23,24.42,24.42,0,0,0-4.69-.31Z"/><path d="M306.09,843.19a86.4,86.4,0,0,0,0,20.16,14.44,14.44,0,0,0,2.57,6.25,6.05,6.05,0,0,0,5,2.42,5.94,5.94,0,0,0,4.93-2.42,14.35,14.35,0,0,0,2.61-6.25,86.4,86.4,0,0,0,0-20.16,14.08,14.08,0,0,0-2.61-6.21,5.9,5.9,0,0,0-4.93-2.46,6,6,0,0,0-5,2.46A14.17,14.17,0,0,0,306.09,843.19Zm-9.5,23.71q-1.09-4.33-1.09-13.63t1.09-13.63a20.6,20.6,0,0,1,5.9-10.39,17.14,17.14,0,0,1,22.27,0,20.67,20.67,0,0,1,5.9,10.39q1.08,4.33,1.09,13.63t-1.09,13.63a20.92,20.92,0,0,1-5.9,10.43,17.3,17.3,0,0,1-22.27,0A20.85,20.85,0,0,1,296.59,866.9Z"/><path d="M181.9,597.64a24,24,0,1,0-24-24A24,24,0,0,0,181.9,597.64Z"/><path d="M106.9,672.64a33,33,0,1,0-33-33A33,33,0,0,0,106.9,672.64Z"/><path d="M91.76,664.2,78.42,648.29,458.75,329.15l42.15-21.51-28.8,37.42Z"/><path d="M1014.84,624.51a138.78,138.78,0,0,0,0,32.25,23.17,23.17,0,0,0,4.12,10,9.64,9.64,0,0,0,7.94,3.88,9.48,9.48,0,0,0,7.88-3.88,22.74,22.74,0,0,0,4.18-10,138.78,138.78,0,0,0,0-32.25,22.3,22.3,0,0,0-4.18-9.93,9.43,9.43,0,0,0-7.88-3.94,9.59,9.59,0,0,0-7.94,3.94A22.72,22.72,0,0,0,1014.84,624.51Zm-15.19,37.94q-1.74-6.93-1.75-21.81t1.75-21.81a33.14,33.14,0,0,1,9.44-16.63q6.93-6.56,17.81-6.56t17.81,6.56a33.07,33.07,0,0,1,9.44,16.63q1.75,6.93,1.75,21.81t-1.75,21.81a33.43,33.43,0,0,1-9.44,16.69q-6.93,6.5-17.81,6.5t-17.81-6.5A33.5,33.5,0,0,1,999.65,662.45Z"/><path d="M1037.46,822.45q-1.18-2.81-3.56-2.81t-3.56,2.81a18.21,18.21,0,0,0-1.19,7.13,26.56,26.56,0,0,0,1.19,8.56q1.19,3.38,3.56,3.38t3.56-3.38a26.56,26.56,0,0,0,1.19-8.56A18.21,18.21,0,0,0,1037.46,822.45Zm-18.87-11.06q5.43-6.75,15.31-6.75t15.31,6.75q5.44,6.69,5.44,16.94,0,14.25-9.81,20.12v.63q11.06,6,11.06,21.18,0,10.63-5.81,17.5t-16.19,6.88q-10.38,0-16.19-6.88t-5.81-17.5q0-15.18,11.06-21.18v-.63q-9.81-5.87-9.81-20.12Q1013.15,818.07,1018.59,811.39ZM1038.4,860q-1.5-3.5-4.5-3.49t-4.5,3.49a23.09,23.09,0,0,0-1.5,9,16.94,16.94,0,0,0,1.5,7.69,4.91,4.91,0,0,0,9,0,16.94,16.94,0,0,0,1.5-7.69A23.09,23.09,0,0,0,1038.4,860Z"/><path d="M918.65,718.89a31.68,31.68,0,0,0,6.13-.37,9.14,9.14,0,0,0,5.37-3.51,11.93,11.93,0,0,0,0-13.43,9,9,0,0,0-5.37-3.5,31.35,31.35,0,0,0-6.13-.44H915.9v21.25Zm19.57,6.25a16.93,16.93,0,0,1,10,7.69,25.4,25.4,0,0,1,3.62,13.81,24.54,24.54,0,0,1-4.62,15,20.51,20.51,0,0,1-11.88,8q-4,1-13.31,1H899.9v-88h18.75a56.47,56.47,0,0,1,11.5.81,22.12,22.12,0,0,1,12.57,7.94,23.32,23.32,0,0,1,4.87,15q0,13.18-9.37,18.13Zm-22.32,8.75v21.75h6.19a35.8,35.8,0,0,0,7.5-.5,8.45,8.45,0,0,0,5-3.56,13.29,13.29,0,0,0,0-13.63,8.13,8.13,0,0,0-5-3.56,38,38,0,0,0-7.5-.5Z"/><g class="cls-4"><path class="cls-5" d="M812,1160.43a154.17,154.17,0,1,1-153.27-155.08l-.42,71.77A82.4,82.4,0,1,0,740.19,1160Z"/></g><g class="cls-6"><path class="cls-5" d="M1292.16,544.35a305,305,0,1,1-75,241.5L1302.87,775a218.59,218.59,0,1,0,53.77-173.06Z"/></g></svg>