<?xml version="1.0" encoding="utf-8"?>
<!-- Generator: Adobe Illustrator 25.2.1, SVG Export Plug-In . SVG Version: 6.00 Build 0)  -->
<svg version="1.1" id="Слой_1" xmlns="http://www.w3.org/2000/svg" xmlns:xlink="http://www.w3.org/1999/xlink" x="0px" y="0px"
	 viewBox="0 0 1440 1407.3" style="enable-background:new 0 0 1440 1407.3;" xml:space="preserve">
<g>
	<rect x="974.9" y="543.1" width="111" height="3"/>
</g>
<g>
	<rect x="1085.9" y="638.1" width="119" height="3"/>
</g>
<g>
	<rect x="822.9" y="847.1" width="144" height="3"/>
</g>
<g>
	<rect x="1014.9" y="731.1" width="119" height="3"/>
</g>
<g>
	<rect x="795.4" y="513.6" width="3" height="84"/>
</g>
<g>
	<rect x="1111.9" y="427.1" width="78" height="3"/>
</g>
<g>
	<path d="M1136.2,534.6c0.5,0,0.9,0,1.2,0s0.8,0.1,1.3,0.2c0.6,0.1,1.1,0.3,1.6,0.5c0.5,0.2,1,0.6,1.4,0.9c2.9,2.7,3.1,7.2,0.4,10.1
		c-0.1,0.2-0.3,0.3-0.4,0.4c-0.4,0.4-0.9,0.7-1.4,1c-0.5,0.2-1,0.4-1.6,0.5c-0.6,0.1-1,0.1-1.3,0.2s-0.7,0-1.2,0h-2.3v8.1h-2v-22
		L1136.2,534.6z M1141.7,543.8c0.3-0.7,0.5-1.5,0.4-2.2c0-0.8-0.1-1.5-0.4-2.2c-0.3-0.6-0.7-1.2-1.2-1.7c-0.6-0.5-1.4-0.9-2.2-1
		c-0.3-0.1-0.7-0.1-1-0.1c-0.3,0-0.6,0-1.1,0h-2.3v10.1h2.3h1.1c0.3,0,0.6,0,1-0.1c0.8-0.1,1.6-0.5,2.2-1
		C1141,545.1,1141.4,544.5,1141.7,543.8z M1155.9,556.6v-12.1h-0.2l-5.8,12.1h-2v-16h2v12.1h0.2l5.9-12.1h2v16H1155.9z
		 M1163.5,551.5c-0.1-0.8-0.1-1.7-0.1-2.9s0-2.1,0.1-2.9c0.1-0.7,0.3-1.4,0.6-2.1c0.9-2.1,3-3.5,5.3-3.3c1,0,2.4,0.1,4.2,0.3v1.9
		c-1.8-0.2-3.2-0.3-4.2-0.3c-0.7,0-1.5,0.1-2.1,0.5c-0.6,0.4-1,0.9-1.3,1.5c-0.2,0.4-0.3,0.9-0.4,1.3c-0.1,0.5-0.1,0.9-0.1,1.4
		c0,0.4,0,0.9,0,1.6s0,1.3,0,1.6c0,0.5,0.1,0.9,0.1,1.4c0.1,0.5,0.2,0.9,0.4,1.4c0.3,0.6,0.7,1.2,1.3,1.5c0.7,0.4,1.4,0.5,2.1,0.5
		c1.5,0,3-0.2,4.5-0.4v1.9c-1.5,0.2-3,0.4-4.5,0.4c-2.3,0.2-4.4-1.1-5.3-3.3C1163.8,553,1163.6,552.3,1163.5,551.5L1163.5,551.5z
		 M1181.9,552.9h4v3.8h-4V552.9z M1211.9,534.9c1.5-0.3,3-0.5,4.5-0.5c0.9,0,1.8,0.1,2.6,0.4c0.7,0.2,1.3,0.7,1.8,1.2
		c0.4,0.5,0.8,1,1,1.6c0.2,0.6,0.3,1.3,0.3,1.9c0,0.7-0.1,1.4-0.3,2c-0.2,0.7-0.5,1.3-0.9,1.9l-6.5,11.3h8.3v1.9H1212v-1.4l7.2-12.7
		c0.2-0.4,0.4-0.7,0.5-1c0.1-0.3,0.2-0.6,0.3-0.9c0.1-0.4,0.2-0.8,0.2-1.2c0-0.4-0.1-0.8-0.2-1.2c-0.1-0.4-0.3-0.7-0.5-1
		c-0.3-0.4-0.7-0.7-1.1-0.8c-0.6-0.2-1.2-0.3-1.9-0.3c-1.5,0-3,0.2-4.5,0.5L1211.9,534.9z"/>
</g>
<g>
	<path d="M1271.2,629.6c0.5,0,0.9,0,1.2,0s0.8,0.1,1.3,0.2c0.6,0.1,1.1,0.3,1.6,0.5c0.5,0.2,1,0.6,1.4,0.9c2.9,2.7,3.1,7.2,0.4,10.1
		c-0.1,0.2-0.3,0.3-0.4,0.4c-0.4,0.4-0.9,0.7-1.4,1c-0.5,0.2-1,0.4-1.6,0.5c-0.6,0.1-1,0.1-1.3,0.2s-0.7,0-1.2,0h-2.3v8.1h-2v-22
		L1271.2,629.6z M1276.7,638.8c0.3-0.7,0.5-1.5,0.4-2.2c0-0.8-0.1-1.5-0.4-2.2c-0.3-0.6-0.7-1.2-1.2-1.7c-0.6-0.5-1.4-0.9-2.2-1
		c-0.3-0.1-0.7-0.1-1-0.1c-0.3,0-0.6,0-1.1,0h-2.3v10.1h2.3h1.1c0.3,0,0.6,0,1-0.1c0.8-0.1,1.6-0.5,2.2-1
		C1276,640.1,1276.4,639.5,1276.7,638.8z M1290.9,651.6v-12.1h-0.2l-5.8,12.1h-2v-16h2v12.1h0.2l5.9-12.1h2v16H1290.9z
		 M1298.5,646.5c-0.1-0.8-0.1-1.7-0.1-2.9s0-2.1,0.1-2.9c0.1-0.7,0.3-1.4,0.6-2.1c0.9-2.1,3-3.5,5.3-3.3c1,0,2.4,0.1,4.2,0.3v1.9
		c-1.8-0.2-3.2-0.3-4.2-0.3c-0.7,0-1.5,0.1-2.1,0.5c-0.6,0.4-1,0.9-1.3,1.5c-0.2,0.4-0.3,0.9-0.4,1.3c-0.1,0.5-0.1,0.9-0.1,1.4
		c0,0.4,0,0.9,0,1.6s0,1.3,0,1.6c0,0.5,0.1,0.9,0.1,1.4c0.1,0.5,0.2,0.9,0.4,1.4c0.3,0.6,0.7,1.2,1.3,1.5c0.7,0.4,1.4,0.5,2.1,0.5
		c1.5,0,3-0.2,4.5-0.4v1.9c-1.5,0.2-3,0.4-4.5,0.4c-2.3,0.2-4.4-1.1-5.3-3.3C1298.8,648,1298.6,647.3,1298.5,646.5L1298.5,646.5z
		 M1316.9,647.9h4v3.8h-4V647.9z"/>
</g>
<g>
	<path d="M694.2,835.6c0.5,0,0.9,0,1.2,0s0.8,0.1,1.3,0.2c0.6,0.1,1.1,0.3,1.6,0.5c0.5,0.2,1,0.6,1.4,0.9c2.9,2.7,3.1,7.2,0.4,10.2
		c-0.1,0.1-0.3,0.3-0.4,0.4c-0.4,0.4-0.9,0.7-1.4,1c-0.5,0.2-1,0.4-1.6,0.5c-0.5,0.1-1,0.1-1.3,0.2s-0.7,0-1.2,0h-2.3v8.1h-2v-22
		L694.2,835.6z M699.7,844.8c0.3-0.7,0.5-1.5,0.5-2.2c0-0.8-0.1-1.5-0.5-2.2c-0.3-0.6-0.7-1.2-1.2-1.7c-0.3-0.3-0.6-0.5-1-0.7
		c-0.4-0.2-0.8-0.3-1.2-0.3c-0.3-0.1-0.7-0.1-1-0.1c-0.3,0-0.6,0-1.1,0h-2.3v10.1h2.3h1.1c0.3,0,0.6-0.1,1-0.1
		c0.4-0.1,0.8-0.2,1.2-0.3c0.4-0.2,0.7-0.4,1-0.7C699,846.1,699.4,845.5,699.7,844.8L699.7,844.8z M713.9,857.6v-12.1h-0.2
		l-5.8,12.1h-2v-16h2v12.1h0.2l5.9-12.1h2v16H713.9z M721.5,852.5c-0.1-0.8-0.1-1.7-0.1-2.9s0-2.1,0.1-2.9c0.1-0.7,0.3-1.4,0.6-2.1
		c0.9-2.1,3-3.5,5.3-3.3c1,0,2.5,0.1,4.2,0.3v1.9c-1.8-0.2-3.2-0.3-4.2-0.3c-0.7,0-1.5,0.1-2.1,0.5c-0.6,0.4-1,0.9-1.3,1.5
		c-0.2,0.4-0.3,0.9-0.4,1.3c-0.1,0.5-0.1,0.9-0.1,1.4c0,0.4,0,0.9,0,1.6s0,1.3,0,1.6c0,0.5,0.1,0.9,0.1,1.4c0.1,0.5,0.2,0.9,0.4,1.4
		c0.3,0.6,0.7,1.2,1.3,1.5c0.7,0.4,1.4,0.5,2.1,0.5c1.5,0,3-0.2,4.5-0.4v1.9c-1.5,0.2-3,0.4-4.5,0.4c-2.3,0.2-4.4-1.1-5.3-3.3
		C721.8,854,721.6,853.3,721.5,852.5L721.5,852.5z M739.9,853.9h4v3.8h-4V853.9z"/>
</g>
<g>
	<path d="M1175.2,722.6c0.5,0,0.9,0,1.2,0s0.8,0.1,1.3,0.2c0.6,0.1,1.1,0.3,1.6,0.5c0.5,0.2,1,0.6,1.4,0.9c2.9,2.7,3.1,7.2,0.4,10.1
		c-0.1,0.2-0.3,0.3-0.4,0.4c-0.4,0.4-0.9,0.7-1.4,1c-0.5,0.2-1,0.4-1.6,0.5c-0.6,0.1-1,0.1-1.3,0.2s-0.7,0-1.2,0h-2.3v8.1h-2v-22
		L1175.2,722.6z M1180.7,731.8c0.3-0.7,0.5-1.5,0.4-2.2c0-0.8-0.1-1.5-0.4-2.2c-0.3-0.6-0.7-1.2-1.2-1.7c-0.6-0.5-1.4-0.9-2.2-1
		c-0.3-0.1-0.7-0.1-1-0.1c-0.3,0-0.6,0-1.1,0h-2.3v10.1h2.3h1.1c0.3,0,0.6,0,1-0.1c0.8-0.1,1.6-0.5,2.2-1
		C1180,733.1,1180.4,732.5,1180.7,731.8z M1194.9,744.6v-12.1h-0.2l-5.8,12.1h-2v-16h2v12.1h0.2l5.9-12.1h2v16H1194.9z
		 M1202.5,739.5c-0.1-0.8-0.1-1.7-0.1-2.9s0-2.1,0.1-2.9c0.1-0.7,0.3-1.4,0.6-2.1c0.9-2.1,3-3.5,5.3-3.3c1,0,2.4,0.1,4.2,0.3v1.9
		c-1.8-0.2-3.2-0.3-4.2-0.3c-0.7,0-1.5,0.1-2.1,0.5c-0.6,0.4-1,0.9-1.3,1.5c-0.2,0.4-0.3,0.9-0.4,1.3c-0.1,0.5-0.1,0.9-0.1,1.4
		c0,0.4,0,0.9,0,1.6s0,1.3,0,1.6c0,0.5,0.1,0.9,0.1,1.4c0.1,0.5,0.2,0.9,0.4,1.4c0.3,0.6,0.7,1.2,1.3,1.5c0.7,0.4,1.4,0.5,2.1,0.5
		c1.5,0,3-0.2,4.5-0.4v1.9c-1.5,0.2-3,0.4-4.5,0.4c-2.3,0.2-4.4-1.1-5.3-3.3C1202.8,741,1202.6,740.3,1202.5,739.5L1202.5,739.5z
		 M1220.9,740.9h4v3.8h-4V740.9z"/>
</g>
<g>
	<path d="M770.2,627.6c0.5,0,0.9,0,1.2,0s0.8,0.1,1.3,0.2c0.6,0.1,1.1,0.3,1.6,0.5c0.5,0.2,1,0.6,1.4,0.9c2.9,2.7,3.1,7.2,0.4,10.2
		c-0.1,0.1-0.3,0.3-0.4,0.4c-0.4,0.4-0.9,0.7-1.4,1c-0.5,0.2-1,0.4-1.6,0.5c-0.5,0.1-1,0.1-1.3,0.2s-0.7,0-1.2,0h-2.3v8.1h-2v-22
		L770.2,627.6z M775.7,636.8c0.3-0.7,0.5-1.5,0.5-2.2c0-0.8-0.1-1.5-0.5-2.2c-0.3-0.6-0.7-1.2-1.2-1.7c-0.3-0.3-0.6-0.5-1-0.7
		c-0.4-0.2-0.8-0.3-1.2-0.3c-0.3-0.1-0.7-0.1-1-0.1c-0.3,0-0.6,0-1.1,0h-2.3v10.1h2.3h1.1c0.3,0,0.6-0.1,1-0.1
		c0.4-0.1,0.8-0.2,1.2-0.3c0.4-0.2,0.7-0.4,1-0.7C775,638.1,775.4,637.5,775.7,636.8L775.7,636.8z M789.9,649.6v-12.1h-0.2
		l-5.8,12.1h-2v-16h2v12.1h0.2l5.9-12.1h2v16H789.9z M797.5,644.5c-0.1-0.8-0.1-1.7-0.1-2.9s0-2.1,0.1-2.9c0.1-0.7,0.3-1.4,0.6-2.1
		c0.9-2.1,3-3.5,5.3-3.3c1,0,2.5,0.1,4.2,0.3v1.9c-1.8-0.2-3.2-0.3-4.2-0.3c-0.7,0-1.5,0.1-2.1,0.5c-0.6,0.4-1,0.9-1.3,1.5
		c-0.2,0.4-0.3,0.9-0.4,1.3c-0.1,0.5-0.1,0.9-0.1,1.4c0,0.4,0,0.9,0,1.6s0,1.3,0,1.6c0,0.5,0.1,0.9,0.1,1.4c0.1,0.5,0.2,0.9,0.4,1.4
		c0.3,0.6,0.7,1.2,1.3,1.5c0.7,0.4,1.4,0.5,2.1,0.5c1.5,0,3-0.2,4.5-0.4v1.9c-1.5,0.2-3,0.4-4.5,0.4c-2.3,0.2-4.4-1.1-5.3-3.3
		C797.8,646,797.6,645.3,797.5,644.5L797.5,644.5z M815.9,645.9h4v3.8h-4V645.9z"/>
</g>
<g>
	<path d="M1233.2,420.6c0.5,0,0.9,0,1.2,0s0.8,0.1,1.3,0.2c0.6,0.1,1.1,0.3,1.6,0.5c0.5,0.2,1,0.6,1.4,0.9c2.9,2.7,3.1,7.2,0.4,10.1
		c-0.1,0.2-0.3,0.3-0.4,0.4c-0.4,0.4-0.9,0.7-1.4,1c-0.5,0.2-1,0.4-1.6,0.5c-0.6,0.1-1,0.1-1.3,0.1s-0.7,0-1.2,0h-2.3v8.1h-2v-22
		L1233.2,420.6z M1238.7,429.8c0.3-0.7,0.5-1.5,0.4-2.2c0-0.8-0.1-1.5-0.4-2.2c-0.3-0.6-0.7-1.2-1.2-1.7c-0.6-0.5-1.4-0.9-2.2-1
		c-0.3-0.1-0.7-0.1-1-0.1c-0.3,0-0.6,0-1.1,0h-2.3v10.1h2.3h1.1c0.3,0,0.6,0,1-0.1c0.8-0.1,1.6-0.5,2.2-1
		C1238,431.1,1238.4,430.5,1238.7,429.8L1238.7,429.8z M1252.9,442.6v-12.1h-0.2l-5.8,12.1h-2v-16h2v12.1h0.2l5.9-12.1h2v16
		L1252.9,442.6z M1260.5,437.5c-0.1-0.8-0.1-1.7-0.1-2.9s0-2.1,0.1-2.9c0.1-0.7,0.3-1.4,0.6-2.1c0.9-2.1,3-3.5,5.3-3.3
		c1,0,2.4,0.1,4.2,0.3v1.9c-1.8-0.2-3.2-0.3-4.2-0.3c-0.7,0-1.5,0.1-2.1,0.5c-0.6,0.4-1,0.9-1.3,1.5c-0.2,0.4-0.3,0.9-0.4,1.3
		c-0.1,0.5-0.1,0.9-0.1,1.4c0,0.4,0,0.9,0,1.6s0,1.3,0,1.6c0,0.5,0.1,0.9,0.1,1.4c0.1,0.5,0.2,0.9,0.4,1.4c0.3,0.6,0.7,1.2,1.3,1.5
		c0.7,0.4,1.4,0.5,2.1,0.5c1.5,0,3-0.2,4.5-0.4v1.9c-1.5,0.2-3,0.4-4.5,0.4c-2.3,0.2-4.4-1.1-5.3-3.3
		C1260.8,439,1260.6,438.3,1260.5,437.5L1260.5,437.5z M1278.9,438.9h4v3.8h-4V438.9z"/>
</g>
<g>
	<path d="M726.9,933.6h14v22h-2v-20.1h-10v20.1h-2V933.6z M750.5,955.9c-1.4-0.1-2.7-0.9-3.4-2.2h-0.2v8h-2v-22h2v2h0.2
		c0.7-1.3,2-2.1,3.4-2.2c1,0,2,0.4,2.8,1c0.8,0.7,1.5,1.7,1.8,2.7c0.1,0.5,0.2,1,0.3,1.5c0.1,0.5,0.1,1,0.1,1.4s0,0.9,0,1.7
		s0,1.3,0,1.7s-0.1,0.8-0.1,1.4c-0.1,0.5-0.2,1-0.3,1.5c-0.3,1.1-0.9,2-1.8,2.7C752.4,955.6,751.5,955.9,750.5,955.9L750.5,955.9z
		 M748.4,953.3c0.5,0.4,1.1,0.7,1.8,0.7c0.7,0,1.3-0.2,1.8-0.7c0.5-0.5,0.9-1.1,1.1-1.7c0.5-2.6,0.5-5.4,0-8
		c-0.2-0.6-0.6-1.2-1.1-1.7c-0.5-0.5-1.1-0.7-1.8-0.7c-0.7,0-1.3,0.2-1.8,0.7c-0.5,0.5-0.9,1-1.1,1.7c-0.5,2.6-0.5,5.4,0,8
		C747.5,952.3,747.9,952.9,748.4,953.3z M768.9,955.6v-12.1h-0.2l-5.8,12.1h-2v-16h2v12.1h0.2l5.9-12.1h2v16H768.9z M776.9,955.6h-2
		v-16h2l4.9,8h0.2l4.9-8h2v16h-2v-12.4h-0.2l-4,6.4H781l-4-6.4h-0.2L776.9,955.6z M794.9,951.9h4v3.8h-4V951.9z"/>
</g>
<g>
	<path d="M883.7,577.5c-1.2-4.6-1.7-11.9-1.8-21.8c0-9.9,0.6-17.2,1.8-21.8c1.4-6.4,4.7-12.1,9.4-16.6c4.6-4.4,10.6-6.6,17.8-6.6
		c7.2,0,13.2,2.2,17.8,6.6c4.7,4.5,8,10.3,9.4,16.6c1.2,4.6,1.8,11.9,1.8,21.8c0,9.9-0.6,17.2-1.8,21.8c-1.4,6.4-4.7,12.2-9.4,16.7
		c-4.6,4.3-10.6,6.5-17.8,6.5c-7.3,0-13.2-2.2-17.8-6.5C888.4,589.6,885.1,583.8,883.7,577.5z M898,562.9c0.1,3,0.4,5.9,0.8,8.9
		c0.6,3.6,2,7,4.1,10c1.9,2.5,4.8,3.9,7.9,3.9c3.1,0.1,6-1.4,7.9-3.9c2.2-2.9,3.6-6.4,4.2-10c0.4-2.9,0.7-5.9,0.8-8.9H898z
		 M923.8,547.9c-0.1-2.8-0.4-5.6-0.8-8.4c-0.6-3.6-2-7-4.2-9.9c-1.8-2.5-4.8-4-7.9-3.9c-3.1-0.1-6.1,1.4-7.9,3.9
		c-2.2,2.9-3.6,6.3-4.1,9.9c-0.4,2.8-0.7,5.6-0.8,8.4H923.8z"/>
</g>
<g>
	<path d="M779.2,405.1c3.4-9,9.3-13.6,17.8-13.6c8.4,0,14.3,4.5,17.8,13.6c0.9,2.7,1.5,5.6,1.7,8.4c0.4,3.6,0.6,6.9,0.6,9.8
		c0,3,0.1,7.4,0.1,13.3c0,6,0,10.4-0.1,13.4c-0.1,3-0.3,6.2-0.6,9.8c-0.2,2.9-0.8,5.7-1.7,8.4c-3.4,9-9.3,13.6-17.8,13.6
		c-8.4,0-14.3-4.5-17.8-13.6c-0.9-2.7-1.5-5.6-1.7-8.4c-0.4-3.6-0.6-6.8-0.7-9.8s-0.1-7.4-0.1-13.4c0-6,0-10.4,0.1-13.3
		c0-2.9,0.3-6.2,0.7-9.8C777.7,410.6,778.3,407.8,779.2,405.1z M796.9,406.8c-1.8,0-3.1,2.6-3.8,7.9c-0.4,2.8-0.6,10.1-0.6,22v6.6
		l8.4-27.6c-0.2-2.1-0.7-4.2-1.4-6.2C798.7,407.6,797.9,406.8,796.9,406.8L796.9,406.8z M793,457.6c0.2,2.2,0.7,4.3,1.4,6.4
		c0.7,1.7,1.5,2.6,2.5,2.6c1.8,0,3.1-2.6,3.8-7.9c0.4-2.8,0.6-10.1,0.6-22v-6.6L793,457.6z"/>
</g>
<g>
	<path d="M1018.9,425.9h16v15h-16V425.9z M1014.8,417.5c-0.8,5.3-1.1,10.7-0.9,16.1c-0.1,5.4,0.2,10.8,0.9,16.1c0.6,3.6,2,7,4.1,10
		c1.9,2.5,4.8,3.9,7.9,3.9c3.1,0.1,6-1.4,7.9-3.9c2.2-2.9,3.6-6.4,4.2-10c0.8-5.3,1.1-10.7,0.9-16.1c0.1-5.4-0.2-10.8-0.9-16.1
		c-0.6-3.6-2-7-4.2-9.9c-1.8-2.5-4.8-4-7.9-3.9c-3.1-0.1-6.1,1.4-7.9,3.9C1016.8,410.5,1015.4,413.9,1014.8,417.5z M999.7,455.5
		c-1.2-4.6-1.7-11.9-1.8-21.8c0-9.9,0.6-17.2,1.8-21.8c1.4-6.4,4.7-12.1,9.4-16.6c4.6-4.4,10.6-6.6,17.8-6.6
		c7.3,0,13.2,2.2,17.8,6.6c4.7,4.5,8,10.3,9.4,16.6c1.2,4.6,1.8,11.9,1.8,21.8s-0.6,17.2-1.8,21.8c-1.4,6.4-4.7,12.2-9.4,16.7
		c-4.6,4.3-10.6,6.5-17.8,6.5c-7.3,0-13.2-2.2-17.8-6.5C1004.4,467.6,1001.1,461.8,999.7,455.5z"/>
</g>
<g>
	<path d="M166.1,1040.2c-61.2,0-120.6-12-176.5-35.6c-54-22.8-102.5-55.5-144.1-97.2s-74.3-90.1-97.2-144.1
		c-23.6-55.9-35.6-115.3-35.6-176.5c0-61.2,12-120.6,35.6-176.5c22.8-54,55.5-102.5,97.2-144.1c41.6-41.6,90.1-74.3,144.1-97.2
		c55.9-23.6,115.3-35.6,176.5-35.6s120.6,12,176.5,35.6c54,22.8,102.5,55.5,144.1,97.2c41.6,41.6,74.3,90.1,97.2,144.1
		c23.6,55.9,35.6,115.3,35.6,176.5c0,61.2-12,120.6-35.6,176.5c-22.8,54-55.5,102.5-97.2,144.1c-41.6,41.6-90.1,74.3-144.1,97.2
		C286.7,1028.3,227.3,1040.2,166.1,1040.2z M166.1,138.4c-247.3,0-448.4,201.2-448.4,448.4s201.2,448.4,448.4,448.4
		c247.3,0,448.4-201.2,448.4-448.4S413.4,138.4,166.1,138.4z"/>
</g>
<g>
	<path d="M166.1,1099.5c-69.2,0-136.4-13.6-199.6-40.3c-61.1-25.8-115.9-62.8-163-109.9c-47.1-47.1-84.1-101.9-109.9-163
		c-26.7-63.2-40.3-130.3-40.3-199.6c0-69.2,13.6-136.4,40.3-199.6c25.8-61.1,62.8-115.9,109.9-163c47.1-47.1,101.9-84.1,163-109.9
		C29.7,87.7,96.9,74.1,166.1,74.1c69.2,0,136.4,13.6,199.6,40.3c61.1,25.8,115.9,62.8,163,109.9c47.1,47.1,84.1,101.9,109.9,163
		c26.7,63.2,40.3,130.3,40.3,199.6s-13.6,136.4-40.3,199.6c-25.8,61.1-62.8,115.9-109.9,163c-47.1,47.1-101.9,84.1-163,109.9
		C302.5,1085.9,235.3,1099.5,166.1,1099.5z M166.1,79.1c-279.9,0-507.7,227.8-507.7,507.7c0,279.9,227.8,507.7,507.7,507.7
		s507.7-227.8,507.7-507.7C673.8,306.9,446,79.1,166.1,79.1z"/>
</g>
<g>
	<path d="M166.1,1040.2c-61.2,0-120.6-12-176.5-35.6c-54-22.8-102.5-55.5-144.1-97.2s-74.3-90.1-97.2-144.1
		c-23.6-55.9-35.6-115.3-35.6-176.5c0-61.2,12-120.6,35.6-176.5c22.8-54,55.5-102.5,97.2-144.1c41.6-41.6,90.1-74.3,144.1-97.2
		c55.9-23.6,115.3-35.6,176.5-35.6s120.6,12,176.5,35.6c54,22.8,102.5,55.5,144.1,97.2c41.6,41.6,74.3,90.1,97.2,144.1
		c23.6,55.9,35.6,115.3,35.6,176.5c0,61.2-12,120.6-35.6,176.5c-22.8,54-55.5,102.5-97.2,144.1c-41.6,41.6-90.1,74.3-144.1,97.2
		C286.7,1028.3,227.3,1040.2,166.1,1040.2z M166.1,138.4c-247.3,0-448.4,201.2-448.4,448.4s201.2,448.4,448.4,448.4
		c247.3,0,448.4-201.2,448.4-448.4S413.4,138.4,166.1,138.4z"/>
</g>
<g>
	<path d="M111.2,337.4v-33h6v27.4h13.5v5.6H111.2z M153.2,304.4v5.6h-6v21.8h6v5.6h-18v-5.6h6V310h-6v-5.6L153.2,304.4z
		 M175.7,337.6c-2,0.1-3.4,0.1-4.3,0.1c-1.9,0.1-3.8-0.5-5.4-1.7c-0.5-0.4-0.9-0.9-1.3-1.5c-0.3-0.5-0.6-1.1-0.7-1.6
		c-0.1-0.5-0.2-0.9-0.2-1.4c0-0.3,0-0.8,0-1.4v-25.8h6v25.3c-0.1,0.7,0.2,1.4,0.6,1.9c0.7,0.5,1.5,0.7,2.4,0.6c1.1,0,2.1,0,3-0.1
		L175.7,337.6z M190.7,337.4V322h-5.8v-5.6h11.8v21L190.7,337.4z M189.2,305.7c0.8-0.8,1.9-1.2,3-1.2c2.2-0.1,4.1,1.6,4.1,3.8
		c0,0.1,0,0.2,0,0.3c0,2.3-1.9,4.1-4.2,4.1c-2.3,0-4.1-1.9-4.1-4.1C188,307.6,188.4,306.5,189.2,305.7L189.2,305.7z M225.2,337.4
		c-1.5,0.2-3,0.3-4.5,0.4c-1.2,0-2.3-0.2-3.4-0.7c-1-0.4-1.8-1.1-2.5-1.9c-0.5-0.6-0.9-1.3-1.1-2.1c-0.2-0.6-0.4-1.3-0.4-2
		c0-0.5,0-1.3,0-2.2v-9.8h-6v-5.8h6v-6h6v6h6v5.8h-6v9.6c0,0.9,0.1,1.7,0.4,2.6c0.2,0.6,0.8,0.9,1.4,0.8c1.4,0,2.8-0.1,4.3-0.4
		L225.2,337.4z"/>
</g>
<g>
	<path d="M125,407.3h-2v-22h2l4.9,9.8h0.2l4.9-9.8h2v22h-2v-18h-0.1l-4,8h-1.7l-4-8H125V407.3z M141.1,391.3
		c-0.5,3.3-0.5,6.7,0,10.1c0.3,1.2,0.8,2.3,1.7,3.1c0.9,0.8,2,1.3,3.2,1.2c1.2,0.1,2.3-0.4,3.2-1.2c0.8-0.9,1.4-1.9,1.7-3.1
		c0.5-3.3,0.5-6.7,0-10.1c-0.3-1.2-0.8-2.3-1.7-3.1c-0.8-0.8-2-1.3-3.2-1.2c-1.2,0-2.3,0.4-3.2,1.2
		C142,389.1,141.4,390.1,141.1,391.3L141.1,391.3z M139.2,401.8c-0.6-3.6-0.6-7.3,0-10.9c0.4-1.6,1.2-3,2.4-4.2
		c2.6-2.2,6.3-2.2,8.9,0c1.2,1.1,2,2.6,2.4,4.2c0.6,3.6,0.6,7.3,0,10.9c-0.4,1.6-1.2,3-2.4,4.2c-2.6,2.2-6.3,2.2-8.9,0
		C140.4,404.8,139.6,403.4,139.2,401.8L139.2,401.8z M157,407.4h-2v-22h2l9.9,18.1h0.2v-18.1h2v22h-2l-9.8-18.1H157L157,407.4z
		 M173.2,391.4c-0.5,3.3-0.5,6.7,0,10.1c0.3,1.2,0.8,2.3,1.7,3.1c0.9,0.8,2,1.3,3.2,1.2c1.2,0.1,2.3-0.4,3.2-1.2
		c0.8-0.9,1.4-2,1.7-3.1c0.5-3.3,0.5-6.7,0-10.1c-0.3-1.2-0.9-2.3-1.7-3.1c-0.8-0.8-2-1.3-3.2-1.2c-1.2,0-2.3,0.4-3.2,1.2
		C174,389.1,173.5,390.1,173.2,391.4L173.2,391.4z M171.2,401.8c-0.6-3.6-0.6-7.3,0-10.9c0.4-1.6,1.2-3,2.4-4.2
		c2.6-2.2,6.3-2.2,8.9,0c1.2,1.1,2,2.6,2.4,4.2c0.6,3.6,0.6,7.3,0,10.9c-0.4,1.6-1.2,3-2.4,4.2c-2.6,2.2-6.3,2.2-8.9,0
		C172.4,404.8,171.6,403.4,171.2,401.8L171.2,401.8z M199,385.4v1.9h-4v18.2h4v1.9h-10v-1.9h4v-18.3h-4v-1.9L199,385.4z
		 M208.4,385.4c3.4,0,5.8,1.2,7.3,3.7c0.6,1,1,2.1,1.2,3.2c0.4,2.7,0.4,5.5,0,8.2c-0.2,1.1-0.6,2.2-1.2,3.2c-1.5,2.5-4,3.7-7.3,3.7
		H203v-22L208.4,385.4z M215,400.2c0.4-2.6,0.4-5.2,0-7.8c-0.2-1-0.5-1.9-1.1-2.7c-1.3-1.7-3.3-2.7-5.5-2.5h-3.4v18.2h3.4
		c2.1,0.2,4.2-0.8,5.5-2.5C214.5,402.1,214.8,401.2,215,400.2z"/>
</g>
<g>
	<path d="M101.5,180.7l-14.2,2.5l7.3,41.6l14.2-2.5L101.5,180.7z"/>
</g>
<g>
	<path d="M31.7,198.1L18.1,203l14.5,39.7l13.5-4.9L31.7,198.1z"/>
</g>
<g>
	<path d="M17.8,974.1l13.5,4.9l14.5-39.7l-13.5-4.9L17.8,974.1z"/>
</g>
<g>
	<path d="M87,993.9l14.2,2.5l7.3-41.6l-14.2-2.5L87,993.9z"/>
</g>
<g>
	<path d="M230.4,996.5l14.2-2.5l-7.3-41.6l-14.2,2.5L230.4,996.5z"/>
</g>
<g>
	<path d="M300.3,979.1l13.5-4.9l-14.5-39.7l-13.5,4.9L300.3,979.1z"/>
</g>
<g>
	<path d="M366,949.8l12.5-7.2L357.4,906l-12.5,7.2L366,949.8z"/>
</g>
<g>
	<path d="M425.7,909.6l11-9.3L409.6,868l-11,9.3L425.7,909.6z"/>
</g>
<g>
	<path d="M477.5,859.6l9.2-11l-32.4-27.2l-9.3,11L477.5,859.6z"/>
</g>
<g>
	<path d="M519.8,801.4l7.2-12.5l-36.6-21.1l-7.2,12.5L519.8,801.4z"/>
</g>
<g>
	<path d="M551.4,736.7l4.9-13.5l-39.7-14.5l-4.9,13.5L551.4,736.7z"/>
</g>
<g>
	<path d="M571.3,667.5l2.5-14.2l-41.6-7.4l-2.5,14.2L571.3,667.5z"/>
</g>
<g>
	<path d="M573.8,524.2l-2.5-14.2l-41.6,7.3l2.5,14.2L573.8,524.2z"/>
</g>
<g>
	<path d="M554.5,453.8l-4.9-13.5l-39.7,14.4l4.9,13.5L554.5,453.8z"/>
</g>
<g>
	<path d="M527.2,388.5L520,376l-36.6,21.1l7.2,12.5L527.2,388.5z"/>
</g>
<g>
	<path d="M437,277l-11-9.3l-27.2,32.4l11,9.3L437,277z"/>
</g>
<g>
	<path d="M378.8,234.7l-12.5-7.2l-21.1,36.6l12.5,7.2L378.8,234.7z"/>
</g>
<g>
	<path d="M314.1,203.1l-13.5-4.9l-14.4,39.7l13.5,4.9L314.1,203.1z"/>
</g>
<g>
	<path d="M244.9,183.3l-14.2-2.5l-7.3,41.6l14.2,2.5L244.9,183.3z"/>
</g>
<g>
	<path d="M166.1,220.4l25.8-44.7h-51.6L166.1,220.4z"/>
</g>
<g>
	<path d="M535.4,588.8l44.6,25.8V563L535.4,588.8z"/>
</g>
<g>
	<path d="M166.1,957.3l-25.8,44.7h51.6L166.1,957.3z"/>
</g>
<g>
	<path d="M232.3,362H104.6c-21.5,0-39-17.5-39-39v-9.1c0-21.5,17.5-39,39-39h127.7c21.5,0,39,17.5,39,39v9.1
		C271.3,344.5,253.8,362,232.3,362z M104.6,279.9c-18.7,0-34,15.2-34,34v9.1c0,18.7,15.2,34,34,34h127.7c18.7,0,34-15.2,34-34v-9.1
		c0-9.1-3.5-17.6-9.9-24c-6.4-6.4-14.9-10-24-10l0-2.5v2.5H104.6z"/>
</g>
<g>
	<path d="M136.9,765.7h1.9v1.8c0.7,0,1.9,0.1,3.6,0.3v3.6c-1.9-0.2-3.1-0.3-3.6-0.3v5.5c0.9,0.3,1.7,0.8,2.4,1.4
		c0.6,0.6,1.1,1.3,1.4,2.1c0.3,0.8,0.5,1.6,0.4,2.4c0.1,1.7-0.5,3.3-1.7,4.6c-1.2,1.2-2.8,1.9-4.5,1.8v1.7H135v-1.7
		c-1.3-0.1-2.6-0.2-3.9-0.4v-3.6c1.8,0.3,3.1,0.4,3.9,0.5v-5.8c-1.2-0.3-2.3-1.1-3.1-2.1c-0.8-1.1-1.2-2.4-1.1-3.8
		c-0.1-1.6,0.6-3.2,1.7-4.4c1.2-1.2,2.8-1.8,4.5-1.7L136.9,765.7z M136.9,770.9c-0.6,0-1.3,0.2-1.7,0.6c-0.4,0.5-0.7,1.2-0.6,1.9
		c0,0.6,0.1,1.3,0.5,1.8c0.5,0.5,1.1,0.8,1.8,0.8V770.9z M136.9,779.7v5.5c1.6-0.1,2.4-1,2.4-2.8c0-0.6-0.2-1.3-0.6-1.8
		C138.2,780,137.6,779.7,136.9,779.7L136.9,779.7z M150.9,788.8c-1.8,0-3.7-0.2-5.5-0.5v-3.6c1.8,0.3,3.7,0.5,5.5,0.5
		c1.8,0,2.6-1,2.6-2.8c0-0.5-0.1-1-0.4-1.5c-0.2-0.5-0.6-0.8-1.1-1c-0.4-0.1-0.8-0.2-1.2-0.3c-0.5-0.1-1-0.2-1.6-0.3
		c-0.5-0.1-1.1-0.4-1.5-0.6c-1.9-1.1-2.9-3.1-2.8-5.3c0-1.6,0.5-3.2,1.6-4.3c1.1-1.2,2.6-1.8,4.2-1.8c1.3,0,3.2,0.1,5.5,0.4v3.6
		c-2.4-0.3-4.3-0.4-5.5-0.4c-0.4,0-0.7,0.1-1,0.3c-0.3,0.2-0.5,0.4-0.6,0.7c-0.1,0.3-0.3,0.5-0.3,0.8c-0.1,0.3-0.1,0.5-0.1,0.8
		c-0.1,0.9,0.3,1.9,1.2,2.3c0.6,0.2,1.2,0.3,1.8,0.4c0.8,0.1,1.5,0.3,2.2,0.7c0.8,0.4,1.5,0.9,2,1.6c0.5,0.6,0.9,1.3,1.1,2
		c0.2,0.6,0.3,1.3,0.3,2c0.1,1.7-0.6,3.4-1.8,4.7C154.3,788.2,152.6,788.9,150.9,788.8L150.9,788.8z M164.5,771.1v6.1h0.9
		c0.6,0,1.2,0,1.9-0.1c0.6-0.1,1.2-0.5,1.6-1c0.8-1.2,0.8-2.7,0-3.8c-0.4-0.5-1-0.9-1.6-1c-0.6-0.1-1.2-0.1-1.9-0.1L164.5,771.1z
		 M160.7,767.6h4.7c1.1,0,2.1,0,3.1,0.2c1.4,0.3,2.6,1.1,3.4,2.2c0.9,1.2,1.4,2.7,1.3,4.2c0,1.2-0.3,2.3-0.8,3.3
		c-0.5,0.9-1.2,1.7-2.1,2.3l3.3,8.8h-4.1l-2.7-7.8h-2.4v7.8h-3.8L160.7,767.6z M180.5,776.2c0.5,0,1,0,1.5-0.1
		c0.5-0.1,1-0.4,1.3-0.8c0.3-0.5,0.5-1,0.5-1.6c0-0.6-0.2-1.1-0.5-1.6c-0.3-0.4-0.8-0.7-1.3-0.8c-0.5-0.1-1-0.1-1.5-0.1h-0.7v5.1
		H180.5z M185.2,777.7c1,0.3,1.9,0.9,2.4,1.8c0.6,1,0.9,2.1,0.9,3.3c0,1.3-0.4,2.5-1.1,3.6c-0.7,1-1.7,1.6-2.8,1.9
		c-1,0.2-2.1,0.3-3.2,0.2H176v-21h4.5c0.9,0,1.8,0,2.7,0.2c1.2,0.3,2.3,0.9,3,1.9c0.8,1,1.2,2.3,1.2,3.6c0,2.1-0.7,3.5-2.2,4.3
		V777.7z M179.8,779.8v5.2h1.5c0.6,0,1.2,0,1.8-0.1c0.5-0.1,0.9-0.4,1.2-0.8c0.3-0.5,0.5-1.1,0.4-1.6c0-0.6-0.1-1.1-0.4-1.6
		c-0.3-0.4-0.7-0.7-1.2-0.8c-0.6-0.1-1.2-0.1-1.8-0.1L179.8,779.8z M200,776.1c0.9,0.4,1.6,1.1,1.9,2c0.4,1.3,0.6,2.6,0.5,3.9
		c0,1.2-0.1,2.4-0.4,3.5c-0.2,0.9-0.6,1.7-1.3,2.4c-0.6,0.6-1.4,0.9-2.3,0.9c-0.5,0-1.1-0.1-1.6-0.2l0.2-3.5c0.4,0,0.6,0.1,0.8,0.1
		c0.3,0,0.5-0.3,0.6-0.8c0.1-0.8,0.1-1.6,0.1-2.3c0-0.7,0-1.4-0.1-2.1c-0.1-0.5-0.2-1-0.5-1.4c-0.2-0.3-0.6-0.6-1-0.5v-3.6
		c0.5,0,0.8-0.6,0.8-1.9c0-1-0.2-1.5-0.8-1.5c-0.3,0-0.5,0.1-0.6,0.4c-0.1,0.4-0.2,0.8-0.2,1.2v16.1h-3.8v-16.1
		c-0.1-1.3,0.3-2.7,1.1-3.7c0.9-1,2.1-1.5,3.4-1.4c1.3-0.1,2.5,0.5,3.4,1.4c0.9,1,1.3,2.2,1.3,3.5c0,0.8-0.1,1.6-0.3,2.3
		c-0.2,0.6-0.6,1.2-1.2,1.5V776.1z"/>
</g>
<g>
	<path d="M207.6,804.3h-83c-13,0-23.6-10.6-23.6-23.6v-9c0-13,10.6-23.6,23.6-23.6h83c13,0,23.6,10.6,23.6,23.6v9
		C231.2,793.7,220.6,804.3,207.6,804.3z M124.6,753c-10.3,0-18.6,8.4-18.6,18.6v9c0,10.3,8.4,18.6,18.6,18.6h83
		c10.3,0,18.6-8.4,18.6-18.6v-9c0-10.3-8.4-18.6-18.6-18.6H124.6z"/>
</g>
<g>
	<path d="M158.6,891.9h10v9.4h-10V891.9z M156,886.6c-0.8,6.7-0.8,13.5,0,20.2c0.4,2.2,1.3,4.4,2.6,6.2c1.2,1.6,3,2.5,5,2.4
		c1.9,0,3.8-0.9,4.9-2.4c1.4-1.8,2.3-4,2.6-6.2c0.8-6.7,0.8-13.5,0-20.2c-0.4-2.3-1.3-4.4-2.6-6.2c-1.1-1.6-3-2.5-4.9-2.5
		c-2-0.1-3.8,0.9-5,2.5C157.2,882.2,156.3,884.4,156,886.6z M146.5,910.3c-0.7-2.9-1.1-7.4-1.1-13.6c0-6.2,0.4-10.7,1.1-13.6
		c0.9-4,3-7.6,5.9-10.4c6.4-5.5,15.9-5.5,22.3,0c2.9,2.8,5,6.4,5.9,10.4c0.7,2.9,1.1,7.4,1.1,13.6c0,6.2-0.4,10.7-1.1,13.6
		c-0.9,4-3,7.6-5.9,10.4c-6.4,5.4-15.8,5.4-22.3,0C149.5,917.9,147.4,914.3,146.5,910.3L146.5,910.3z"/>
</g>
<g>
	<path d="M440.8,573.6c2.1-5.7,5.8-8.5,11.1-8.5c5.3,0,9,2.8,11.1,8.5c0.6,1.7,0.9,3.5,1,5.3c0.2,2.2,0.4,4.3,0.4,6.1
		c0.1,1.8,0.1,4.6,0.1,8.3s0,6.5-0.1,8.4s-0.1,3.8-0.4,6.1c-0.1,1.8-0.5,3.6-1,5.3c-2.1,5.7-5.8,8.5-11.1,8.5c-5.3,0-9-2.8-11.1-8.5
		c-0.6-1.7-0.9-3.5-1-5.3c-0.2-2.2-0.4-4.3-0.4-6.1c0-1.8,0-4.6,0-8.4c0-3.7,0-6.5,0-8.3s0.2-3.9,0.4-6.1
		C439.9,577.1,440.3,575.3,440.8,573.6z M451.9,574.7c-1.1,0-1.9,1.6-2.4,4.9c-0.4,4.6-0.5,9.2-0.4,13.8v4.1l5.2-17.2
		c-0.1-1.3-0.4-2.6-0.9-3.9C453.1,575.2,452.5,574.7,451.9,574.7L451.9,574.7z M449.5,606.4c0.1,1.3,0.4,2.7,0.9,4
		c0.4,1.1,0.9,1.6,1.6,1.6c1.1,0,1.9-1.6,2.4-4.9c0.4-4.6,0.5-9.2,0.4-13.8v-4.1L449.5,606.4z"/>
</g>
<g>
	<path d="M426.5,415c-0.3-1.2-1.5-2-2.8-1.7c-0.8,0.2-1.5,0.9-1.7,1.7c-0.5,1.4-0.8,2.9-0.7,4.5c-0.1,1.8,0.2,3.6,0.7,5.4
		c0.5,1.4,1.2,2.1,2.2,2.1s1.7-0.7,2.2-2.1c0.5-1.7,0.8-3.5,0.7-5.4C427.3,417.9,427,416.4,426.5,415z M414.7,408.1
		c2.3-2.8,5.5-4.2,9.6-4.2s7.3,1.4,9.6,4.2c2.3,3,3.5,6.8,3.4,10.6c0,5.9-2,10.1-6.1,12.6v0.4c4.6,2.5,6.9,6.9,6.9,13.2
		c0.2,4-1.1,7.9-3.6,10.9c-2.4,2.9-5.8,4.3-10.1,4.3s-7.7-1.4-10.1-4.3c-2.5-3.1-3.8-7-3.6-10.9c0-6.3,2.3-10.7,6.9-13.2v-0.4
		c-4.1-2.5-6.1-6.6-6.1-12.6C411.2,414.8,412.4,411.1,414.7,408.1L414.7,408.1z M427.1,438.5c-0.4-1.6-2-2.5-3.6-2.1
		c-1,0.3-1.8,1.1-2.1,2.1c-0.7,1.8-1,3.7-0.9,5.6c-0.1,1.7,0.3,3.3,0.9,4.8c0.7,1.6,2.5,2.3,4,1.6c0.7-0.3,1.3-0.9,1.6-1.6
		c0.7-1.5,1-3.1,0.9-4.8C428.1,442.2,427.8,440.3,427.1,438.5L427.1,438.5z"/>
</g>
<g>
	<path d="M319.2,343.5c-0.7-2.9-1.1-7.4-1.1-13.6c0-6.2,0.4-10.7,1.1-13.6c0.9-4,3-7.6,5.9-10.4c6.4-5.5,15.9-5.5,22.3,0
		c2.9,2.8,5,6.4,5.9,10.4c0.7,2.9,1.1,7.4,1.1,13.6s-0.4,10.7-1.1,13.6c-0.9,4-3,7.6-5.9,10.4c-6.4,5.4-15.8,5.4-22.3,0
		C322.1,351.1,320.1,347.5,319.2,343.5z M328.2,334.4c0.1,1.9,0.2,3.7,0.5,5.5c0.4,2.3,1.2,4.4,2.6,6.2c1.2,1.6,3,2.5,5,2.4
		c1.9,0,3.8-0.9,4.9-2.4c1.4-1.8,2.3-4,2.6-6.2c0.3-1.8,0.5-3.7,0.5-5.5H328.2z M344.3,325c-0.1-1.8-0.2-3.5-0.5-5.2
		c-0.4-2.3-1.3-4.4-2.6-6.2c-1.1-1.6-3-2.5-4.9-2.5c-2-0.1-3.8,0.9-5,2.5c-1.3,1.8-2.2,4-2.6,6.2c-0.3,1.7-0.5,3.5-0.5,5.2H344.3z"
		/>
</g>
<g>
	<path d="M418.8,748.8c1.3,0.1,2.6,0,3.8-0.2c1.3-0.3,2.5-1.1,3.4-2.2c0.9-1.2,1.3-2.7,1.3-4.2c0-1.5-0.4-3-1.3-4.1
		c-0.8-1.1-2-1.9-3.4-2.2c-1.3-0.2-2.5-0.3-3.8-0.3h-1.7v13.3L418.8,748.8z M431.1,752.7c2.6,0.7,4.9,2.5,6.2,4.8
		c1.6,2.6,2.4,5.6,2.3,8.6c0.1,3.4-0.9,6.7-2.9,9.4c-1.8,2.5-4.4,4.3-7.4,5c-2.7,0.5-5.5,0.7-8.3,0.6h-13.8v-55h11.7
		c2.4-0.1,4.8,0.1,7.2,0.5c3.1,0.7,5.9,2.5,7.9,5c2.1,2.7,3.2,6,3,9.4c0,5.5-2,9.3-5.9,11.3V752.7z M417.1,758.2v13.6h3.9
		c1.6,0.1,3.1,0,4.7-0.3c1.3-0.3,2.4-1.1,3.1-2.2c1.6-2.6,1.6-5.9,0-8.5c-0.7-1.1-1.8-1.9-3.1-2.2c-1.5-0.3-3.1-0.4-4.7-0.3
		L417.1,758.2z"/>
</g>
<g>
	<path d="M306.1,843.2c-0.8,6.7-0.8,13.5,0,20.2c0.4,2.3,1.2,4.4,2.6,6.2c1.2,1.6,3,2.5,5,2.4c1.9,0,3.8-0.9,4.9-2.4
		c1.4-1.8,2.3-4,2.6-6.2c0.8-6.7,0.8-13.5,0-20.2c-0.4-2.3-1.3-4.4-2.6-6.2c-1.1-1.6-3-2.5-4.9-2.5c-2-0.1-3.8,0.9-5,2.5
		C307.3,838.8,306.4,840.9,306.1,843.2z M296.6,866.9c-0.7-2.9-1.1-7.4-1.1-13.6s0.4-10.7,1.1-13.6c0.9-4,3-7.6,5.9-10.4
		c6.4-5.5,15.9-5.5,22.3,0c2.9,2.8,5,6.4,5.9,10.4c0.7,2.9,1.1,7.4,1.1,13.6c0,6.2-0.4,10.7-1.1,13.6c-0.9,4-3,7.6-5.9,10.4
		c-6.4,5.4-15.8,5.4-22.3,0C299.5,874.5,297.5,870.9,296.6,866.9z"/>
</g>
<g>
	<path d="M181.9,597.6c13.3,0,24-10.7,24-24s-10.7-24-24-24s-24,10.7-24,24S168.6,597.6,181.9,597.6z"/>
</g>
<g>
	<path d="M106.9,672.6c18.2,0,33-14.8,33-33s-14.8-33-33-33s-33,14.8-33,33l0,0C73.9,657.9,88.7,672.6,106.9,672.6z"/>
</g>
<g>
	<path d="M91.8,664.2l-13.3-15.9l380.3-319.1l42.1-21.5l-28.8,37.4L91.8,664.2z"/>
</g>
<g>
	<path d="M1014.8,624.5c-1.3,10.7-1.3,21.5,0,32.2c0.6,3.6,2,7,4.1,10c1.9,2.5,4.8,3.9,7.9,3.9c3.1,0.1,6-1.4,7.9-3.9
		c2.2-2.9,3.6-6.4,4.2-10c1.3-10.7,1.3-21.5,0-32.2c-0.6-3.6-2-7-4.2-9.9c-1.8-2.5-4.8-4-7.9-3.9c-3.1-0.1-6.1,1.4-7.9,3.9
		C1016.8,617.5,1015.4,620.9,1014.8,624.5z M999.7,662.5c-1.2-4.6-1.7-11.9-1.8-21.8c0-9.9,0.6-17.2,1.8-21.8
		c1.4-6.4,4.7-12.1,9.4-16.6c4.6-4.4,10.6-6.6,17.8-6.6c7.3,0,13.2,2.2,17.8,6.6c4.7,4.5,8,10.3,9.4,16.6c1.2,4.6,1.8,11.9,1.8,21.8
		s-0.6,17.2-1.8,21.8c-1.4,6.4-4.7,12.2-9.4,16.7c-4.6,4.3-10.6,6.5-17.8,6.5c-7.3,0-13.2-2.2-17.8-6.5
		C1004.4,674.6,1001.1,668.8,999.7,662.5z"/>
</g>
<g>
	<path d="M1037.5,822.5c-0.8-1.9-2-2.8-3.6-2.8c-1.6,0-2.8,0.9-3.6,2.8c-0.9,2.3-1.3,4.7-1.2,7.1c-0.1,2.9,0.3,5.8,1.2,8.6
		c0.8,2.3,2,3.4,3.6,3.4s2.8-1.1,3.6-3.4c0.9-2.8,1.3-5.7,1.2-8.6C1038.7,827.1,1038.3,824.7,1037.5,822.5z M1018.6,811.4
		c3.6-4.5,8.7-6.8,15.3-6.8c6.6,0,11.7,2.2,15.3,6.8c3.6,4.5,5.4,10.1,5.4,16.9c0,9.5-3.3,16.2-9.8,20.1v0.6
		c7.4,4,11.1,11.1,11.1,21.2c0,7.1-1.9,12.9-5.8,17.5c-3.9,4.6-9.3,6.9-16.2,6.9c-6.9,0-12.3-2.3-16.2-6.9
		c-3.9-4.6-5.8-10.4-5.8-17.5c0-10.1,3.7-17.2,11.1-21.2v-0.6c-6.5-3.9-9.8-10.6-9.8-20.1C1013.2,821.5,1015,815.8,1018.6,811.4
		L1018.6,811.4z M1038.4,860c-1-2.3-2.5-3.5-4.5-3.5s-3.5,1.2-4.5,3.5c-1.1,2.9-1.6,5.9-1.5,9c-0.1,2.6,0.4,5.3,1.5,7.7
		c1.1,2.5,4,3.6,6.5,2.5c1.1-0.5,2-1.4,2.5-2.5c1.1-2.4,1.6-5,1.5-7.7C1040,865.9,1039.5,862.9,1038.4,860z"/>
</g>
<g>
	<path d="M918.7,718.9c2.1,0.1,4.1,0,6.1-0.4c2.2-0.5,4.1-1.7,5.4-3.5c2.8-4.1,2.8-9.4,0-13.4c-1.3-1.8-3.2-3-5.4-3.5
		c-2-0.3-4.1-0.5-6.1-0.4h-2.8v21.2H918.7z M938.2,725.1c4.2,1.2,7.8,3.9,10,7.7c2.5,4.2,3.8,9,3.6,13.8c0.1,5.4-1.5,10.6-4.6,15
		c-2.9,4-7.1,6.8-11.9,8c-2.7,0.7-7.1,1-13.3,1h-22.1v-88h18.8c3.9-0.1,7.7,0.1,11.5,0.8c5,1.1,9.4,3.9,12.6,7.9
		c3.3,4.3,5,9.6,4.9,15c0,8.8-3.1,14.8-9.4,18.1V725.1z M915.9,733.9v21.8h6.2c2.5,0.1,5-0.1,7.5-0.5c2.1-0.5,3.8-1.8,5-3.6
		c2.5-4.2,2.5-9.4,0-13.6c-1.1-1.8-2.9-3.1-5-3.6c-2.5-0.4-5-0.6-7.5-0.5H915.9z"/>
</g>
<g>
	<g>
		<path d="M657.9,1316.2c-0.3,0-0.6,0-1,0c-41.8-0.2-81.1-16.8-110.5-46.5c-29.4-29.8-45.5-69.2-45.2-111.1
			c0.5-86.1,70.7-155.7,156.7-155.7c0.3,0,0.6,0,0.9,0l2.5,0l-0.4,76.8l-2.5,0c-0.2,0-0.3,0-0.5,0c-43.8,0-79.6,35.5-79.9,79.4
			c-0.1,21.3,8.1,41.5,23,56.6c15,15.2,35,23.6,56.3,23.8c0.2,0,0.3,0,0.5,0c43.8,0,79.6-35.5,79.9-79.4l0-0.2l0.2-2.3l76.6,0.5
			l0,2.5c-0.2,41.8-16.8,81.1-46.5,110.5C738.4,1300.1,699.3,1316.2,657.9,1316.2z M656.2,1007.9c-82.5,0.9-149.6,68-150,150.8
			c-0.2,40.5,15.3,78.7,43.8,107.5c28.5,28.8,66.5,44.8,107,45.1c0.3,0,0.6,0,0.9,0c40.2,0,78-15.5,106.6-43.8
			c28.2-27.9,44.2-64.9,45-104.5l-66.8-0.4c-1.6,45.5-39.1,81.9-84.8,81.9c-0.2,0-0.4,0-0.5,0c-22.7-0.1-43.9-9.1-59.9-25.2
			c-15.9-16.1-24.6-37.5-24.5-60.2c0.3-46,37.3-83.3,82.9-84.3L656.2,1007.9z"/>
	</g>
</g>
<g>
	<g>
		<path d="M1519.3,1054.9c-75.5,0-147.5-27.4-204.3-78.1c-55.3-49.4-91-117.1-100.3-190.7l-0.3-2.5l90.7-11.5l0.3,2.5
			c15,118.2,123.4,202.2,241.6,187.2c118.2-15,202.2-123.4,187.2-241.6c-15-118.2-123.4-202.2-241.6-187.2
			c-51.7,6.6-99.3,31.6-134,70.5l-1.7,1.9l-68.2-60.9l1.7-1.9c54.7-61.3,130-97.6,212-102.3c82-4.7,160.9,22.9,222.2,77.6
			c61.3,54.7,97.6,130,102.3,212c4.7,82-22.9,160.9-77.6,222.2c-54.7,61.3-130,97.6-212,102.3
			C1531.2,1054.8,1525.3,1054.9,1519.3,1054.9z M1220,788c9.7,71.4,44.5,137.1,98.4,185.1c124.5,111.1,316.1,100.2,427.1-24.3
			c111.1-124.5,100.2-316.1-24.3-427.1c-60.3-53.8-137.9-80.9-218.6-76.3c-79.8,4.5-153.2,39.6-206.9,98.7l60.8,54.3
			c35.4-38.7,83.4-63.7,135.5-70.3c58.6-7.4,116.6,8.4,163.2,44.6c46.7,36.2,76.5,88.4,83.9,146.9c7.4,58.6-8.4,116.6-44.6,163.2
			s-88.4,76.5-146.9,83.9c-58.6,7.4-116.6-8.4-163.2-44.6c-46-35.7-75.6-86.9-83.6-144.5L1220,788z"/>
	</g>
</g>
<g>
	<path d="M1300.4,420.9h1.7v22h-2v-19.5h-0.2l-4.9,3.5l-1-1.4L1300.4,420.9z"/>
</g>
<g>
	<path d="M847,642.2c0-1.7-0.3-3-0.8-3.7c-0.5-0.8-1.5-1.2-2.8-1.2c-0.4,0-0.8,0.1-1.2,0.2l-0.9-1.2l4.8-7.5h-7.6v-1.9h10v1.7
		l-4.9,7.2l0.1,0.1c0.3-0.1,0.7-0.2,1-0.2c0.7,0,1.3,0.1,1.8,0.4c0.5,0.3,0.9,0.6,1.2,1c0.3,0.4,0.6,0.9,0.8,1.5
		c0.2,0.6,0.3,1.2,0.4,1.7c0.1,0.6,0.1,1.2,0.1,1.9c0,2.4-0.5,4.1-1.4,5.2c-1,1.1-2.4,1.7-4.3,1.7c-1.3,0-2.9-0.2-4.8-0.5v-1.9
		c1.8,0.3,3.4,0.5,4.8,0.5c0.6,0,1.1-0.1,1.6-0.3c0.5-0.2,0.8-0.4,1.1-0.7c0.3-0.3,0.5-0.7,0.6-1.1c0.2-0.5,0.3-0.9,0.3-1.4
		C847,643.4,847,642.8,847,642.2z"/>
</g>
<g>
	<path d="M1356.6,652.4h-2v-6h-9v-1.6l7.6-14.9l1.7,0.9l-6.9,13.5v0.2h6.6v-4.1h2v4.1h2v1.9h-2V652.4z"/>
</g>
<g>
	<path d="M767.9,855.5c1.8,0.3,3.4,0.5,4.8,0.5c0.6,0,1.1-0.1,1.6-0.3s0.8-0.4,1.1-0.8c0.3-0.3,0.5-0.7,0.6-1.2
		c0.2-0.5,0.3-1,0.3-1.5c0.1-0.5,0.1-1.1,0.1-1.7c0-0.8,0-1.4-0.1-2s-0.3-1.1-0.5-1.7c-0.2-0.5-0.6-0.9-1-1.2
		c-0.4-0.3-1-0.4-1.6-0.4c-1.4,0-2.5,0.6-3.3,1.7l-2-0.5v-10.8h10v1.9h-8v7.4h0.2c0.5-0.5,1-0.9,1.6-1.1c0.5-0.3,1.1-0.4,1.8-0.4
		c3.3,0,4.9,2.4,4.9,7.3c0,2.5-0.5,4.3-1.4,5.5s-2.4,1.8-4.3,1.8c-1.3,0-2.9-0.2-4.8-0.5V855.5z"/>
</g>
<g>
	<path d="M1258.2,723.5c-1.8,3-3.1,5.7-3.9,8l0.1,0.1c0.7-0.5,1.5-0.8,2.5-0.8c1.1,0,2.1,0.3,2.8,0.8s1.3,1.3,1.7,2.3
		c0.1,0.4,0.2,0.8,0.3,1.3c0.1,0.5,0.1,0.9,0.1,1.3c0,0.4,0,0.9,0,1.6c0,1.8-0.2,3.2-0.5,4.1c-0.3,0.9-0.9,1.7-1.7,2.3
		s-1.8,0.9-2.9,0.9c-1.3,0-2.3-0.3-3.1-0.8c-0.8-0.6-1.4-1.3-1.8-2.3c-0.2-0.6-0.3-1.1-0.4-1.7s-0.1-1.4-0.1-2.4
		c0-2.9,0.4-5.5,1.3-7.8c0.9-2.3,2.1-4.8,3.7-7.6L1258.2,723.5z M1253.5,736.2c0,0.5-0.1,1-0.1,1.7s0,1.2,0.1,1.7
		c0,0.5,0.1,0.9,0.2,1.4c0.1,0.5,0.3,0.9,0.5,1.2c0.2,0.3,0.5,0.5,1,0.7s0.9,0.3,1.5,0.3s1-0.1,1.5-0.3s0.7-0.4,1-0.7
		c0.2-0.3,0.4-0.7,0.5-1.2c0.1-0.5,0.2-1,0.2-1.4c0-0.5,0.1-1,0.1-1.7s0-1.2-0.1-1.7c0-0.5-0.1-0.9-0.2-1.4
		c-0.1-0.5-0.3-0.9-0.5-1.2c-0.2-0.3-0.5-0.5-1-0.7s-0.9-0.3-1.5-0.3s-1,0.1-1.5,0.3s-0.7,0.4-1,0.7c-0.2,0.3-0.4,0.7-0.5,1.2
		C1253.6,735.3,1253.5,735.8,1253.5,736.2z"/>
</g>
</svg>
