<svg id="Слой_1" data-name="Слой 1" xmlns="http://www.w3.org/2000/svg" xmlns:xlink="http://www.w3.org/1999/xlink" viewBox="0 0 1440 1352.79"><defs><style>.cls-1{fill:#fff;}.cls-2{mask:url(#mask);}.cls-3{fill:none;stroke:#000;stroke-width:10px;}.cls-4{mask:url(#mask-2);}.cls-5{mask:url(#mask-3);}.cls-6{fill-rule:evenodd;}</style><mask id="mask" x="-142.59" y="791.33" width="435.09" height="435.09" maskUnits="userSpaceOnUse"><g id="path-31-inside-3_73:3" data-name="path-31-inside-3 73:3"><path class="cls-1" d="M-124,934.2c-41.24,109.87,14.39,232.37,124.25,273.61s232.37-14.39,273.61-124.25S259.49,851.19,149.63,810-82.74,824.34-124,934.2Zm327.27,122.86a137.09,137.09,0,1,1-80.16-176.52A137.08,137.08,0,0,1,203.29,1057.06Z"/></g></mask><mask id="mask-2" x="1092.34" y="28.26" width="683" height="683" maskUnits="userSpaceOnUse"><g id="path-177-inside-15_73:3" data-name="path-177-inside-15 73:3"><path class="cls-1" d="M1141.32,536.1a336.5,336.5,0,1,0-43.56-149.56l68.4-3.42a268,268,0,1,1,34.7,119.12Z"/></g></mask><mask id="mask-3" x="1327.97" y="245.03" width="249.64" height="249.64" maskUnits="userSpaceOnUse"><g id="path-178-inside-16_73:3" data-name="path-178-inside-16 73:3"><path class="cls-1" d="M1564.93,412a119.79,119.79,0,1,1-70-154.25A119.79,119.79,0,0,1,1564.93,412ZM1398.2,349.37a58.3,58.3,0,1,0,75.08-34.1A58.3,58.3,0,0,0,1398.2,349.37Z"/></g></mask></defs><g class="cls-2"><path class="cls-3" d="M-124,934.2c-41.24,109.87,14.39,232.37,124.25,273.61s232.37-14.39,273.61-124.25S259.49,851.19,149.63,810-82.74,824.34-124,934.2Zm327.27,122.86a137.09,137.09,0,1,1-80.16-176.52A137.08,137.08,0,0,1,203.29,1057.06Z"/></g><g class="cls-4"><path class="cls-3" d="M1141.32,536.1a336.5,336.5,0,1,0-43.56-149.56l68.4-3.42a268,268,0,1,1,34.7,119.12Z"/></g><g class="cls-5"><path class="cls-3" d="M1564.93,412a119.79,119.79,0,1,1-70-154.25A119.79,119.79,0,0,1,1564.93,412ZM1398.2,349.37a58.3,58.3,0,1,0,75.08-34.1A58.3,58.3,0,0,0,1398.2,349.37Z"/></g><path d="M562.34,522.27h-4v-44h4l9.85,19.62h.34l9.81-19.62h4v44h-4V486.33H582l-8,15.94h-3.44l-8-15.94h-.31ZM620.27,484a9.39,9.39,0,0,0-12.63,0,12.56,12.56,0,0,0-3.4,6.25,65.26,65.26,0,0,0,0,20.12,12.56,12.56,0,0,0,3.4,6.25,9.39,9.39,0,0,0,12.63,0,12.57,12.57,0,0,0,3.41-6.25,65.26,65.26,0,0,0,0-20.12A12.57,12.57,0,0,0,620.27,484Zm-15.19-2.91a13.65,13.65,0,0,1,17.75,0,15.82,15.82,0,0,1,4.75,8.31,68.07,68.07,0,0,1,0,21.82,16,16,0,0,1-4.75,8.34,13.74,13.74,0,0,1-17.75,0,16.05,16.05,0,0,1-4.75-8.34,68.84,68.84,0,0,1,0-21.82A15.89,15.89,0,0,1,605.08,481.05Zm36.49-2.78h4v20.12h20V478.27h4v44h-4V502.14h-20v20.13h-4ZM703.5,484a9.38,9.38,0,0,0-12.62,0,12.49,12.49,0,0,0-3.41,6.25,65.26,65.26,0,0,0,0,20.12,12.49,12.49,0,0,0,3.41,6.25,9.38,9.38,0,0,0,12.62,0,12.57,12.57,0,0,0,3.41-6.25,65.26,65.26,0,0,0,0-20.12A12.57,12.57,0,0,0,703.5,484Zm-15.19-2.91a13.65,13.65,0,0,1,17.75,0,15.82,15.82,0,0,1,4.75,8.31,68.07,68.07,0,0,1,0,21.82,16,16,0,0,1-4.75,8.34,13.74,13.74,0,0,1-17.75,0,16.12,16.12,0,0,1-4.75-8.34,68.84,68.84,0,0,1,0-21.82A16,16,0,0,1,688.31,481.05Zm36.49,41.22v-44h4v40.25h8V478.27h4v40.25h8V478.27h4v44Zm65.62,0V486.08h-.31l-19.69,36.19h-4v-44h4v36.19h.31l19.72-36.19h4v44Zm30.27-44c1,0,1.86,0,2.5.06a25.87,25.87,0,0,1,2.66.35,10.41,10.41,0,0,1,3.19,1,12.13,12.13,0,0,1,2.84,1.87,14.37,14.37,0,0,1,0,21.19,13,13,0,0,1-2.84,1.91,12,12,0,0,1-3.19,1c-1.11.17-2,.28-2.66.32s-1.48.06-2.5.06H816v16.25h-4v-44Zm10.94,18.37a11.1,11.1,0,0,0,.91-4.5,10.87,10.87,0,0,0-.91-4.46,9.38,9.38,0,0,0-2.44-3.38,8.28,8.28,0,0,0-2-1.31,8.61,8.61,0,0,0-2.31-.69c-.84-.12-1.51-.2-2-.22s-1.23-.06-2.13-.06H816v20.25h4.65q1.35,0,2.13,0c.52,0,1.19-.13,2-.25a8.61,8.61,0,0,0,2.31-.69,8.28,8.28,0,0,0,2-1.31A9.43,9.43,0,0,0,831.63,496.64Zm42,25.63V486.08h-.31l-19.69,36.19h-4v-44h4v36.19H854l19.72-36.19h4v44Zm17.62-44h4v20.12h20V478.27h4v44h-4V502.14h-20v20.13h-4Zm41.61,0h4v20.12h20V478.27h4v44h-4V502.14h-20v20.13h-4ZM978.5,502v16.5h1.59a27.83,27.83,0,0,0,5.66-.37,6.5,6.5,0,0,0,3.78-2.76,9.67,9.67,0,0,0,0-10.25,6.53,6.53,0,0,0-3.78-2.75,27.83,27.83,0,0,0-5.66-.37Zm0-3.75h1.59a31.08,31.08,0,0,1,6.66.5,10.22,10.22,0,0,1,5.94,4,12.12,12.12,0,0,1,2.31,7.47,12.25,12.25,0,0,1-2.31,7.5,10.26,10.26,0,0,1-5.94,4,31.08,31.08,0,0,1-6.66.5H974.5v-44h4Zm24-20v44h-4v-44Zm34.24-12h4a7.42,7.42,0,0,1-3.07,6.19,12.11,12.11,0,0,1-7.56,2.31,12.24,12.24,0,0,1-7.59-2.31,7.46,7.46,0,0,1-3-6.19h4a4.16,4.16,0,0,0,1.68,3.44,8.07,8.07,0,0,0,4.94,1.31,7.91,7.91,0,0,0,4.91-1.31A4.15,4.15,0,0,0,1036.74,466.27Zm3.37,56V486.08h-.31l-19.69,36.19h-4v-44h4v36.19h.31l19.72-36.19h4v44Z"/><path d="M649.34,405.47a78.88,78.88,0,0,0,10.66.84,8.31,8.31,0,0,0,6.28-2.37,12.25,12.25,0,0,0,3-6.63,57.19,57.19,0,0,0,.56-8h-16.5v-3.75h16.5a54.44,54.44,0,0,0-.56-7.75,12.5,12.5,0,0,0-2.94-6.62,7.81,7.81,0,0,0-6-2.38,94.38,94.38,0,0,0-10,.6v-3.75a91.31,91.31,0,0,1,10-.6,11.87,11.87,0,0,1,8.66,3.22,15.37,15.37,0,0,1,4.22,8.66,87.16,87.16,0,0,1,0,21.25,15.1,15.1,0,0,1-4.35,8.66,12.3,12.3,0,0,1-8.84,3.21,76.41,76.41,0,0,1-10.66-.84ZM719,365.56v3.75H707v40.25h-4V369.31H691v-3.75Zm33.93,5.69a9.39,9.39,0,0,0-12.63,0,12.61,12.61,0,0,0-3.41,6.25,65.33,65.33,0,0,0,0,20.13,12.61,12.61,0,0,0,3.41,6.25,9.42,9.42,0,0,0,12.63,0,12.6,12.6,0,0,0,3.4-6.25,65.33,65.33,0,0,0,0-20.13A12.6,12.6,0,0,0,752.89,371.25Zm-15.19-2.9a13.62,13.62,0,0,1,17.75,0,15.81,15.81,0,0,1,4.75,8.31,68.78,68.78,0,0,1,0,21.81,16,16,0,0,1-4.75,8.34,13.74,13.74,0,0,1-17.75,0,15.91,15.91,0,0,1-4.75-8.34,68,68,0,0,1,0-21.81A15.74,15.74,0,0,1,737.7,368.35Z"/><path d="M650.34,646.56v-44h4v40.25h8V602.56h4v40.25h8V602.56h4v44Zm54.27-44c1,0,1.86,0,2.5.07a25.05,25.05,0,0,1,2.66.34,10.69,10.69,0,0,1,3.19,1,12,12,0,0,1,2.84,1.88,14.36,14.36,0,0,1,0,21.18,12.74,12.74,0,0,1-2.84,1.91,12,12,0,0,1-3.19,1c-1.1.17-2,.27-2.66.31s-1.48.06-2.5.06H700v16.25h-4v-44Zm10.94,18.38a11,11,0,0,0,.91-4.5,10.76,10.76,0,0,0-.91-4.47,9.22,9.22,0,0,0-2.44-3.37,8.35,8.35,0,0,0-4.34-2,18.06,18.06,0,0,0-2-.22c-.52,0-1.23-.07-2.13-.07H700v20.25h4.65q1.35,0,2.13,0c.52,0,1.2-.12,2-.25a8.35,8.35,0,0,0,4.34-2A9.28,9.28,0,0,0,715.55,620.94Zm42,25.62V610.38h-.31l-19.69,36.18h-4v-44h4v36.19h.32l19.71-36.19h4v44Zm33.62-7.4a8.86,8.86,0,0,0,7.62-6.75,35.41,35.41,0,0,0,0-15.69,8.86,8.86,0,0,0-7.62-6.75Zm-11.63-22.44a35.81,35.81,0,0,0,0,15.69,8.89,8.89,0,0,0,7.63,6.75V610A8.89,8.89,0,0,0,779.56,616.72Zm-3.84,16.72a38.75,38.75,0,0,1,0-17.75,13.93,13.93,0,0,1,4.16-6.53,13,13,0,0,1,7.31-3v-3.6h4v3.6a12.82,12.82,0,0,1,7.28,3,13.9,13.9,0,0,1,4.19,6.53,38.75,38.75,0,0,1,0,17.75,13.9,13.9,0,0,1-4.19,6.53,12.82,12.82,0,0,1-7.28,3v3.59h-4V643a13,13,0,0,1-7.31-3A13.93,13.93,0,0,1,775.72,633.44Zm69.08-30.88v3.75h-12v40.25h-4V606.31h-12v-3.75Z"/><path d="M666.87,730.56a194,194,0,0,0-4.37-21.21h-.31a197.42,197.42,0,0,0-4.38,21.21Zm-10.72-28h12.38q5.37,16.82,8.53,44H669c-.25-2.87-.6-5.7-1-8.5H656.75q-.66,4.2-1,8.5h-8.1Q650.79,719.38,656.15,702.56Zm33,12h8v12h4v-12h8v32h-8v-12.5h-4v12.5h-8Zm43.25,24.5H738v-17h-4A79.08,79.08,0,0,1,732.41,739.06Zm-8.09,0a73.39,73.39,0,0,0,1.12-8.12q.4-4.41.47-7.53c0-2.11.06-5,.06-8.85h20v24.5h4v15.5h-8v-8H728v8h-8v-15.5Zm51.94,8.5A5.68,5.68,0,0,1,771,745h-.25v14h-8v-44h8v2H771a5.69,5.69,0,0,1,5.22-2.54,5.53,5.53,0,0,1,4.18,2,11.74,11.74,0,0,1,2.69,5.44,63,63,0,0,1,0,18.19,12,12,0,0,1-2.69,5.47A5.56,5.56,0,0,1,776.26,747.56Zm-4.35-8.43a1.63,1.63,0,0,0,1.38.93,1.6,1.6,0,0,0,1.37-.93,7.26,7.26,0,0,0,.82-2.41,51.73,51.73,0,0,0,0-11.31,6.92,6.92,0,0,0-.82-2.38,1.62,1.62,0,0,0-1.37-1,1.64,1.64,0,0,0-1.38,1,7.14,7.14,0,0,0-.81,2.38,51.73,51.73,0,0,0,0,11.31A7.49,7.49,0,0,0,771.91,739.13Zm37.69-25.07a10.56,10.56,0,0,1,6.19,1.79,9.65,9.65,0,0,1,3.66,4.5,13.94,13.94,0,0,1,.78,3.15,24.26,24.26,0,0,1,.31,3.22q.06,1.38.06,3.84v3.75h-14a9.73,9.73,0,0,0,.46,3.6,3.16,3.16,0,0,0,3.13,1.65c2.27,0,5.39-.2,9.37-.62v7.47a83.84,83.84,0,0,1-9.37.65,11.3,11.3,0,0,1-6.53-1.81,10.42,10.42,0,0,1-3.85-4.72,14.91,14.91,0,0,1-1-4.22c-.14-1.5-.22-3.41-.22-5.75s.07-4.36.19-5.9a16.48,16.48,0,0,1,1-4.31,9.38,9.38,0,0,1,3.59-4.54A11,11,0,0,1,809.6,714.06Zm0,7.5a3.59,3.59,0,0,0-1,.13,1.39,1.39,0,0,0-.75.41,6,6,0,0,0-.5.53,1.65,1.65,0,0,0-.38.78c-.08.35-.16.63-.22.84s-.08.56-.12,1.06,0,.83,0,1,0,.55,0,1.09h6a13.44,13.44,0,0,0-.5-4.25A2.43,2.43,0,0,0,809.6,721.56Zm38.82,11.85h-2.13a2.59,2.59,0,0,0-2.21.9,4.7,4.7,0,0,0-.66,2.79,3.08,3.08,0,0,0,.5,1.78,1.65,1.65,0,0,0,1.44.68,2.54,2.54,0,0,0,2.65-2,9.36,9.36,0,0,0,.35-1.68c0-.46.06-1,.06-1.72Zm-1-19.35a12.31,12.31,0,0,1,4.72.85,6.76,6.76,0,0,1,3.34,3.12,10.75,10.75,0,0,1,.94,5.13v23.4h-8v-1.65h-.31a5.47,5.47,0,0,1-4.44,2.15,7.42,7.42,0,0,1-5.78-2.84,10.36,10.36,0,0,1-2.47-7.06,10.71,10.71,0,0,1,2.75-7.56,9.32,9.32,0,0,1,2.12-1.72,7.87,7.87,0,0,1,2.35-.94,16.58,16.58,0,0,1,1.94-.31c.5,0,1.09-.07,1.78-.07h2.06v-3.25a1.62,1.62,0,0,0-.53-1.15,1.79,1.79,0,0,0-1.38-.56,75.4,75.4,0,0,0-8.09.59v-7.53A79.24,79.24,0,0,1,847.42,714.06Zm25,22.25c-.14-1.5-.21-3.41-.21-5.75s.07-4.25.21-5.75a14.31,14.31,0,0,1,1.13-4.21c1.89-4.36,5.43-6.54,10.59-6.54a82.91,82.91,0,0,1,8.75.57v7.5a84.22,84.22,0,0,0-8.75-.57,3,3,0,0,0-2.12.72,5.18,5.18,0,0,0-1.28,2.19,35.31,35.31,0,0,0,0,12.19,5.18,5.18,0,0,0,1.28,2.19,3,3,0,0,0,2.12.71,63.17,63.17,0,0,0,9.07-.81v7.5a62.69,62.69,0,0,1-9.07.81c-5.16,0-8.7-2.17-10.59-6.53A14.37,14.37,0,0,1,872.45,736.31Zm42.38-20.9a10.15,10.15,0,0,1,5.22-1.35,10,10,0,0,1,5.19,1.35,10.56,10.56,0,0,1,3.78,3.65,12.65,12.65,0,0,1,1.62,4.75,45.63,45.63,0,0,1,.41,6.75,46.31,46.31,0,0,1-.41,6.79,12.51,12.51,0,0,1-1.62,4.71,10.76,10.76,0,0,1-3.78,3.69,10.16,10.16,0,0,1-5.19,1.31,10.33,10.33,0,0,1-5.22-1.31,10.85,10.85,0,0,1-3.75-3.69,12.51,12.51,0,0,1-1.62-4.71,47.75,47.75,0,0,1-.41-6.79,47,47,0,0,1,.41-6.75,12.65,12.65,0,0,1,1.62-4.75A10.64,10.64,0,0,1,914.83,715.41Zm7.6,8.31c-.52-1.44-1.32-2.16-2.38-2.16s-1.85.72-2.37,2.16a37.5,37.5,0,0,0,0,13.69c.52,1.44,1.31,2.15,2.37,2.15s1.86-.71,2.38-2.15a38.1,38.1,0,0,0,0-13.69Zm28.44,22.84h-8v-32h8l5.84,13.69h.34l5.82-13.69h8v32h-8v-16h-.32l-4,8h-3.44l-4-8.12h-.31Z"/><path d="M659.34,781.75q0,9.66-.22,15.78a62.35,62.35,0,0,1-.81,8.88,17.86,17.86,0,0,1-2.5,6.4q-3.78,6.26-12.47,6.25v-7.5a8.85,8.85,0,0,0,3.5-.5,5.2,5.2,0,0,0,2-2,10.07,10.07,0,0,0,1.38-3.4,24.81,24.81,0,0,0,.62-3.85c.11-1.16.19-2.67.25-4.53q.23-5.92.22-15.28v-7.44h20v44h-8V781.75Zm36.82,23.66H694a2.62,2.62,0,0,0-2.22.9,4.78,4.78,0,0,0-.65,2.79,3,3,0,0,0,.5,1.78,1.65,1.65,0,0,0,1.43.68,2.6,2.6,0,0,0,1.72-.53,2.65,2.65,0,0,0,.94-1.5,9.22,9.22,0,0,0,.34-1.68,16.63,16.63,0,0,0,.07-1.72Zm-1-19.35a12.31,12.31,0,0,1,4.72.85,6.8,6.8,0,0,1,3.34,3.12,10.88,10.88,0,0,1,.94,5.13v23.4h-8v-1.65h-.32a5.44,5.44,0,0,1-4.43,2.15,7.42,7.42,0,0,1-5.78-2.84,10.36,10.36,0,0,1-2.47-7.06,10.66,10.66,0,0,1,2.75-7.56,9.11,9.11,0,0,1,2.12-1.72,7.66,7.66,0,0,1,2.35-.94,16.47,16.47,0,0,1,1.93-.31c.5,0,1.1-.07,1.78-.07h2.07v-3.25a1.62,1.62,0,0,0-.53-1.15,1.81,1.81,0,0,0-1.38-.56,75.23,75.23,0,0,0-8.09.59v-7.53A79,79,0,0,1,695.16,786.06Zm39.28,33.5a5.69,5.69,0,0,1-5.22-2.53H729v14h-8v-44h8v2h.25a5.7,5.7,0,0,1,5.22-2.54,5.57,5.57,0,0,1,4.19,2,11.84,11.84,0,0,1,2.69,5.44,64,64,0,0,1,0,18.19,12.06,12.06,0,0,1-2.69,5.47A5.59,5.59,0,0,1,734.44,819.56Zm-4.34-8.43a1.6,1.6,0,0,0,1.37.93,1.63,1.63,0,0,0,1.38-.93,7.49,7.49,0,0,0,.81-2.41,51.73,51.73,0,0,0,0-11.31,7.14,7.14,0,0,0-.81-2.38,1.64,1.64,0,0,0-1.38-1,1.62,1.62,0,0,0-1.37,1,6.72,6.72,0,0,0-.81,2.38,50.13,50.13,0,0,0,0,11.31A7,7,0,0,0,730.1,811.13ZM757,808.31c-.15-1.5-.22-3.41-.22-5.75s.07-4.25.22-5.75a14,14,0,0,1,1.12-4.21q2.85-6.54,10.6-6.54a83.07,83.07,0,0,1,8.75.57v7.5a84.39,84.39,0,0,0-8.75-.57,3,3,0,0,0-2.13.72,5.18,5.18,0,0,0-1.28,2.19,35.31,35.31,0,0,0,0,12.19,5.18,5.18,0,0,0,1.28,2.19,3,3,0,0,0,2.13.71,63.16,63.16,0,0,0,9.06-.81v7.5a62.57,62.57,0,0,1-9.06.81q-7.76,0-10.6-6.53A14.06,14.06,0,0,1,757,808.31Zm47.59-22.25a10.56,10.56,0,0,1,6.19,1.79,9.65,9.65,0,0,1,3.66,4.5,13.94,13.94,0,0,1,.78,3.15,24.26,24.26,0,0,1,.31,3.22q.06,1.38.06,3.84v3.75h-14a9.73,9.73,0,0,0,.46,3.6,3.16,3.16,0,0,0,3.13,1.65c2.27,0,5.39-.2,9.37-.62v7.47a83.84,83.84,0,0,1-9.37.65,11.3,11.3,0,0,1-6.53-1.81,10.42,10.42,0,0,1-3.85-4.72,14.91,14.91,0,0,1-1-4.22c-.14-1.5-.22-3.41-.22-5.75s.07-4.36.19-5.9a16.48,16.48,0,0,1,1-4.31,9.38,9.38,0,0,1,3.59-4.54A11,11,0,0,1,804.6,786.06Zm0,7.5a3.59,3.59,0,0,0-1,.13,1.39,1.39,0,0,0-.75.41,6,6,0,0,0-.5.53,1.65,1.65,0,0,0-.38.78c-.08.35-.16.63-.22.84s-.08.56-.12,1.06,0,.83,0,1,0,.55,0,1.09h6a13.44,13.44,0,0,0-.5-4.25A2.43,2.43,0,0,0,804.6,793.56Zm26.82-7h8v12h4v-12h8v32h-8v-12.5h-4v12.5h-8Zm41.6.85a10.15,10.15,0,0,1,5.22-1.35,10,10,0,0,1,5.18,1.35,10.56,10.56,0,0,1,3.78,3.65,12.48,12.48,0,0,1,1.63,4.75,47,47,0,0,1,.41,6.75,47.75,47.75,0,0,1-.41,6.79,12.34,12.34,0,0,1-1.63,4.71,10.76,10.76,0,0,1-3.78,3.69,10.15,10.15,0,0,1-5.18,1.31,10.33,10.33,0,0,1-5.22-1.31,10.85,10.85,0,0,1-3.75-3.69,12.34,12.34,0,0,1-1.63-4.71,47.92,47.92,0,0,1-.4-6.79,47.21,47.21,0,0,1,.4-6.75,12.48,12.48,0,0,1,1.63-4.75A10.64,10.64,0,0,1,873,787.41Zm7.59,8.31q-.78-2.16-2.37-2.16c-1.07,0-1.86.72-2.38,2.16-.42,1.15-.62,3.43-.62,6.84s.2,5.7.62,6.85c.52,1.44,1.31,2.15,2.38,2.15s1.85-.71,2.37-2.15a37.5,37.5,0,0,0,0-13.69Zm28.44,22.84h-8v-32h8l5.84,13.69h.35l5.81-13.69h8v32h-8v-16h-.31l-4,8h-3.44l-4-8.12h-.31Z"/><path d="M1204.67,426.27c.51,0,.93,0,1.25,0s.77.08,1.33.17a5.46,5.46,0,0,1,1.59.5,6.25,6.25,0,0,1,1.42.94,7.18,7.18,0,0,1,0,10.59,6.34,6.34,0,0,1-1.42,1,6.14,6.14,0,0,1-1.59.5c-.56.08-1,.13-1.33.15s-.74,0-1.25,0h-2.33v8.12h-2v-22Zm5.47,9.19a5.58,5.58,0,0,0,.45-2.25,5.5,5.5,0,0,0-.45-2.24,4.71,4.71,0,0,0-1.22-1.68,4.22,4.22,0,0,0-2.17-1,8.14,8.14,0,0,0-1-.11c-.26,0-.61,0-1.06,0h-2.33v10.12h2.33l1.06,0q.39,0,1-.12a4.22,4.22,0,0,0,2.17-1A4.85,4.85,0,0,0,1210.14,435.46Z"/><path d="M1224.35,448.27V436.18h-.16l-5.84,12.09h-2v-16h2v12.09h.15l5.86-12.09h2v16Z"/><path d="M1232,443.15c-.07-.76-.1-1.71-.1-2.88s0-2.12.1-2.88a7.33,7.33,0,0,1,.57-2.1,5.26,5.26,0,0,1,5.29-3.27c1,0,2.45.09,4.22.27v1.87c-1.79-.18-3.19-.27-4.22-.27a4,4,0,0,0-2.14.52,3.65,3.65,0,0,0-1.28,1.53,6.06,6.06,0,0,0-.39,1.33,11.49,11.49,0,0,0-.14,1.38c0,.37,0,.91,0,1.62s0,1.26,0,1.64a11.41,11.41,0,0,0,.14,1.36,6.06,6.06,0,0,0,.39,1.33,3.85,3.85,0,0,0,1.28,1.55,4.06,4.06,0,0,0,2.14.5,31.81,31.81,0,0,0,4.54-.41v1.87a31.57,31.57,0,0,1-4.54.41,5.26,5.26,0,0,1-5.29-3.27A7.33,7.33,0,0,1,1232,443.15Z"/><path d="M1250.36,444.52h4v3.75h-4Z"/><path d="M1288.88,441.57a6.67,6.67,0,0,0-.81-3.74,3.14,3.14,0,0,0-2.75-1.15,4.13,4.13,0,0,0-1.22.17l-.92-1.19,4.76-7.51h-7.56v-1.88h10V428l-4.88,7.19.11.11a3.38,3.38,0,0,1,1-.16,3.8,3.8,0,0,1,1.76.39,3.25,3.25,0,0,1,1.22,1,5.1,5.1,0,0,1,.77,1.49,7.87,7.87,0,0,1,.39,1.75,15.26,15.26,0,0,1,.11,1.86c0,2.35-.48,4.1-1.44,5.23a5.33,5.33,0,0,1-4.31,1.69,29.41,29.41,0,0,1-4.75-.48v-1.91a26.24,26.24,0,0,0,4.75.52,4.27,4.27,0,0,0,1.59-.27,2.94,2.94,0,0,0,1.1-.7,3.44,3.44,0,0,0,.64-1.13,7,7,0,0,0,.33-1.37A12.87,12.87,0,0,0,1288.88,441.57Z"/><path d="M939.67,375.56c.51,0,.93,0,1.25,0a11.47,11.47,0,0,1,1.33.17,5.17,5.17,0,0,1,1.59.5,5.74,5.74,0,0,1,1.42.94,7.18,7.18,0,0,1,0,10.59,6.41,6.41,0,0,1-1.42.95,5.78,5.78,0,0,1-1.59.5c-.55.09-1,.14-1.33.16s-.74,0-1.25,0h-2.33v8.12h-2v-22Zm5.47,9.19a5.58,5.58,0,0,0,.45-2.25,5.45,5.45,0,0,0-.45-2.23,4.63,4.63,0,0,0-1.22-1.69,4.22,4.22,0,0,0-2.17-1c-.42-.06-.76-.1-1-.11s-.61,0-1.06,0h-2.33v10.12h3.39c.26,0,.6-.06,1-.13a4.22,4.22,0,0,0,2.17-1A4.55,4.55,0,0,0,945.14,384.75Z"/><path d="M959.35,397.56V385.47h-.16l-5.84,12.09h-2v-16h2v12.1h.16l5.85-12.1h2v16Z"/><path d="M967,392.44a37.63,37.63,0,0,1,0-5.75,7.07,7.07,0,0,1,.56-2.11,5.26,5.26,0,0,1,5.3-3.27c1,0,2.44.09,4.21.27v1.88c-1.79-.18-3.19-.27-4.21-.27a3.83,3.83,0,0,0-2.14.52,3.6,3.6,0,0,0-1.29,1.53,5.8,5.8,0,0,0-.39,1.32,11.69,11.69,0,0,0-.14,1.38c0,.37,0,.92,0,1.62s0,1.26,0,1.65a11.47,11.47,0,0,0,.14,1.35,5.74,5.74,0,0,0,.39,1.33,3.72,3.72,0,0,0,1.29,1.55,4,4,0,0,0,2.14.5,31.68,31.68,0,0,0,4.53-.41v1.88a31.13,31.13,0,0,1-4.53.4,5.26,5.26,0,0,1-5.3-3.26A7.07,7.07,0,0,1,967,392.44Z"/><path d="M985.36,393.81h4v3.75h-4Z"/><path d="M1015.38,375.8a24.06,24.06,0,0,1,4.5-.49,7.23,7.23,0,0,1,2.62.44,4.36,4.36,0,0,1,1.79,1.19,5,5,0,0,1,1,1.64,5.67,5.67,0,0,1,.32,1.91,6.08,6.08,0,0,1-.3,2,10.28,10.28,0,0,1-.89,1.87l-6.47,11.3h8.31v1.87h-10.84v-1.39l7.22-12.65q.36-.63.51-1a4,4,0,0,0,.3-.89,4.54,4.54,0,0,0,.16-1.18,4.22,4.22,0,0,0-.16-1.16,3.16,3.16,0,0,0-.53-1,2.43,2.43,0,0,0-1.14-.81,5.11,5.11,0,0,0-1.86-.3,25.41,25.41,0,0,0-4.5.48Z"/><path class="cls-6" d="M200.34,487.56l-74,51-1.7-2.47,74-51Z"/><path class="cls-6" d="M1165.15,450.13l-90.21,42.51-1.28-2.71,90.21-42.51Z"/><path class="cls-6" d="M890.34,391.56h-74v-3h74Z"/><path class="cls-6" d="M336.34,694h-137v-3h137Z"/><path class="cls-6" d="M992.34,628.56h-116v-3h116Z"/><path class="cls-6" d="M1221.34,767.56h-186v-3h186Z"/><path d="M1047.67,612.56c.51,0,.93,0,1.25,0a11.74,11.74,0,0,1,1.33.17,5.17,5.17,0,0,1,1.59.5,5.93,5.93,0,0,1,1.42.94,7.18,7.18,0,0,1,0,10.59,6.65,6.65,0,0,1-1.42,1,5.78,5.78,0,0,1-1.59.5c-.56.09-1,.14-1.33.16s-.74,0-1.25,0h-2.33v8.12h-2v-22Zm5.47,9.19a5.58,5.58,0,0,0,.45-2.25,5.45,5.45,0,0,0-.45-2.23,4.75,4.75,0,0,0-1.22-1.69,4.22,4.22,0,0,0-2.17-1c-.42-.06-.76-.1-1-.11s-.61,0-1.06,0h-2.33v10.12h3.39c.26,0,.6-.06,1-.13a4.22,4.22,0,0,0,2.17-1A4.67,4.67,0,0,0,1053.14,621.75Z"/><path d="M1067.35,634.56V622.47h-.16l-5.84,12.09h-2v-16h2v12.1h.15l5.86-12.1h2v16Z"/><path d="M1075,629.44c-.07-.75-.1-1.71-.1-2.88s0-2.12.1-2.87a7.39,7.39,0,0,1,.57-2.11,5.26,5.26,0,0,1,5.29-3.27c1,0,2.45.09,4.22.27v1.88c-1.79-.18-3.19-.27-4.22-.27a3.88,3.88,0,0,0-2.14.52,3.65,3.65,0,0,0-1.28,1.53,5.8,5.8,0,0,0-.39,1.32,11.69,11.69,0,0,0-.14,1.38c0,.37,0,.92,0,1.62s0,1.26,0,1.65a11.47,11.47,0,0,0,.14,1.35,5.74,5.74,0,0,0,.39,1.33,3.78,3.78,0,0,0,1.28,1.55,4.06,4.06,0,0,0,2.14.5,31.81,31.81,0,0,0,4.54-.41v1.88a31.37,31.37,0,0,1-4.54.4,5.25,5.25,0,0,1-5.29-3.26A7.39,7.39,0,0,1,1075,629.44Z"/><path d="M1093.36,630.81h4v3.75h-4Z"/><path d="M1133.38,634.56h-2v-6h-9V627l7.64-14.87,1.7.87-6.93,13.53v.16h6.59v-4.13h2v4.13h2v1.87h-2Z"/><path d="M1271.67,754.27c.51,0,.93,0,1.25,0s.77.08,1.33.17a5.46,5.46,0,0,1,1.59.5,6.25,6.25,0,0,1,1.42.94,7.18,7.18,0,0,1,0,10.59,6.34,6.34,0,0,1-1.42,1,6.14,6.14,0,0,1-1.59.5c-.56.08-1,.13-1.33.15s-.74,0-1.25,0h-2.33v8.12h-2v-22Zm5.47,9.19a5.58,5.58,0,0,0,.45-2.25,5.5,5.5,0,0,0-.45-2.24,4.71,4.71,0,0,0-1.22-1.68,4.22,4.22,0,0,0-2.17-1,8.14,8.14,0,0,0-1-.11c-.26,0-.61,0-1.06,0h-2.33v10.12h2.33l1.06,0q.39,0,1-.12a4.22,4.22,0,0,0,2.17-1A4.85,4.85,0,0,0,1277.14,763.46Z"/><path d="M1291.35,776.27V764.18h-.16l-5.84,12.09h-2v-16h2v12.09h.15l5.86-12.09h2v16Z"/><path d="M1299,771.15c-.07-.76-.1-1.71-.1-2.88s0-2.12.1-2.88a7.33,7.33,0,0,1,.57-2.1,5.26,5.26,0,0,1,5.29-3.27c1,0,2.45.09,4.22.27v1.87c-1.79-.18-3.19-.27-4.22-.27a4,4,0,0,0-2.14.52,3.65,3.65,0,0,0-1.28,1.53,6.06,6.06,0,0,0-.39,1.33,11.49,11.49,0,0,0-.14,1.38c0,.37,0,.91,0,1.62s0,1.26,0,1.64a11.41,11.41,0,0,0,.14,1.36,6.06,6.06,0,0,0,.39,1.33,3.85,3.85,0,0,0,1.28,1.55,4.06,4.06,0,0,0,2.14.5,31.81,31.81,0,0,0,4.54-.41v1.87a31.57,31.57,0,0,1-4.54.41,5.26,5.26,0,0,1-5.29-3.27A7.33,7.33,0,0,1,1299,771.15Z"/><path d="M1317.36,772.52h4v3.75h-4Z"/><path d="M1347.38,774.13a26.24,26.24,0,0,0,4.75.52,4.07,4.07,0,0,0,1.59-.29,2.9,2.9,0,0,0,1.1-.75,3.4,3.4,0,0,0,.64-1.18,7.77,7.77,0,0,0,.33-1.47,14.25,14.25,0,0,0,.09-1.71,13.25,13.25,0,0,0-.14-2,7.24,7.24,0,0,0-.49-1.68,2.57,2.57,0,0,0-1-1.24,2.86,2.86,0,0,0-1.62-.44,3.8,3.8,0,0,0-3.27,1.71l-2-.53v-10.8h10v1.88h-8v7.37h.16a6.27,6.27,0,0,1,1.56-1.11,4.06,4.06,0,0,1,1.84-.39q4.93,0,4.94,7.27c0,2.45-.48,4.28-1.44,5.46a5.19,5.19,0,0,1-4.31,1.77,29.41,29.41,0,0,1-4.75-.48Z"/><path d="M321.9,221.35l7.67-2.26L342,261.3l-7.67,2.26-9.47-11.48-.33.1L322.8,267l-7.67,2.25L302.71,227l7.68-2.25,7.9,26.86.3-.09,1.55-8.8,3.3-1,6.1,6.68.3-.09Z"/><path d="M301.31,262.81a10.75,10.75,0,0,1-9.1,5,10.66,10.66,0,0,1-5.08-1.37,12.58,12.58,0,0,1-3.72-3.37,56.35,56.35,0,0,1-6.56-11.84,12.4,12.4,0,0,1-.86-4.91,10.92,10.92,0,0,1,1.52-5.06,11,11,0,0,1,9.1-5,11,11,0,0,1,5.07,1.41,12.58,12.58,0,0,1,3.71,3.34,47.08,47.08,0,0,1,3.64,5.74,46.57,46.57,0,0,1,2.91,6.1,12.29,12.29,0,0,1,.88,4.94A10.68,10.68,0,0,1,301.31,262.81Zm-10.67-3.6c1.16,1,2.2,1.25,3.13.74s1.27-1.53,1-3a37.79,37.79,0,0,0-6.63-12c-1.15-1-2.19-1.25-3.12-.74s-1.28,1.53-1,3a24.23,24.23,0,0,0,2.77,6.29C288.44,256.52,289.72,258.41,290.64,259.21Z"/><path d="M270.61,286.55a6.17,6.17,0,0,1-6.26,1.09,9.71,9.71,0,0,1-2.75-1.41,13.28,13.28,0,0,1-2.13-1.74c-.5-.5-1.19-1.25-2.06-2.23L243.79,266.9l6-5.31L263.4,277a8.22,8.22,0,0,0,2.61,2.23,1.63,1.63,0,0,0,2.29-2,8.17,8.17,0,0,0-1.91-2.86l-13.62-15.36,6-5.31L280,277.58l-6,5.3-1.29-1.45-.16.15a6.35,6.35,0,0,1-.43,2.76A5.55,5.55,0,0,1,270.61,286.55Z"/><path d="M254.76,302.56a10.19,10.19,0,0,1-2,5,10,10,0,0,1-4.13,3.41,10.57,10.57,0,0,1-5.18.93,12.38,12.38,0,0,1-4.8-1.47,47,47,0,0,1-5.71-3.62,47.56,47.56,0,0,1-5.26-4.3,12.43,12.43,0,0,1-2.87-4.08,10.87,10.87,0,0,1-.78-5.23,10.16,10.16,0,0,1,2-5,10.39,10.39,0,0,1,4.12-3.46,10.92,10.92,0,0,1,5.18-.88,12.52,12.52,0,0,1,4.78,1.44,47.36,47.36,0,0,1,5.73,3.65,46.48,46.48,0,0,1,5.24,4.28,12.72,12.72,0,0,1,2.9,4.1A10.72,10.72,0,0,1,254.76,302.56Zm-11.18,1.29c1.47.42,2.51.2,3.14-.67s.5-1.92-.36-3.18a24,24,0,0,0-5.18-4.52q-4.16-3-5.91-3.5c-1.47-.42-2.52-.2-3.14.66s-.51,1.93.35,3.19a24.3,24.3,0,0,0,5.18,4.51A23.89,23.89,0,0,0,243.58,303.85Z"/><path d="M209.18,319.71l18.83,8.1,3-7.07,6.89,3-6.2,14.41L206,327.06Zm39.58,14.84a5.44,5.44,0,0,1-.15,4.29,5.34,5.34,0,0,1-7.26,2.9,5.31,5.31,0,0,1-2.9-7.27,5.64,5.64,0,0,1,10.31.08Z"/><path d="M230.54,360.31a5.7,5.7,0,0,1-3.46,4.66l-.05.24,13.79,2.6-1.48,7.87-43.24-8.16,1.48-7.86,2,.37,0-.24a6.12,6.12,0,0,1,1.16-9.38,12.08,12.08,0,0,1,5.87-1.6,44.44,44.44,0,0,1,9.06,1,44.58,44.58,0,0,1,8.81,2.33,11.77,11.77,0,0,1,4.85,3.62A5.66,5.66,0,0,1,230.54,360.31Zm-9.13,2.7a1.46,1.46,0,0,0,.51-2.71,7,7,0,0,0-2.19-1.23,34.1,34.1,0,0,0-5.5-1.36,34.8,34.8,0,0,0-5.61-.74,7.38,7.38,0,0,0-2.52.35,1.48,1.48,0,0,0-.51,2.7,7.3,7.3,0,0,0,2.22,1.25,35.51,35.51,0,0,0,5.5,1.35,36.37,36.37,0,0,0,5.61.75A7.08,7.08,0,0,0,221.41,363Z"/><path d="M200.07,426.59l-2-7.75,42.6-11,2,7.75-11.79,9.08.09.34,14.71,2.2,2,7.74-42.6,11-2-7.74,27.11-7-.08-.3-8.74-1.84-.86-3.33,6.87-5.88-.08-.3Z"/><path d="M240.82,448.54a10.16,10.16,0,0,1,3.57,4,10,10,0,0,1,1.17,5.24,10.59,10.59,0,0,1-1.54,5,12.51,12.51,0,0,1-3.49,3.61,56.32,56.32,0,0,1-12,6.15,12.37,12.37,0,0,1-4.94.7,10.9,10.9,0,0,1-5-1.68,10.23,10.23,0,0,1-3.53-4,10.46,10.46,0,0,1-1.21-5.24,11.11,11.11,0,0,1,1.58-5,12.48,12.48,0,0,1,3.46-3.59,56.79,56.79,0,0,1,12-6.16,12.76,12.76,0,0,1,5-.72A10.7,10.7,0,0,1,240.82,448.54Zm-3.94,10.54c1-1.11,1.32-2.15.84-3.09s-1.49-1.33-3-1.14a37.86,37.86,0,0,0-12.19,6.23c-1,1.12-1.32,2.15-.84,3.1s1.48,1.32,3,1.13a24,24,0,0,0,6.38-2.55C234.11,461.2,236.05,460,236.88,459.08Z"/><path d="M263.54,480a6.18,6.18,0,0,1,.87,6.3,9.78,9.78,0,0,1-1.49,2.7,13.42,13.42,0,0,1-1.81,2.07c-.52.49-1.29,1.15-2.3,2L243,506.17,237.9,500l15.81-13.1a8.38,8.38,0,0,0,2.32-2.54,1.64,1.64,0,0,0-2-2.36,8.42,8.42,0,0,0-2.92,1.82l-15.8,13.1-5.11-6.16,24.64-20.42,5.1,6.16-1.49,1.23.14.17a6.37,6.37,0,0,1,2.75.53A5.59,5.59,0,0,1,263.54,480Z"/><path d="M279,496.39a10.74,10.74,0,0,1,8.23,6.37A10.62,10.62,0,0,1,288,508a12.57,12.57,0,0,1-1.63,4.75,45.93,45.93,0,0,1-3.81,5.59,46.62,46.62,0,0,1-4.47,5.11,12.59,12.59,0,0,1-4.17,2.74,11,11,0,0,1-5.25.6,10.19,10.19,0,0,1-4.91-2.14,10.42,10.42,0,0,1-3.32-4.23,11,11,0,0,1-.71-5.21,12.55,12.55,0,0,1,1.61-4.73,56.8,56.8,0,0,1,8.28-10.7,12.71,12.71,0,0,1,4.2-2.76A10.59,10.59,0,0,1,279,496.39Zm.91,11.22c.47-1.46.29-2.51-.55-3.16s-1.91-.57-3.2.25a24.23,24.23,0,0,0-4.69,5,23.87,23.87,0,0,0-3.69,5.79c-.47,1.46-.29,2.51.55,3.16s1.91.57,3.2-.25a37.6,37.6,0,0,0,8.38-10.82Z"/><path d="M294.63,542.51,303.35,524l-7-3.27,3.19-6.79,14.19,6.67-11.9,25.34Zm16.15-39.06a5.43,5.43,0,0,1,4.29.29,5.36,5.36,0,0,1,2.65,7.36,5.31,5.31,0,0,1-7.36,2.65,5.25,5.25,0,0,1-2.65-7.36A5.36,5.36,0,0,1,310.78,503.45Z"/><path d="M335.92,522.52a5.7,5.7,0,0,1,4.54,3.61l.25,0,3.05-13.69,7.81,1.74L342,557.17l-7.8-1.74.44-2-.24-.06a6.12,6.12,0,0,1-9.34-1.47,12.18,12.18,0,0,1-1.41-5.92,44.71,44.71,0,0,1,1.35-9,43.83,43.83,0,0,1,2.62-8.73,11.81,11.81,0,0,1,3.77-4.73A5.65,5.65,0,0,1,335.92,522.52Zm2.4,9.21a1.47,1.47,0,0,0-2.69-.6,6.92,6.92,0,0,0-1.31,2.14,35.34,35.34,0,0,0-1.54,5.45,35.77,35.77,0,0,0-.92,5.59,7.33,7.33,0,0,0,.26,2.53,1.48,1.48,0,0,0,2.69.6,7.36,7.36,0,0,0,1.32-2.17,35.83,35.83,0,0,0,1.53-5.46,34.66,34.66,0,0,0,.93-5.58A7.05,7.05,0,0,0,338.32,531.73Z"/><path d="M401.15,555.17l-7.8,1.74L383.76,514l7.81-1.75,8.68,12.09.34-.08,2.69-14.62,7.81-1.75,9.58,42.95-7.81,1.74-6.1-27.33-.3.07L404.33,534l-3.36.75-5.64-7.06-.31.07Z"/><path d="M424.45,515.17a10.73,10.73,0,0,1,9.41-4.43,10.59,10.59,0,0,1,5,1.7,12.57,12.57,0,0,1,3.49,3.61,45.83,45.83,0,0,1,3.24,5.94,48.33,48.33,0,0,1,2.52,6.31,12.58,12.58,0,0,1,.53,5,10.83,10.83,0,0,1-1.85,4.94,11,11,0,0,1-9.42,4.43,10.84,10.84,0,0,1-5-1.74,12.68,12.68,0,0,1-3.48-3.58,47.76,47.76,0,0,1-3.25-6,46,46,0,0,1-2.5-6.28,12.43,12.43,0,0,1-.55-5A10.58,10.58,0,0,1,424.45,515.17Zm10.4,4.29c-1.08-1.08-2.1-1.39-3.06-.94s-1.38,1.44-1.24,3c.11,1.22.9,3.37,2.35,6.46s2.61,5.07,3.48,5.93c1.08,1.08,2.1,1.39,3.06.94s1.37-1.44,1.23-3a23.91,23.91,0,0,0-2.34-6.46Q436.16,520.75,434.85,519.46Z"/><path d="M456.66,493.51a6.18,6.18,0,0,1,6.32-.67,10,10,0,0,1,2.65,1.59,13,13,0,0,1,2,1.88c.47.53,1.1,1.32,1.9,2.36l12.58,16.23-6.33,4.9-12.57-16.23a8.06,8.06,0,0,0-2.46-2.41,1.64,1.64,0,0,0-2.42,1.88,8.21,8.21,0,0,0,1.72,3l12.57,16.23-6.33,4.9-19.59-25.3L453,497l1.19,1.53.17-.13a6.48,6.48,0,0,1,.62-2.73A5.62,5.62,0,0,1,456.66,493.51Z"/><path d="M473.53,478.59a10.19,10.19,0,0,1,2.3-4.87,10,10,0,0,1,4.35-3.14,10.57,10.57,0,0,1,5.22-.58,12.7,12.7,0,0,1,4.7,1.78,46.52,46.52,0,0,1,5.45,4,45.86,45.86,0,0,1,5,4.64,12.46,12.46,0,0,1,2.6,4.26,10.9,10.9,0,0,1,.43,5.27,10.29,10.29,0,0,1-2.3,4.83,10.44,10.44,0,0,1-4.35,3.18,11,11,0,0,1-5.23.53,12.45,12.45,0,0,1-4.67-1.76,48.3,48.3,0,0,1-5.48-4,46.3,46.3,0,0,1-4.93-4.63,12.3,12.3,0,0,1-2.62-4.28A10.73,10.73,0,0,1,473.53,478.59Zm11.25-.54q-2.16-.78-3.18.45c-.67.82-.63,1.89.15,3.21a24.12,24.12,0,0,0,4.87,4.85,23.83,23.83,0,0,0,5.67,3.88c1.44.52,2.49.37,3.17-.45s.63-1.89-.14-3.2a37.82,37.82,0,0,0-10.54-8.74Z"/><path d="M520.15,464.51l-18.25-9.33L498.4,462l-6.68-3.41,7.14-14,24.93,12.74Zm-38.5-17.44a5.42,5.42,0,0,1,.43-4.27,5.35,5.35,0,0,1,7.44-2.41,5.4,5.4,0,0,1,2.85,3.21,5.34,5.34,0,0,1-.44,4.23,5.24,5.24,0,0,1-7.44,2.41A5.34,5.34,0,0,1,481.65,447.07Z"/><path d="M501.54,422.58a5.71,5.71,0,0,1,3.76-4.42l.06-.24-13.58-3.51,2-7.75,42.6,11-2,7.75-2-.51-.06.24a6.13,6.13,0,0,1-1.79,9.29,12.12,12.12,0,0,1-6,1.2A63.36,63.36,0,0,1,507,431.09a11.92,11.92,0,0,1-4.6-3.93A5.68,5.68,0,0,1,501.54,422.58Zm9.29-2.09a1.47,1.47,0,0,0-.69,2.67,7,7,0,0,0,2.1,1.38,35,35,0,0,0,5.4,1.71,34.55,34.55,0,0,0,5.55,1.12,7.47,7.47,0,0,0,2.53-.19,1.59,1.59,0,0,0,1.25-1.09,1.61,1.61,0,0,0-.56-1.57,7.08,7.08,0,0,0-2.13-1.39,34.94,34.94,0,0,0-5.39-1.72,35.67,35.67,0,0,0-5.56-1.11A7,7,0,0,0,510.83,420.49Z"/><path d="M536.34,358.47l1.48,7.86-43.24,8.15-1.48-7.86,12.37-8.28-.07-.33-14.52-3.18L489.39,347l43.24-8.16,1.48,7.87-27.51,5.19.06.3,8.59,2.42.64,3.38-7.25,5.4.06.31Z"/><path d="M497.14,333.86a10.15,10.15,0,0,1-3.3-4.26,9.92,9.92,0,0,1-.81-5.3,10.54,10.54,0,0,1,1.86-4.92,12.73,12.73,0,0,1,3.72-3.37A56.14,56.14,0,0,1,511,310.67a12.49,12.49,0,0,1,5-.37,10.84,10.84,0,0,1,4.88,2,10.94,10.94,0,0,1,4.11,9.56,11.06,11.06,0,0,1-1.9,4.91,12.57,12.57,0,0,1-3.7,3.35,45.92,45.92,0,0,1-6.07,3.05,46.38,46.38,0,0,1-6.36,2.3,12.63,12.63,0,0,1-5,.38A10.6,10.6,0,0,1,497.14,333.86Zm4.63-10.26c-1.11,1-1.46,2.06-1,3s1.39,1.42,2.92,1.33a23.94,23.94,0,0,0,6.53-2.13,23.71,23.71,0,0,0,6-3.27c1.12-1.05,1.47-2.06,1-3s-1.4-1.42-2.92-1.33a24,24,0,0,0-6.54,2.13Q503.1,322.35,501.77,323.6Z"/><path d="M476.56,301a6.16,6.16,0,0,1-.45-6.34,9.54,9.54,0,0,1,1.67-2.6,13.68,13.68,0,0,1,1.94-1.95c.55-.44,1.36-1.05,2.42-1.82l16.65-12,4.68,6.49-16.64,12a8.17,8.17,0,0,0-2.49,2.38,1.64,1.64,0,0,0,1.8,2.48,8.3,8.3,0,0,0,3-1.62l16.64-12,4.69,6.48-25.94,18.75-4.68-6.49,1.57-1.13-.13-.18a6.32,6.32,0,0,1-2.71-.71A5.57,5.57,0,0,1,476.56,301Z"/><path d="M462.21,283.58a10.21,10.21,0,0,1-4.8-2.45,10.11,10.11,0,0,1-3-4.45,10.66,10.66,0,0,1-.4-5.24A12.52,12.52,0,0,1,456,266.8a47.55,47.55,0,0,1,4.17-5.32,46.88,46.88,0,0,1,4.8-4.8,12.41,12.41,0,0,1,4.35-2.45,10.77,10.77,0,0,1,5.28-.25,10.24,10.24,0,0,1,4.75,2.45,10.37,10.37,0,0,1,3,4.45,10.8,10.8,0,0,1,.36,5.25,12.48,12.48,0,0,1-1.91,4.61,48.8,48.8,0,0,1-4.2,5.34,47.5,47.5,0,0,1-4.78,4.78,12.58,12.58,0,0,1-4.37,2.48A10.58,10.58,0,0,1,462.21,283.58ZM462,272.33c-.56,1.42-.44,2.48.35,3.18s1.86.7,3.21,0a24,24,0,0,0,5-4.71,24.37,24.37,0,0,0,4.07-5.53c.56-1.43.45-2.49-.35-3.19s-1.86-.7-3.21,0a24.09,24.09,0,0,0-5,4.71C463.85,269.35,462.49,271.19,462,272.33Z"/><path d="M449.68,236.52l-9.93,17.94,6.73,3.72-3.64,6.56-13.72-7.6,13.56-24.49ZM431,274.42a5.4,5.4,0,0,1-4.26-.57,5.36,5.36,0,0,1-2.16-7.52,5.43,5.43,0,0,1,3.31-2.74,5.34,5.34,0,0,1,4.21.59,5.24,5.24,0,0,1,2.16,7.51A5.31,5.31,0,0,1,431,274.42Z"/><path d="M407.16,253.73a5.68,5.68,0,0,1-4.29-3.9l-.24-.07-4,13.46L391,261l12.42-42.21,7.68,2.26-.58,2,.24.07a6.12,6.12,0,0,1,9.22,2.09,12.1,12.1,0,0,1,1,6A44.79,44.79,0,0,1,419,240a45,45,0,0,1-3.19,8.53,11.89,11.89,0,0,1-4.09,4.47A5.63,5.63,0,0,1,407.16,253.73Zm-1.78-9.35a1.64,1.64,0,0,0,1.05,1.32,1.62,1.62,0,0,0,1.59-.54,7,7,0,0,0,1.45-2,50.52,50.52,0,0,0,3.19-10.86,7.16,7.16,0,0,0-.1-2.53,1.6,1.6,0,0,0-1.05-1.29,1.64,1.64,0,0,0-1.59.51,7.26,7.26,0,0,0-1.45,2.08,51.46,51.46,0,0,0-3.2,10.85A7,7,0,0,0,405.38,244.38Z"/><path d="M354.84,324.59l5.79-1.58,8.68,31.84-5.79,1.58-6.92-8.75-.25.07-1.51,11.05-5.79,1.58-8.68-31.84,5.79-1.58,5.53,20.26.22-.06,1.29-6.57,2.49-.68,4.48,5.09.22-.06Z"/><path d="M340.68,356.4a7.64,7.64,0,0,1-2.2,3.39,7.46,7.46,0,0,1-3.54,1.9,7.86,7.86,0,0,1-3.94-.09,9.38,9.38,0,0,1-3.31-1.79A33.54,33.54,0,0,1,324,356.3a35.89,35.89,0,0,1-3.23-3.95,9.4,9.4,0,0,1-1.5-3.42,8.14,8.14,0,0,1,.2-4,8.26,8.26,0,0,1,5.74-5.29,8.23,8.23,0,0,1,3.94.12,9.22,9.22,0,0,1,3.3,1.78,42.82,42.82,0,0,1,6.88,7.45,9.32,9.32,0,0,1,1.52,3.45A8,8,0,0,1,340.68,356.4Zm-8.42-.72a1.79,1.79,0,0,0,2.62-2.41,17.65,17.65,0,0,0-3.14-4.09,18,18,0,0,0-3.82-3.46,2,2,0,0,0-2.41,0q-.87.81-.21,2.4a18.09,18.09,0,0,0,3.14,4.09A17.91,17.91,0,0,0,332.26,355.68Z"/><path d="M326.22,379.71a4.64,4.64,0,0,1-3.74,3,7.37,7.37,0,0,1-2.31.06,9.56,9.56,0,0,1-2-.38c-.51-.15-1.23-.39-2.16-.73L301.5,376.4l2-5.65L318,376a6,6,0,0,0,2.52.53,1.29,1.29,0,0,0,1.14-.81,1.31,1.31,0,0,0-.36-1.35,6.13,6.13,0,0,0-2.28-1.19l-14.49-5.23,2-5.64,22.57,8.14-2,5.64-1.37-.49-.06.16a4.63,4.63,0,0,1,.71,2A4.3,4.3,0,0,1,326.22,379.71Z"/><path d="M323.45,395a8,8,0,0,1,1,7.73,8,8,0,0,1-2.34,3.18,9.69,9.69,0,0,1-3.37,1.68,35.77,35.77,0,0,1-5,1,35.05,35.05,0,0,1-5.08.37,9.41,9.41,0,0,1-3.67-.73,8.2,8.2,0,0,1-3.12-2.45,7.62,7.62,0,0,1-1.49-3.72,7.78,7.78,0,0,1,.46-4,8.24,8.24,0,0,1,2.36-3.16,9.5,9.5,0,0,1,3.35-1.68,35.26,35.26,0,0,1,5-1,34.9,34.9,0,0,1,5.06-.37,9.44,9.44,0,0,1,3.69.73A7.91,7.91,0,0,1,323.45,395ZM318,401.46c1-.53,1.47-1.19,1.37-2s-.72-1.31-1.84-1.55a17.74,17.74,0,0,0-5.15.21,18.12,18.12,0,0,0-5,1.15c-1,.53-1.47,1.19-1.36,2s.71,1.31,1.83,1.55a17.86,17.86,0,0,0,5.15-.22A18.22,18.22,0,0,0,318,401.46Z"/><path d="M312.13,431.18l12.58-8.84-3.32-4.72,4.61-3.23,6.76,9.63-17.19,12.07Zm25.05-19.43a4.06,4.06,0,0,1,2.68,1.78,4,4,0,0,1-1,5.78,4.07,4.07,0,0,1-3.13.77,4,4,0,0,1-2.65-1.78,4.16,4.16,0,0,1-.79-3.12,4.11,4.11,0,0,1,1.8-2.66A4,4,0,0,1,337.18,411.75Z"/><path d="M346.76,431a4.29,4.29,0,0,1,2.6,3.49l.16.09,4.86-9.34L359.7,428l-15.22,29.29-5.32-2.77.7-1.35-.16-.09a4.6,4.6,0,0,1-6.49-2.87,9.12,9.12,0,0,1,.12-4.56,47.94,47.94,0,0,1,6.29-12.1,8.89,8.89,0,0,1,3.65-2.7A4.22,4.22,0,0,1,346.76,431Zm0,7.14a1.09,1.09,0,0,0-1.83-.95,5.13,5.13,0,0,0-1.36,1.3,26.05,26.05,0,0,0-2.17,3.65,26.66,26.66,0,0,0-1.74,3.87,5.41,5.41,0,0,0-.29,1.89,1.22,1.22,0,0,0,.59,1.1,1.25,1.25,0,0,0,1.24-.15,5.44,5.44,0,0,0,1.37-1.32,39.18,39.18,0,0,0,3.91-7.53A5.29,5.29,0,0,0,346.72,438.11Z"/><path d="M397.53,455.37l-5.33,2.77L377,428.86l5.32-2.77,8.62,7.09.23-.12-.86-11.12,5.32-2.77,15.22,29.29-5.33,2.76-9.68-18.63-.21.11.13,6.69-2.29,1.19-5.45-4-.21.11Z"/><path d="M404.65,421.29a8.06,8.06,0,0,1,4.48-6.39,8,8,0,0,1,3.88-.74,9.17,9.17,0,0,1,3.61,1,34.31,34.31,0,0,1,4.32,2.66,36.77,36.77,0,0,1,4,3.17,9.4,9.4,0,0,1,2.19,3,8.18,8.18,0,0,1,.64,3.91,7.73,7.73,0,0,1-1.43,3.75,7.85,7.85,0,0,1-3.06,2.64,8.07,8.07,0,0,1-3.88.71,9.28,9.28,0,0,1-3.59-1,42.75,42.75,0,0,1-8.31-5.84,9.21,9.21,0,0,1-2.21-3A8,8,0,0,1,404.65,421.29Zm8.37-1.08c-1.1-.3-1.89-.12-2.34.53s-.36,1.45.3,2.39a17.73,17.73,0,0,0,3.93,3.33,17.93,17.93,0,0,0,4.47,2.57c1.1.3,1.89.12,2.34-.53s.36-1.45-.3-2.39a17.73,17.73,0,0,0-3.93-3.33A17.93,17.93,0,0,0,413,420.21Z"/><path d="M413.85,395.45a4.63,4.63,0,0,1,3-3.68,7.14,7.14,0,0,1,2.25-.55,9.27,9.27,0,0,1,2.06-.06c.53,0,1.28.13,2.26.26l15.26,2-.79,6-15.27-2.05a6.15,6.15,0,0,0-2.57,0,1.34,1.34,0,0,0-.95,1,1.32,1.32,0,0,0,.64,1.25,6.17,6.17,0,0,0,2.49.69l15.26,2-.8,5.95-23.79-3.19.8-5.95,1.44.2,0-.16a4.82,4.82,0,0,1-1.11-1.79A4.3,4.3,0,0,1,413.85,395.45Z"/><path d="M413.32,379.93a7.63,7.63,0,0,1-2.27-3.34,7.39,7.39,0,0,1-.37-4,7.92,7.92,0,0,1,1.61-3.6,9.61,9.61,0,0,1,2.94-2.35,36,36,0,0,1,4.66-2,35.1,35.1,0,0,1,4.89-1.43,9.46,9.46,0,0,1,3.74-.06,8.18,8.18,0,0,1,3.56,1.73,7.59,7.59,0,0,1,2.25,3.33,7.74,7.74,0,0,1,.4,4,8.11,8.11,0,0,1-1.65,3.59,9.31,9.31,0,0,1-2.91,2.34,36.75,36.75,0,0,1-4.68,2,35.74,35.74,0,0,1-4.87,1.43,9.57,9.57,0,0,1-3.76.06A8,8,0,0,1,413.32,379.93Zm3.94-7.47c-.89.73-1.19,1.48-.92,2.23s1,1.12,2.12,1.12a17.63,17.63,0,0,0,5-1.3,17.84,17.84,0,0,0,4.67-2.18c.88-.73,1.19-1.47.92-2.22s-1-1.13-2.13-1.13a28.43,28.43,0,0,0-9.65,3.48Z"/><path d="M416.74,342.17l-10.43,11.29,4.24,3.92-3.82,4.13-8.64-8,14.24-15.43Zm-20.37,24.28a4,4,0,0,1-3-1.17,4,4,0,0,1-.24-5.86A4.05,4.05,0,0,1,396,358a4,4,0,0,1,3,1.17,3.94,3.94,0,0,1,.23,5.86A4,4,0,0,1,396.37,366.45Z"/><path d="M382.94,349.69a4.27,4.27,0,0,1-3.28-2.86l-.18-.05-2.77,10.15-5.79-1.57,8.68-31.84,5.79,1.58-.4,1.47.18.05a4.58,4.58,0,0,1,6.95,1.43,9.19,9.19,0,0,1,.84,4.48,32.9,32.9,0,0,1-1.32,6.71,33.35,33.35,0,0,1-2.27,6.45,8.93,8.93,0,0,1-3,3.41A4.23,4.23,0,0,1,382.94,349.69Zm-1.48-7a1.23,1.23,0,0,0,.81,1,1.2,1.2,0,0,0,1.18-.43,5.13,5.13,0,0,0,1.06-1.56,26.21,26.21,0,0,0,1.34-4,26.52,26.52,0,0,0,.89-4.15,5.56,5.56,0,0,0-.11-1.91,1.11,1.11,0,0,0-2-.54,5.51,5.51,0,0,0-1.06,1.58,26.75,26.75,0,0,0-1.35,4,27.83,27.83,0,0,0-.89,4.16A5.6,5.6,0,0,0,381.46,342.71Z"/><path d="M75.67,566.56c.51,0,.93,0,1.25,0a11.47,11.47,0,0,1,1.33.17,5.17,5.17,0,0,1,1.59.5,5.74,5.74,0,0,1,1.42.94,7.18,7.18,0,0,1,0,10.59,6.41,6.41,0,0,1-1.42,1,5.78,5.78,0,0,1-1.59.5c-.55.09-1,.14-1.33.16s-.74,0-1.25,0H73.34v8.12h-2v-22Zm5.47,9.19a5.58,5.58,0,0,0,.45-2.25,5.45,5.45,0,0,0-.45-2.23,4.63,4.63,0,0,0-1.22-1.69,4.22,4.22,0,0,0-2.17-1c-.42-.06-.76-.1-1-.11s-.61,0-1.06,0H73.34v10.12h3.39c.26,0,.6-.06,1-.13a4.22,4.22,0,0,0,2.17-1A4.55,4.55,0,0,0,81.14,575.75Z"/><path d="M95.35,588.56V576.47h-.16l-5.84,12.09h-2v-16h2v12.1h.16l5.85-12.1h2v16Z"/><path d="M103,583.44a37.63,37.63,0,0,1,0-5.75,7.07,7.07,0,0,1,.56-2.11,5.26,5.26,0,0,1,5.3-3.27c1,0,2.44.09,4.21.27v1.88c-1.79-.18-3.19-.27-4.21-.27a3.89,3.89,0,0,0-2.15.52,3.65,3.65,0,0,0-1.28,1.53,5.8,5.8,0,0,0-.39,1.32,11.69,11.69,0,0,0-.14,1.38c0,.37,0,.92,0,1.62s0,1.26,0,1.65a11.47,11.47,0,0,0,.14,1.35,5.74,5.74,0,0,0,.39,1.33,3.78,3.78,0,0,0,1.28,1.55,4.07,4.07,0,0,0,2.15.5,31.68,31.68,0,0,0,4.53-.41v1.88a31.25,31.25,0,0,1-4.53.4,5.26,5.26,0,0,1-5.3-3.26A7.07,7.07,0,0,1,103,583.44Z"/><path d="M121.36,584.81h4v3.75h-4Z"/><path d="M157.69,566.56h1.69v22h-2V569.1h-.16l-4.86,3.5-1-1.44Z"/><path d="M75.67,677c.51,0,.93,0,1.25,0a11.88,11.88,0,0,1,1.33.18,5.17,5.17,0,0,1,1.59.5,6,6,0,0,1,1.42.93,7.19,7.19,0,0,1,0,10.6,6.41,6.41,0,0,1-1.42,1,5.78,5.78,0,0,1-1.59.5c-.55.08-1,.14-1.33.16s-.74,0-1.25,0H73.34V699h-2V677Zm5.47,9.19a5.58,5.58,0,0,0,.45-2.25,5.42,5.42,0,0,0-.45-2.23A4.63,4.63,0,0,0,79.92,680a4.22,4.22,0,0,0-2.17-1c-.42-.06-.76-.1-1-.11s-.61,0-1.06,0H73.34V689h3.39c.26,0,.6-.07,1-.13a4.22,4.22,0,0,0,2.17-1A4.64,4.64,0,0,0,81.14,686.19Z"/><path d="M95.35,699V686.91h-.16L89.35,699h-2V683h2v12.1h.16L95.36,683h2v16Z"/><path d="M103,693.88a37.63,37.63,0,0,1,0-5.75,7,7,0,0,1,.56-2.11,5.26,5.26,0,0,1,5.3-3.27c1,0,2.44.09,4.21.27v1.87c-1.79-.17-3.19-.26-4.21-.26a4,4,0,0,0-2.15.51,3.78,3.78,0,0,0-1.28,1.53A6.06,6.06,0,0,0,105,688a11.49,11.49,0,0,0-.14,1.38c0,.37,0,.91,0,1.62s0,1.26,0,1.64A11.41,11.41,0,0,0,105,694a5.9,5.9,0,0,0,.39,1.33,3.85,3.85,0,0,0,1.28,1.55,4.07,4.07,0,0,0,2.15.5,31.68,31.68,0,0,0,4.53-.41v1.88a31.25,31.25,0,0,1-4.53.4,5.27,5.27,0,0,1-5.3-3.26A7.07,7.07,0,0,1,103,693.88Z"/><path d="M121.36,695.25h4V699h-4Z"/><path d="M158.18,677.52a48.57,48.57,0,0,0-3.89,8l.14.06a4,4,0,0,1,2.51-.81,4.56,4.56,0,0,1,2.82.85,4.75,4.75,0,0,1,1.68,2.28,5.57,5.57,0,0,1,.3,1.29,11.57,11.57,0,0,1,.12,1.27c0,.35,0,.87,0,1.56a12.84,12.84,0,0,1-.5,4.13,4.67,4.67,0,0,1-1.72,2.28,4.84,4.84,0,0,1-2.87.84,5.44,5.44,0,0,1-3.13-.83,4.73,4.73,0,0,1-1.78-2.29,7.19,7.19,0,0,1-.41-1.72c-.06-.61-.09-1.41-.09-2.41a21.78,21.78,0,0,1,1.34-7.84,53.21,53.21,0,0,1,3.74-7.6Zm-4.75,12.79c0,.46-.05,1-.05,1.69s0,1.24.05,1.71a8.78,8.78,0,0,0,.25,1.43,3.67,3.67,0,0,0,.54,1.21,2.64,2.64,0,0,0,1,.75,3.89,3.89,0,0,0,2.9,0,2.64,2.64,0,0,0,1-.75,3.48,3.48,0,0,0,.53-1.21,7.82,7.82,0,0,0,.25-1.43q.06-.71.06-1.71c0-.66,0-1.23-.06-1.69a7.88,7.88,0,0,0-.25-1.45,3.34,3.34,0,0,0-.53-1.2,2.52,2.52,0,0,0-1-.74,3.77,3.77,0,0,0-2.9,0,2.52,2.52,0,0,0-1,.74,3.52,3.52,0,0,0-.54,1.2A8.82,8.82,0,0,0,153.43,690.31Z"/><path d="M413.21,797.49q2.7,3,1.33,8l.21.24L426.51,795l2.69,3-32.54,29.61-2.69-3,2.89-2.63-.21-.23c-3.43.59-6-.11-7.84-2.08a8.42,8.42,0,0,1-2.25-5.39,10.93,10.93,0,0,1,1.66-6.25,16.33,16.33,0,0,1,1.78-2.41,24.32,24.32,0,0,1,1.89-2.06c.54-.52,1.36-1.29,2.47-2.3s2-1.76,2.54-2.27a26.44,26.44,0,0,1,2.2-1.66,16.36,16.36,0,0,1,2.58-1.54,11.07,11.07,0,0,1,6.4-1.09A8.47,8.47,0,0,1,413.21,797.49Zm-.95,6.53a5,5,0,0,0-1.4-3.54,5,5,0,0,0-3.37-1.71,8.15,8.15,0,0,0-4,.7,27.78,27.78,0,0,0-6.47,4.78,28.42,28.42,0,0,0-5.37,6,7.91,7.91,0,0,0-1,3.86,4.92,4.92,0,0,0,1.36,3.54,5.05,5.05,0,0,0,3.41,1.71,8.06,8.06,0,0,0,3.93-.7,39.7,39.7,0,0,0,11.83-10.77A8.2,8.2,0,0,0,412.26,804Z"/><path d="M380.33,767l1.71,5.88c.21.74.4,1.32.56,1.73a6.1,6.1,0,0,0,.9,1.39,4.57,4.57,0,0,0,1.59,1.33,6.72,6.72,0,0,0,5.14.33,6.63,6.63,0,0,0,3.84-2.68,5.15,5.15,0,0,0,.56-4.46,7.57,7.57,0,0,0-1.16-2.42,6.14,6.14,0,0,0-1.59-1.56,5.27,5.27,0,0,0-2-.78,9.91,9.91,0,0,0-2.12-.23,12.87,12.87,0,0,0-2.25.2c-.85.14-1.54.27-2.06.4s-1.15.3-1.87.51Zm-14.45,9.41a12.29,12.29,0,0,1-.51-4.77,6.8,6.8,0,0,1,2.07-4.08,10.73,10.73,0,0,1,4.66-2.33l22.48-6.54,1.11,3.85L392,763.61l.09.3q5.06,1.82,6.35,6.29a8.18,8.18,0,0,1-.94,6.85,10.13,10.13,0,0,1-6.1,4.44,9.83,9.83,0,0,1-7.73-.62,10.08,10.08,0,0,1-2.12-1.6,7.28,7.28,0,0,1-1.46-2,12,12,0,0,1-.81-1.79c-.18-.44-.36-1-.56-1.69L377,768,373.37,769a8.31,8.31,0,0,0-3.39,1.57,3.22,3.22,0,0,0-.86,1.85,6.94,6.94,0,0,0,.36,2.92,76.06,76.06,0,0,0,3.14,8.46L369,784.88A78.65,78.65,0,0,1,365.88,776.41Z"/><path d="M379.89,724.74q3.11-4.31,8.67-3.34a9.34,9.34,0,0,1,6.66,4.4,11.81,11.81,0,0,1,1.37,8.49q-.73,4.22-2,9.49l-3.7-.65q1.27-5.43,2-9.49a7.86,7.86,0,0,0-.79-5.5,5.77,5.77,0,0,0-4.23-2.8,6.06,6.06,0,0,0-6.84,3.72,20.06,20.06,0,0,0-.94,3.74l-.74,4.25-3.69-.64.74-4.28a23.42,23.42,0,0,0,.44-4.15,6,6,0,0,0-.94-3.14,3.63,3.63,0,0,0-2.53-1.71,3.77,3.77,0,0,0-3.39,1.28,8.45,8.45,0,0,0-2.21,4.81c-.34,2-.7,5-1.07,9l-3.69-.65c.28-3.56.64-6.58,1.07-9a12.45,12.45,0,0,1,3.7-7.38,7.13,7.13,0,0,1,6.28-2q4.47.78,5.51,5.5Z"/><path d="M411.27,701.85c-1.57,2.15-4.09,3.13-7.57,2.92l-.18.25,12.86,9.35L414,717.61l-35.59-25.87,2.35-3.24,3.16,2.3.18-.25q-1.9-4.87.44-8.1a8.52,8.52,0,0,1,4.83-3.3,11,11,0,0,1,6.46.37,16.55,16.55,0,0,1,2.72,1.25,27.19,27.19,0,0,1,2.4,1.43c.62.42,1.53,1.08,2.75,2s2.12,1.56,2.73,2a23.35,23.35,0,0,1,2.08,1.82,16.26,16.26,0,0,1,2,2.2,11.06,11.06,0,0,1,2.36,6A8.49,8.49,0,0,1,411.27,701.85Zm-6.58.39a5.1,5.1,0,0,0,3.18-2.09,5,5,0,0,0,1-3.65,8.31,8.31,0,0,0-1.49-3.75,39.59,39.59,0,0,0-12.94-9.4,7.83,7.83,0,0,0-4-.24,4.88,4.88,0,0,0-3.19,2,5,5,0,0,0-1,3.69,8,8,0,0,0,1.48,3.7A39.81,39.81,0,0,0,400.68,702,8.35,8.35,0,0,0,404.69,702.24Z"/><path d="M434.47,663.47l-5.41,2.87c-.69.36-1.21.66-1.58.9a6,6,0,0,0-1.19,1.16,4.76,4.76,0,0,0-1,1.83,6.8,6.8,0,0,0,.72,5.1,6.7,6.7,0,0,0,3.4,3.22,5.17,5.17,0,0,0,4.48-.36,7.51,7.51,0,0,0,2.15-1.63,6.14,6.14,0,0,0,1.2-1.87,5.36,5.36,0,0,0,.35-2.13,9.61,9.61,0,0,0-.2-2.12,13.79,13.79,0,0,0-.65-2.17c-.31-.8-.58-1.45-.81-1.94s-.53-1.06-.88-1.72Zm-12.14-12.24a12.13,12.13,0,0,1,4.57-1.46,6.73,6.73,0,0,1,4.42,1.2,10.76,10.76,0,0,1,3.22,4.09l10.95,20.69L442,677.62l-1.8-3.4-.27.14q-.76,5.32-4.88,7.5a8.18,8.18,0,0,1-6.89.46,10,10,0,0,1-5.58-5.07,9.44,9.44,0,0,1,.17-10.09,7.64,7.64,0,0,1,1.68-1.85,13.92,13.92,0,0,1,1.58-1.15c.4-.26.92-.56,1.54-.89l5.36-2.83-1.78-3.37a8.15,8.15,0,0,0-2.22-3,3.19,3.19,0,0,0-2-.47,6.89,6.89,0,0,0-2.78.94,75,75,0,0,0-7.65,4.79L414.66,656A79.89,79.89,0,0,1,422.33,651.23Z"/><path d="M469.2,643.53a6.94,6.94,0,0,0-3.9,1.22,5.28,5.28,0,0,0-2.09,3.06,32.14,32.14,0,0,0-.61,8.68c0,1.33.09,2.4.13,3.19s.19,1.7.37,2.74a11.44,11.44,0,0,0,.77,2.69,6.45,6.45,0,0,0,2.4,2.93,6.3,6.3,0,0,0,3.72,1,6.72,6.72,0,0,0,3.78-1.21,5.46,5.46,0,0,0,2.09-3.07,30.77,30.77,0,0,0,.74-8.68,28.17,28.17,0,0,0-1.27-8.62,5.89,5.89,0,0,0-2.31-2.93A6.33,6.33,0,0,0,469.2,643.53Zm.51-3.77a9.49,9.49,0,0,1,9.45,6.31,33.34,33.34,0,0,1,1.43,9.86c.05,1.59.07,2.81.06,3.69a21.43,21.43,0,0,1-.25,3,16.39,16.39,0,0,1-.75,3.21q-2.38,6.68-10.16,6.92a9,9,0,0,1-5.62-1.71,10.77,10.77,0,0,1-3.71-4.6,22.14,22.14,0,0,1-1.49-7.87q-.19-6.24-.26-9.15t0-6.06a30.46,30.46,0,0,1,.33-4.58,12,12,0,0,1,4.15-7.44,13.43,13.43,0,0,1,4.08-2.29,12.71,12.71,0,0,1,3.79-.74c1.11,0,2.42-.11,3.94-.22a20.63,20.63,0,0,0,4-.71l.12,3.84a32.47,32.47,0,0,1-4.74.58,35.45,35.45,0,0,0-5,.63,7.91,7.91,0,0,0-3.54,1.7q-3.3,2.76-3.27,9.64h.31a13.17,13.17,0,0,1,3.26-3A7.79,7.79,0,0,1,469.71,639.76Z"/><path d="M510.79,649.22a10.94,10.94,0,0,1,11.08,5,10.62,10.62,0,0,1,1.4,5.85,15.1,15.1,0,0,1-.79,4.27c-.48,1.41-1.19,3.17-2.15,5.27s-1.8,3.81-2.54,5.1a14.9,14.9,0,0,1-2.68,3.41,10.56,10.56,0,0,1-5.31,2.81,10,10,0,0,1-6.29-.81,10.11,10.11,0,0,1-4.79-4.19,10.81,10.81,0,0,1-1.38-5.84,15.48,15.48,0,0,1,.8-4.27c.48-1.41,1.19-3.16,2.15-5.27s1.8-3.8,2.54-5.09a14.75,14.75,0,0,1,2.68-3.42A10.65,10.65,0,0,1,510.79,649.22Zm8.55,10.45a6.44,6.44,0,0,0-10.93-4.95q-1.95,1.88-4.48,7.48c-1.69,3.74-2.57,6.5-2.65,8.3a6.44,6.44,0,0,0,10.93,4.94c1.29-1.24,2.79-3.73,4.48-7.47S519.26,661.46,519.34,659.67Z"/><path d="M564.24,691.51l-2.89,2.38-7.64-9.25-21.78,18-2.55-3.09,21.78-18-7.64-9.25,2.89-2.39Z"/><path d="M562.37,734.31l-1.42-6a18,18,0,0,0-.49-1.75,5.86,5.86,0,0,0-.82-1.44,4.79,4.79,0,0,0-1.53-1.4,6.7,6.7,0,0,0-5.11-.57,6.62,6.62,0,0,0-4,2.49,5.12,5.12,0,0,0-.77,4.42,7.53,7.53,0,0,0,1,2.49,6.16,6.16,0,0,0,1.52,1.63,5.3,5.3,0,0,0,2,.87,9.82,9.82,0,0,0,2.11.33,12.92,12.92,0,0,0,2.26-.09c.85-.09,1.54-.2,2.08-.3l1.89-.42Zm14.89-8.7a12.17,12.17,0,0,1,.27,4.78,6.76,6.76,0,0,1-2.26,4,10.71,10.71,0,0,1-4.76,2.11l-22.77,5.44-.93-3.89,3.74-.89-.07-.3q-5-2.07-6-6.59a8.21,8.21,0,0,1,1.26-6.8,10.2,10.2,0,0,1,6.3-4.14,9.78,9.78,0,0,1,7.69,1,10.1,10.1,0,0,1,2,1.69,7.86,7.86,0,0,1,1.37,2.09,14.41,14.41,0,0,1,.72,1.82q.23.68.48,1.71l1.41,5.9,3.7-.89a8.22,8.22,0,0,0,3.46-1.4,3.29,3.29,0,0,0,1-1.81,7,7,0,0,0-.22-2.93,73.71,73.71,0,0,0-2.73-8.6l3.7-.89A79.34,79.34,0,0,1,577.26,725.61Z"/><path d="M578.4,763.87l-.88,3.9-11.95-2.68-2.63,11.71,11.95,2.68-.87,3.91-31.23-7,.88-3.9,15.61,3.5,2.63-11.71-15.61-3.5.87-3.91Z"/><path d="M560.66,809.58l-2.5,3.11L548.6,805l-7.51,9.36,9.56,7.66-2.51,3.12-24.95-20,2.5-3.12,12.48,10,7.51-9.36-12.48-10,2.51-3.11Z"/><path d="M515.82,833.55l-1.61.76a15.77,15.77,0,0,1-3.69,1.32,8.76,8.76,0,0,1-5.94-1,10.05,10.05,0,0,1-4.32-4.8,10.27,10.27,0,0,1-.95-6.43,8.8,8.8,0,0,1,3.08-5.14,15.71,15.71,0,0,1,3.38-2l5.26-2.47,13.6,29L521,844.53Zm-1.56-3.41L509,818.94l-1.64.77a12.5,12.5,0,0,0-2.44,1.42,4.75,4.75,0,0,0-1.73,3.09,7.62,7.62,0,0,0,3.3,7,4.67,4.67,0,0,0,3.48.64,12.27,12.27,0,0,0,2.65-1ZM502.9,853l-13.6-29,3.62-1.7,13.6,29Z"/><path d="M460.81,868.52l-4-.06a7.43,7.43,0,0,1,3.17-6.14,12,12,0,0,1,7.6-2.18,12.19,12.19,0,0,1,7.55,2.44,7.42,7.42,0,0,1,2.93,6.23l-4-.06a4.13,4.13,0,0,0-1.63-3.47,8,8,0,0,0-4.91-1.39,7.88,7.88,0,0,0-4.93,1.22A4.16,4.16,0,0,0,460.81,868.52Zm1.37-44-.41,24.18h.31l12.1-24,4,.07-.54,32-4-.06.41-24.19h-.32l-12.12,24-4-.06.54-32Z"/></svg>