<svg id="Слой_1" data-name="Слой 1" xmlns="http://www.w3.org/2000/svg" xmlns:xlink="http://www.w3.org/1999/xlink" viewBox="0 0 1440 1121.96"><defs><style>.cls-1{fill:#fff;}.cls-2,.cls-3,.cls-5{fill:none;stroke:#000;}.cls-3{stroke-width:5px;}.cls-4{mask:url(#mask);}.cls-5{stroke-width:10px;}.cls-6{mask:url(#mask-2);}</style><mask id="mask" x="-179.97" y="116.08" width="733.74" height="728.23" maskUnits="userSpaceOnUse"><g id="path-401-inside-22_73:3" data-name="path-401-inside-22 73:3"><path class="cls-1" d="M419,760.6a361.87,361.87,0,1,0-299.64,77.86L137,745.7a267.46,267.46,0,1,1,221.45-57.55Z"/></g></mask><mask id="mask-2" x="43.08" y="339.14" width="287.63" height="287.63" maskUnits="userSpaceOnUse"><g id="path-402-inside-23_73:3" data-name="path-402-inside-23 73:3"><path class="cls-1" d="M132.75,355.17A138.78,138.78,0,1,0,314.68,428.8,138.78,138.78,0,0,0,132.75,355.17ZM213.61,546a68.47,68.47,0,1,1,36.33-89.76A68.46,68.46,0,0,1,213.61,546Z"/></g></mask></defs><path d="M221.52,777.57h14v22h-2V779.44h-10v20.13h-2Zm23.57,22.25a4,4,0,0,1-3.41-2.2h-.15v8h-2v-22h2v1.95h.15a4,4,0,0,1,3.41-2.2,4.25,4.25,0,0,1,2.75,1,5.58,5.58,0,0,1,1.75,2.72,9.52,9.52,0,0,1,.3,1.47c.07.54.11,1,.12,1.39s0,.94,0,1.69,0,1.32,0,1.7a13.83,13.83,0,0,1-.12,1.38,9.52,9.52,0,0,1-.3,1.47,5.66,5.66,0,0,1-1.75,2.73A4.24,4.24,0,0,1,245.09,799.82ZM243,797.27a2.51,2.51,0,0,0,1.78.67,2.48,2.48,0,0,0,1.76-.67,4.07,4.07,0,0,0,1.08-1.7,19.72,19.72,0,0,0,0-8,4,4,0,0,0-1.08-1.69,2.45,2.45,0,0,0-1.76-.69,2.48,2.48,0,0,0-1.78.69,4.05,4.05,0,0,0-1.07,1.69,20.2,20.2,0,0,0,0,8A4.15,4.15,0,0,0,243,797.27Zm20.53,2.3V787.48h-.15l-5.85,12.09h-2v-16h2v12.09h.16l5.86-12.09h2v16Zm8,0h-2v-16h2l4.92,8h.18l4.9-8h2v16h-2V787.13h-.15l-4,6.44h-1.72l-4-6.44h-.16Zm18-3.75h4v3.75h-4Z"/><path d="M1353.61,579.34a15.44,15.44,0,1,0,5.06-10.66A15.5,15.5,0,0,0,1353.61,579.34Zm26,1.3a10.55,10.55,0,0,1-13.11,9.7,10.55,10.55,0,0,1-7-14.75,10.54,10.54,0,0,1,20,5Z"/><path class="cls-2" d="M1353.61,579.34a15.44,15.44,0,1,0,5.06-10.66A15.5,15.5,0,0,0,1353.61,579.34Zm26,1.3a10.55,10.55,0,0,1-13.11,9.7,10.55,10.55,0,0,1-7-14.75,10.54,10.54,0,0,1,20,5Z"/><path d="M1435,599.69a73.55,73.55,0,1,0,24.09-50.79A73.47,73.47,0,0,0,1435,599.69Zm141.87,7.08a68.66,68.66,0,1,1-17.67-49.42A68.63,68.63,0,0,1,1576.87,606.77Z"/><path class="cls-2" d="M1435,599.69a73.55,73.55,0,1,0,24.09-50.79A73.47,73.47,0,0,0,1435,599.69Zm141.87,7.08a68.66,68.66,0,1,1-17.67-49.42A68.63,68.63,0,0,1,1576.87,606.77Z"/><path d="M1320.09,757.52a53.5,53.5,0,1,0,17.55-36.95A53.47,53.47,0,0,0,1320.09,757.52ZM1422,762.6a48.63,48.63,0,1,1-12.51-35A48.57,48.57,0,0,1,1422,762.6Z"/><path class="cls-2" d="M1320.09,757.52a53.5,53.5,0,1,0,17.55-36.95A53.47,53.47,0,0,0,1320.09,757.52ZM1422,762.6a48.63,48.63,0,1,1-12.51-35A48.57,48.57,0,0,1,1422,762.6Z"/><path d="M1088.81,779.18q-1.65,2.61-3.14,5.39,3.09-.41,6.13-1c1.16-2,2.41-3.89,3.74-5.74Q1092.21,778.63,1088.81,779.18Zm128.74-18.88c1.28,1,2.54,2.08,3.74,3.17A84.95,84.95,0,1,1,1082,845.6c-.36-1.59-.68-3.2-.94-4.82-1.63.1-3.26.17-4.89.22.26,1.63.57,3.24.91,4.84a89.83,89.83,0,1,0,146.88-86.56q-1.86-1.63-3.8-3.12Q1218.88,758.24,1217.55,760.3Zm-57.64-23.07c-1.43,1.81-2.89,3.56-4.42,5.26,2.25-.26,4.54-.42,6.85-.49q2-2.38,3.81-4.88C1164,737.07,1162,737.11,1159.91,737.23Z"/><path class="cls-2" d="M1088.81,779.18q-1.65,2.61-3.14,5.39,3.09-.41,6.13-1c1.16-2,2.41-3.89,3.74-5.74Q1092.21,778.63,1088.81,779.18Zm128.74-18.88c1.28,1,2.54,2.08,3.74,3.17A84.95,84.95,0,1,1,1082,845.6c-.36-1.59-.68-3.2-.94-4.82-1.63.1-3.26.17-4.89.22.26,1.63.57,3.24.91,4.84a89.83,89.83,0,1,0,146.88-86.56q-1.86-1.63-3.8-3.12Q1218.88,758.24,1217.55,760.3Zm-57.64-23.07c-1.43,1.81-2.89,3.56-4.42,5.26,2.25-.26,4.54-.42,6.85-.49q2-2.38,3.81-4.88C1164,737.07,1162,737.11,1159.91,737.23Z"/><path d="M1491.14,366.88c1.07,1.23,2.1,2.48,3.1,3.77a93.67,93.67,0,1,1-151.07,110.67c-.94-1.35-1.82-2.7-2.67-4l-3.94,2.89c.85,1.37,1.74,2.72,2.68,4a98.54,98.54,0,1,0,159-116.42q-1.5-1.93-3.09-3.78Z"/><path class="cls-2" d="M1491.14,366.88c1.07,1.23,2.1,2.48,3.1,3.77a93.67,93.67,0,1,1-151.07,110.67c-.94-1.35-1.82-2.7-2.67-4l-3.94,2.89c.85,1.37,1.74,2.72,2.68,4a98.54,98.54,0,1,0,159-116.42q-1.5-1.93-3.09-3.78Z"/><path d="M1265.14,754.78a108.57,108.57,0,1,0,35.59-75A108.49,108.49,0,0,0,1265.14,754.78Zm211.79,10.56a103.72,103.72,0,1,1-26.68-74.62A103.59,103.59,0,0,1,1476.93,765.34Z"/><path class="cls-2" d="M1265.14,754.78a108.57,108.57,0,1,0,35.59-75A108.49,108.49,0,0,0,1265.14,754.78Zm211.79,10.56a103.72,103.72,0,1,1-26.68-74.62A103.59,103.59,0,0,1,1476.93,765.34Z"/><path d="M1326.59,578a42.53,42.53,0,1,0,13.93-29.37A42.45,42.45,0,0,0,1326.59,578Zm80,4a37.65,37.65,0,1,1-9.69-27.1A37.64,37.64,0,0,1,1406.59,582Z"/><path class="cls-2" d="M1326.59,578a42.53,42.53,0,1,0,13.93-29.37A42.45,42.45,0,0,0,1326.59,578Zm80,4a37.65,37.65,0,1,1-9.69-27.1A37.64,37.64,0,0,1,1406.59,582Z"/><path d="M1186.93,796.39a34.44,34.44,0,0,1,3.8,3.12,37.69,37.69,0,1,1-63.23,32q-2.34.86-4.71,1.56A42.55,42.55,0,1,0,1190.62,793C1189.4,794.16,1188.16,795.29,1186.93,796.39Z"/><path class="cls-2" d="M1186.93,796.39a34.44,34.44,0,0,1,3.8,3.12,37.69,37.69,0,1,1-63.23,32q-2.34.86-4.71,1.56A42.55,42.55,0,1,0,1190.62,793C1189.4,794.16,1188.16,795.29,1186.93,796.39Z"/><path d="M1118,563.49q2.52,1.14,4.93,2.42c-.08-1.82-.09-3.65-.05-5.49q-2.35-1.18-4.77-2.19C1118,560,1118,561.73,1118,563.49Zm65.74,91.77a114.85,114.85,0,0,1,.45,17.3,113.16,113.16,0,0,1-24.27,64.67c-1.43,1.8-2.89,3.56-4.42,5.25a114,114,0,0,1-59.9,35.4c-2.22.5-4.46.94-6.73,1.3A113.6,113.6,0,0,1,984,740.54c-1.07-1.24-2.09-2.5-3.1-3.78l-4,2.81c1,1.29,2,2.55,3.08,3.8a118.67,118.67,0,0,0,105.71,41.2q3.09-.41,6.13-1A118.86,118.86,0,0,0,1162.32,742q2-2.38,3.81-4.88a118.6,118.6,0,0,0,22.64-80.23c-.14-1.77-.33-3.51-.56-5.26-1.74-.56-3.47-1.16-5.17-1.82q.4,2.7.69,5.45Zm-59-88.42a114.39,114.39,0,0,1,46.44,46.92l4.55-1.82a119.38,119.38,0,0,0-45.19-47.42Z"/><path class="cls-2" d="M1118,563.49q2.52,1.14,4.93,2.42c-.08-1.82-.09-3.65-.05-5.49q-2.35-1.18-4.77-2.19C1118,560,1118,561.73,1118,563.49Zm65.74,91.77a114.85,114.85,0,0,1,.45,17.3,113.16,113.16,0,0,1-24.27,64.67c-1.43,1.8-2.89,3.56-4.42,5.25a114,114,0,0,1-59.9,35.4c-2.22.5-4.46.94-6.73,1.3A113.6,113.6,0,0,1,984,740.54c-1.07-1.24-2.09-2.5-3.1-3.78l-4,2.81c1,1.29,2,2.55,3.08,3.8a118.67,118.67,0,0,0,105.71,41.2q3.09-.41,6.13-1A118.86,118.86,0,0,0,1162.32,742q2-2.38,3.81-4.88a118.6,118.6,0,0,0,22.64-80.23c-.14-1.77-.33-3.51-.56-5.26-1.74-.56-3.47-1.16-5.17-1.82q.4,2.7.69,5.45Zm-59-88.42a114.39,114.39,0,0,1,46.44,46.92l4.55-1.82a119.38,119.38,0,0,0-45.19-47.42Z"/><path d="M1244.11,651.81c.14,1.66.27,3.31.36,5a175.4,175.4,0,0,1,0,18.77,173,173,0,0,1-24.42,80.57q-1.24,2.1-2.57,4.16a174.75,174.75,0,0,1-27,32.72c-1.2,1.14-2.41,2.27-3.65,3.37a174.52,174.52,0,0,1-59.47,35.14q-2.34.86-4.71,1.56a172.65,172.65,0,0,1-41.71,7.67c-1.62.1-3.26.17-4.89.22q-7.06.22-14.26-.13a173.75,173.75,0,0,1-127.31-65.28q-1.54-1.91-3-3.84l-4,2.81c1,1.3,2,2.58,3,3.85a178.69,178.69,0,0,0,131.09,67.35c5.18.25,10.33.29,15.42.1,1.65-.05,3.29-.14,4.89-.24a177.54,177.54,0,0,0,41.75-7.67c1.56-.48,3.1-1,4.64-1.53a179.68,179.68,0,0,0,62.32-36.83c1.2-1.09,2.4-2.2,3.57-3.33a179.59,179.59,0,0,0,27-32.74q1.33-2.07,2.61-4.19a179.37,179.37,0,0,0,25.34-104c-.11-1.69-.24-3.37-.4-5Q1246.51,651.07,1244.11,651.81Zm-71.4-126c1.88,1.37,3.76,2.79,5.64,4.24q6.23,4.92,12,10.36a176.36,176.36,0,0,1,23.9,28q3.93,5.74,7.43,11.79a174,174,0,0,1,15.38,35.26,42.53,42.53,0,0,0,4.49-2,178.49,178.49,0,0,0-15-34.55,181.25,181.25,0,0,0-19.11-27.5q-5.76-6.8-12.13-13a181.09,181.09,0,0,0-18.93-16l-.32-.24Q1174.29,524,1172.71,525.85Zm-36.61-20.36c1.55.62,3.07,1.27,4.6,1.95,1-1.35,2-2.67,3-4-1.54-.7-3.09-1.36-4.64-2-1,1.31-2,2.65-3,4ZM926.84,560.15l5.92.3q1.47-1.87,3-3.75l.4-8Q931.25,554.24,926.84,560.15Z"/><path class="cls-2" d="M1244.11,651.81c.14,1.66.27,3.31.36,5a175.4,175.4,0,0,1,0,18.77,173,173,0,0,1-24.42,80.57q-1.24,2.1-2.57,4.16a174.75,174.75,0,0,1-27,32.72c-1.2,1.14-2.41,2.27-3.65,3.37a174.52,174.52,0,0,1-59.47,35.14q-2.34.86-4.71,1.56a172.65,172.65,0,0,1-41.71,7.67c-1.62.1-3.26.17-4.89.22q-7.06.22-14.26-.13a173.75,173.75,0,0,1-127.31-65.28q-1.54-1.91-3-3.84l-4,2.81c1,1.3,2,2.58,3,3.85a178.69,178.69,0,0,0,131.09,67.35c5.18.25,10.33.29,15.42.1,1.65-.05,3.29-.14,4.89-.24a177.54,177.54,0,0,0,41.75-7.67c1.56-.48,3.1-1,4.64-1.53a179.68,179.68,0,0,0,62.32-36.83c1.2-1.09,2.4-2.2,3.57-3.33a179.59,179.59,0,0,0,27-32.74q1.33-2.07,2.61-4.19a179.37,179.37,0,0,0,25.34-104c-.11-1.69-.24-3.37-.4-5Q1246.51,651.07,1244.11,651.81Zm-71.4-126c1.88,1.37,3.76,2.79,5.64,4.24q6.23,4.92,12,10.36a176.36,176.36,0,0,1,23.9,28q3.93,5.74,7.43,11.79a174,174,0,0,1,15.38,35.26,42.53,42.53,0,0,0,4.49-2,178.49,178.49,0,0,0-15-34.55,181.25,181.25,0,0,0-19.11-27.5q-5.76-6.8-12.13-13a181.09,181.09,0,0,0-18.93-16l-.32-.24Q1174.29,524,1172.71,525.85Zm-36.61-20.36c1.55.62,3.07,1.27,4.6,1.95,1-1.35,2-2.67,3-4-1.54-.7-3.09-1.36-4.64-2-1,1.31-2,2.65-3,4ZM926.84,560.15l5.92.3q1.47-1.87,3-3.75l.4-8Q931.25,554.24,926.84,560.15Z"/><path d="M1445.26,400.49a38.11,38.11,0,0,1,3.43,3.53,37.27,37.27,0,1,1-60,43.94,35.29,35.29,0,0,1-2.34-4.32l-4,2.93a42.14,42.14,0,0,0,75.72.18,42.12,42.12,0,0,0-8.83-49.19Z"/><path class="cls-2" d="M1445.26,400.49a38.11,38.11,0,0,1,3.43,3.53,37.27,37.27,0,1,1-60,43.94,35.29,35.29,0,0,1-2.34-4.32l-4,2.93a42.14,42.14,0,0,0,75.72.18,42.12,42.12,0,0,0-8.83-49.19Z"/><path d="M1201.21,536.11l6.18,15.37,6.82,17,5,12.43,4.69,11.67-40.44,16.23-7.78,3.14-4.55,1.82L1146,623.87l-3.89,1.56-.88.36-8.82,3.54-49.2,19.76-15,6-22.68-56.46,15-6,57.73-23.2,4.77-1.92,1.69-.66,5.79-2.33,29.86-12,21.55-8.66,8.43-3.39,5-2Z"/><path class="cls-2" d="M1201.21,536.11l6.18,15.37,6.82,17,5,12.43,4.69,11.67-40.44,16.23-7.78,3.14-4.55,1.82L1146,623.87l-3.89,1.56-.88.36-8.82,3.54-49.2,19.76-15,6-22.68-56.46,15-6,57.73-23.2,4.77-1.92,1.69-.66,5.79-2.33,29.86-12,21.55-8.66,8.43-3.39,5-2Z"/><path d="M1049.21,564.53l11.28,28.1,22.67,56.46,4.73,11.77,1.86,4.65,5.71,14.23L1074,676.68l-7-1-94.43-13.48Z"/><path class="cls-2" d="M1049.21,564.53l11.28,28.1,22.67,56.46,4.73,11.77,1.86,4.65,5.71,14.23L1074,676.68l-7-1-94.43-13.48Z"/><path d="M1155.24,198.6l4.06,15.63,64.77,249.93,1.3,5,10.25,39.5,16.51,63.7L1226.52,579l-4.88,1.27-2.44.63-26,6.73-11.34-43.76-3.57-13.78-2-7.63-.11-.45-10-38.6-1.28-4.94-64.52-249-4.06-15.65Z"/><path class="cls-2" d="M1155.24,198.6l4.06,15.63,64.77,249.93,1.3,5,10.25,39.5,16.51,63.7L1226.52,579l-4.88,1.27-2.44.63-26,6.73-11.34-43.76-3.57-13.78-2-7.63-.11-.45-10-38.6-1.28-4.94-64.52-249-4.06-15.65Z"/><path d="M1101.53,118.15l38.76,39.39,4.25,4.32,44.06,44.79-29.3,7.58-58.89,15.28-32,8.28,17.25-62.33,1.57-5.66Z"/><path class="cls-2" d="M1101.53,118.15l38.76,39.39,4.25,4.32,44.06,44.79-29.3,7.58-58.89,15.28-32,8.28,17.25-62.33,1.57-5.66Z"/><path d="M1164.93,478.5a99.07,99.07,0,0,0-25.82,23c-1,1.32-2,2.66-3,4a97.88,97.88,0,0,0-18,52l0,.74c-.09,1.78-.11,3.54-.08,5.3,0,2,.1,4,.23,5.94a98.18,98.18,0,0,0,21.55,54.64h0c.46.58.92,1.16,1.4,1.72.28.31.6.7.94,1.09s.55.65.82,1a98.43,98.43,0,0,0,40.8,27.45q2.47.88,5,1.62a98.57,98.57,0,0,0,55.7-.08c1.61-.48,3.2-1,4.79-1.57a98.42,98.42,0,0,0,51.88-143.13c-.83-1.39-1.69-2.77-2.6-4.13a98.42,98.42,0,0,0-74.47-43.82l-2.69-.13A97.85,97.85,0,0,0,1164.93,478.5ZM1310,567a93.78,93.78,0,0,1-61.12,83.18q-2.36.85-4.75,1.61a93.74,93.74,0,0,1-55.9-.18c-1.74-.56-3.47-1.16-5.17-1.82a93.86,93.86,0,0,1-60-82.29h0c0-.54-.06-1.07-.07-1.61-.08-1.82-.1-3.64-.05-5.49l.13-2.73a93,93,0,0,1,17.74-50.26c1-1.35,2-2.67,3-4a93.66,93.66,0,0,1,77.39-34.61c1.42.07,2.83.14,4.23.32A93.72,93.72,0,0,1,1310,567Z"/><path class="cls-2" d="M1164.93,478.5a99.07,99.07,0,0,0-25.82,23c-1,1.32-2,2.66-3,4a97.88,97.88,0,0,0-18,52l0,.74c-.09,1.78-.11,3.54-.08,5.3,0,2,.1,4,.23,5.94a98.18,98.18,0,0,0,21.55,54.64h0c.46.58.92,1.16,1.4,1.72.28.31.6.7.94,1.09s.55.65.82,1a98.43,98.43,0,0,0,40.8,27.45q2.47.88,5,1.62a98.57,98.57,0,0,0,55.7-.08c1.61-.48,3.2-1,4.79-1.57a98.42,98.42,0,0,0,51.88-143.13c-.83-1.39-1.69-2.77-2.6-4.13a98.42,98.42,0,0,0-74.47-43.82l-2.69-.13A97.85,97.85,0,0,0,1164.93,478.5ZM1310,567a93.78,93.78,0,0,1-61.12,83.18q-2.36.85-4.75,1.61a93.74,93.74,0,0,1-55.9-.18c-1.74-.56-3.47-1.16-5.17-1.82a93.86,93.86,0,0,1-60-82.29h0c0-.54-.06-1.07-.07-1.61-.08-1.82-.1-3.64-.05-5.49l.13-2.73a93,93,0,0,1,17.74-50.26c1-1.35,2-2.67,3-4a93.66,93.66,0,0,1,77.39-34.61c1.42.07,2.83.14,4.23.32A93.72,93.72,0,0,1,1310,567Z"/><path d="M1219.31,505.44a57,57,0,0,1,22.2,108.11c-1.47.73-3,1.39-4.49,2a57,57,0,0,1-64.31-89.68q1.56-1.87,3.3-3.63l.21-.21a56.82,56.82,0,0,1,43.09-16.57Z"/><path class="cls-2" d="M1219.31,505.44a57,57,0,0,1,22.2,108.11c-1.47.73-3,1.39-4.49,2a57,57,0,0,1-64.31-89.68q1.56-1.87,3.3-3.63l.21-.21a56.82,56.82,0,0,1,43.09-16.57Z"/><path d="M1140.66,623.44l1.4,2,1.41,2-.54.39-53.18,37.7L1074,676.68l-90.06,63.86-4,2.83-45.42,32.2-4,2.82-44.2,31.34-.68.49-2.82-4,.54-.37,44.17-31.33,4-2.81,45.35-32.16,4-2.82L1067,675.67l20.89-14.81,44.47-31.53,7.41-5.26Z"/><path class="cls-2" d="M1140.66,623.44l1.4,2,1.41,2-.54.39-53.18,37.7L1074,676.68l-90.06,63.86-4,2.83-45.42,32.2-4,2.82-44.2,31.34-.68.49-2.82-4,.54-.37,44.17-31.33,4-2.81,45.35-32.16,4-2.82L1067,675.67l20.89-14.81,44.47-31.53,7.41-5.26Z"/><path d="M1540.74,330.54l2.87,3.94-2.18,1.6-43.26,31.69-3.93,2.88-41.62,30.49-3.93,2.88-60,43.93h0l-3.94,2.87-41.6,30.49-3.93,2.86-38.1,27.92-.62.46-2.88-3.93.9-.66,38-27.86,3.93-2.88,41.87-30.67,4-2.94,58.89-43.13,4-2.94,41.88-30.67,3.94-2.89,43.6-31.94Z"/><path class="cls-2" d="M1540.74,330.54l2.87,3.94-2.18,1.6-43.26,31.69-3.93,2.88-41.62,30.49-3.93,2.88-60,43.93h0l-3.94,2.87-41.6,30.49-3.93,2.86-38.1,27.92-.62.46-2.88-3.93.9-.66,38-27.86,3.93-2.88,41.87-30.67,4-2.94,58.89-43.13,4-2.94,41.88-30.67,3.94-2.89,43.6-31.94Z"/><path d="M964.39,299.71,958,321l13.69,4.58,2.73-9.07.5-.4,43,56.69,13.12-9.94-54.67-72.16Z"/><path class="cls-2" d="M964.39,299.71,958,321l13.69,4.58,2.73-9.07.5-.4,43,56.69,13.12-9.94-54.67-72.16Z"/><path d="M1026.4,253.76a29.09,29.09,0,0,0-9.75,5.06,97,97,0,0,0-13.57,12.77l9.33,12.3A103,103,0,0,1,1026,271.13q5.54-4.2,9.64,1.23a21.33,21.33,0,0,1,4,9.78l9.43,50.13,8.11,10.72L1091,317.36l-9.32-12.29-18.86,14.28-8.61-43.73a33.24,33.24,0,0,0-1.76-6.86,26.92,26.92,0,0,0-3.72-6.34,25.88,25.88,0,0,0-6-5.78,21.63,21.63,0,0,0-7.42-3.3A18.14,18.14,0,0,0,1026.4,253.76Z"/><path class="cls-2" d="M1026.4,253.76a29.09,29.09,0,0,0-9.75,5.06,97,97,0,0,0-13.57,12.77l9.33,12.3A103,103,0,0,1,1026,271.13q5.54-4.2,9.64,1.23a21.33,21.33,0,0,1,4,9.78l9.43,50.13,8.11,10.72L1091,317.36l-9.32-12.29-18.86,14.28-8.61-43.73a33.24,33.24,0,0,0-1.76-6.86,26.92,26.92,0,0,0-3.72-6.34,25.88,25.88,0,0,0-6-5.78,21.63,21.63,0,0,0-7.42-3.3A18.14,18.14,0,0,0,1026.4,253.76Z"/><path d="M835.8,537.52l-.9,18.05,100.62,5,.9-18.05Z"/><path class="cls-2" d="M835.8,537.52l-.9,18.05,100.62,5,.9-18.05Z"/><path d="M750.54,618.69l1,7.61,29.21-3.67-1-7.6Z"/><path class="cls-2" d="M750.54,618.69l1,7.61,29.21-3.67-1-7.6Z"/><path d="M767.41,698.73l2.26,7.32,28.12-8.67-2.26-7.33Z"/><path class="cls-2" d="M767.41,698.73l2.26,7.32,28.12-8.67-2.26-7.33Z"/><path d="M797.9,774.64l3.5,6.83L827.6,768l-3.5-6.82Z"/><path class="cls-2" d="M797.9,774.64l3.5,6.83L827.6,768l-3.5-6.82Z"/><path d="M841.14,844.1l4.63,6.11,23.46-17.77-4.63-6.11Z"/><path class="cls-2" d="M841.14,844.1l4.63,6.11,23.46-17.77-4.63-6.11Z"/><path d="M960.12,955.48l6.44,4.16,16-24.73-6.44-4.16Z"/><path class="cls-2" d="M960.12,955.48l6.44,4.16,16-24.73-6.44-4.16Z"/><path d="M1032.3,994l7.06,3,11.44-27.13-7.07-3Z"/><path class="cls-2" d="M1032.3,994l7.06,3,11.44-27.13-7.07-3Z"/><path d="M1110.05,1019.45l7.47,1.7,6.55-28.69-7.47-1.71Z"/><path class="cls-2" d="M1110.05,1019.45l7.47,1.7,6.55-28.69-7.47-1.71Z"/><path d="M1191,1031l7.66.38,1.47-29.4-7.66-.38Z"/><path class="cls-2" d="M1191,1031l7.66.38,1.47-29.4-7.66-.38Z"/><path d="M1352.85,1011.41l7.33-2.26L1351.5,981l-7.33,2.26Z"/><path class="cls-2" d="M1352.85,1011.41l7.33-2.26L1351.5,981l-7.33,2.26Z"/><path d="M1428.76,980.91l6.83-3.49-13.43-26.2-6.83,3.5Z"/><path class="cls-2" d="M1428.76,980.91l6.83-3.49-13.43-26.2-6.83,3.5Z"/><path d="M1400.65,130.69l-7.07-3-11.43,27.12,7.07,3Z"/><path class="cls-2" d="M1400.65,130.69l-7.07-3-11.43,27.12,7.07,3Z"/><path d="M1241.9,93.73l-7.66-.38-1.46,29.39,7.66.39Z"/><path class="cls-2" d="M1241.9,93.73l-7.66-.38-1.46,29.39,7.66.39Z"/><path d="M1160.15,96.43l-7.61.95,3.66,29.21,7.61-1Z"/><path class="cls-2" d="M1160.15,96.43l-7.61.95,3.66,29.21,7.61-1Z"/><path d="M1080.09,113.29l-7.33,2.26,8.68,28.12,7.33-2.26Z"/><path class="cls-2" d="M1080.09,113.29l-7.33,2.26,8.68,28.12,7.33-2.26Z"/><path d="M1004.19,143.8l-6.82,3.5,13.43,26.19,6.82-3.5Z"/><path class="cls-2" d="M1004.19,143.8l-6.82,3.5,13.43,26.19,6.82-3.5Z"/><path d="M873.83,241.64l-5.21,5.62,21.58,20,5.21-5.62Z"/><path class="cls-2" d="M873.83,241.64l-5.21,5.62,21.58,20,5.21-5.62Z"/><path d="M823.34,306l-4.16,6.44,24.73,16,4.16-6.44Z"/><path class="cls-2" d="M823.34,306l-4.16,6.44,24.73,16,4.16-6.44Z"/><path d="M784.8,378.18l-3,7.07L809,396.68l3-7.07Z"/><path class="cls-2" d="M784.8,378.18l-3,7.07L809,396.68l3-7.07Z"/><path d="M757.21,458.45l-1.67,7.44,28.56,6.43,1.67-7.44Z"/><path class="cls-2" d="M757.21,458.45l-1.67,7.44,28.56,6.43,1.67-7.44Z"/><path d="M749,528l-1.42,28.38,29.4,1.47,1.42-28.39Z"/><path class="cls-2" d="M749,528l-1.42,28.38,29.4,1.47,1.42-28.39Z"/><path d="M890.52,905l21.65,18.41L931.24,901l-21.66-18.41Z"/><path class="cls-2" d="M890.52,905l21.65,18.41L931.24,901l-21.66-18.41Z"/><path d="M1267.74,1028.75l28.15-3.88-4-29.16-28.15,3.88Z"/><path class="cls-2" d="M1267.74,1028.75l28.15-3.88-4-29.16-28.15,3.88Z"/><path d="M943.13,180.92l-22.66,17.16,17.77,23.47,22.66-17.16Z"/><path class="cls-2" d="M943.13,180.92l-22.66,17.16,17.77,23.47,22.66-17.16Z"/><path d="M1335.91,112.92l-27.25-8-8.34,28.23,27.26,8.05Z"/><path class="cls-2" d="M1335.91,112.92l-27.25-8-8.34,28.23,27.26,8.05Z"/><path d="M1289.44,194.1l17.33,5.12-28.55,96.61-17.32-5.12Z"/><path class="cls-2" d="M1289.44,194.1l17.33,5.12-28.55,96.61-17.32-5.12Z"/><circle class="cls-3" cx="1210.68" cy="562.73" r="499.27"/><circle class="cls-3" cx="1207.71" cy="563.55" r="405.74"/><path d="M1304.47,462.79a2.45,2.45,0,0,1,1.64-.47,3.24,3.24,0,0,1,1.75.7,5,5,0,0,1,.64.6c.21.23.39.43.53.61l.58.8.57.81c.12.19.25.42.4.7a4,4,0,0,1,.36.8,3.24,3.24,0,0,1,.09,1.89,2.46,2.46,0,0,1-1,1.39,2.37,2.37,0,0,1-2.37.11l-.07,0,.66.93-1,.68-7.45-10.45.95-.68,2.69,3.78.08-.05A2.32,2.32,0,0,1,1304.47,462.79Zm1.55.72a1.44,1.44,0,0,0-1.07.27,1.5,1.5,0,0,0-.61.93,2.3,2.3,0,0,0,.07,1.16,8.27,8.27,0,0,0,1.16,2,7.89,7.89,0,0,0,1.55,1.76,2.43,2.43,0,0,0,1.08.45,1.49,1.49,0,0,0,1.07-.28,1.46,1.46,0,0,0,.61-.92,2.37,2.37,0,0,0-.06-1.18,8.25,8.25,0,0,0-1.16-2,7.91,7.91,0,0,0-1.55-1.76A2.29,2.29,0,0,0,1306,463.51Zm10.23-.18q-.84-2.67-2.57-6.94l1-.69.33.83.34.84.31.78.32.83.3.79c.13.35.23.64.3.85s.18.49.3.83.22.66.3.94.19.58.29.92.22.68.32,1,.2.74.26,1a6.19,6.19,0,0,1,.13.79,2.17,2.17,0,0,1,0,.78,4.08,4.08,0,0,1-1.74,2.12l-.63-.89a3.07,3.07,0,0,0,1.23-1.34,1.33,1.33,0,0,0,0-.61,3.82,3.82,0,0,0-.11-.65c-.05-.19-.16-.57-.32-1.13l-.39.27a22.71,22.71,0,0,1-3.53-2.11q-1.7-1.25-3.54-2.88l1-.69a30.2,30.2,0,0,0,6.08,4.44Zm13.88-7.22-7.45-10.44,1-.68,6.82,9.56,4.75-3.39.63.89Zm6.47-4.61a33.4,33.4,0,0,1-4.43-12.61l1-.69a33.47,33.47,0,0,1,10.48,8.29l-1,.72a32.51,32.51,0,0,0-2.47-2.59l-4.19,3c.08.18.2.43.37.77l.41.82c.1.21.24.47.4.76s.31.57.46.82Zm2.76-7.66c-1.15-1-2.2-1.87-3.14-2.57a19.73,19.73,0,0,0-2.85-1.79l-.07,0a19.76,19.76,0,0,0,.77,3.27q.54,1.69,1.41,3.81Zm6.29-8a3.34,3.34,0,0,0-.55-1.22,3.21,3.21,0,0,0-1-.91,2.86,2.86,0,0,0-1.15-.39,2.41,2.41,0,0,0-.71,0,2.08,2.08,0,0,0-.66.23,3.73,3.73,0,0,0-.52.29c-.13.08-.31.19-.52.34l-1.1.79,3.43,4.81,1.1-.79c.28-.2.5-.36.67-.5a3.48,3.48,0,0,0,.54-.61,2.33,2.33,0,0,0,.42-.87A2.73,2.73,0,0,0,1345.65,435.86Zm-5.71-2.51.6-.41q.26-.15.69-.36a2.76,2.76,0,0,1,.93-.31,3.27,3.27,0,0,1,1,0,4.19,4.19,0,0,1,3.59,5,4.09,4.09,0,0,1-.3.8l4.9,2.91-1,.72-4.57-2.68a9,9,0,0,1-1.12.92l-1.11.79,2.76,3.86-1,.68-7.46-10.45Zm15.78,4.68a21.12,21.12,0,0,1-2.91,1.72l-.65-.91a23.25,23.25,0,0,0,2.93-1.7,2.92,2.92,0,0,0,1.25-1.74,2.44,2.44,0,0,0-.47-2,2.49,2.49,0,0,0-1-.81,2.29,2.29,0,0,0-1.18-.22,4.53,4.53,0,0,0-1.49.55,9.67,9.67,0,0,1-1.43.63,3.34,3.34,0,0,1-2,0,3.39,3.39,0,0,1-1.65-1.29,3.33,3.33,0,0,1-.62-2.6,3.56,3.56,0,0,1,1.54-2.3,30.79,30.79,0,0,1,2.88-1.77l.64.89a33.59,33.59,0,0,0-2.89,1.77,2.36,2.36,0,0,0-1,1.58,2.32,2.32,0,0,0,.44,1.75,2.5,2.5,0,0,0,1,.84,2.06,2.06,0,0,0,1.17.16,5.77,5.77,0,0,0,1.52-.62,5.43,5.43,0,0,1,1.71-.63,3.38,3.38,0,0,1,1.83.24,3.44,3.44,0,0,1,1.48,1.2,3.4,3.4,0,0,1,.64,2.79A4,4,0,0,1,1355.72,438ZM1353.08,424l5.7-4.07.64.89-4.75,3.39,2.75,3.86,3.8-2.71.63.89-3.79,2.71,2.79,3.92,4.75-3.39.64.89-5.7,4.07Zm15.06,5-1,.68-7.46-10.45,1-.67,10.81,5.25.07-.05-6.13-8.59,1-.68,7.46,10.45-.95.67-10.81-5.25-.07,0Zm4.77-13.44.92-.65,4.92,4.17.08-.06a65,65,0,0,0-5.73-9.32l1-.68a65.93,65.93,0,0,1,6.42,11.18l-.92.66-5.3-4.46-.07.05,2.49,6.46-.92.66a66,66,0,0,1-8.48-9.71l1-.68a65.92,65.92,0,0,0,7,8.45l.07-.05Zm5.06-5.07a18.7,18.7,0,0,0,3.41,4.78,3.8,3.8,0,0,0,1.86.92,2.78,2.78,0,0,0,3-2.16,3.81,3.81,0,0,0-.26-2,13.94,13.94,0,0,0-1.52-2.52,13.65,13.65,0,0,0-1.89-2.26,3.78,3.78,0,0,0-1.86-.91,2.44,2.44,0,0,0-1.92.5,2.5,2.5,0,0,0-1.1,1.65A3.81,3.81,0,0,0,1378,410.48Zm2.63,5.64a14.11,14.11,0,0,1-2.06-2.44,14.65,14.65,0,0,1-1.64-2.73,4.8,4.8,0,0,1-.28-2.78,3.61,3.61,0,0,1,1.55-2.29,3.71,3.71,0,0,1,2.68-.73,4.88,4.88,0,0,1,2.52,1.18,19.76,19.76,0,0,1,3.7,5.18,4.89,4.89,0,0,1,.29,2.78,4,4,0,0,1-4.23,3A4.89,4.89,0,0,1,1380.6,416.12Zm10.65-12.8a3.22,3.22,0,0,0-.55-1.23,3.18,3.18,0,0,0-1-.9,2.54,2.54,0,0,0-1.15-.39,2.72,2.72,0,0,0-.7,0,2.42,2.42,0,0,0-.67.23c-.22.11-.39.21-.52.29l-.51.35-1.11.79,3.43,4.8,1.11-.79c.27-.19.5-.36.66-.49a4,4,0,0,0,.55-.62,2.47,2.47,0,0,0,.43-2.07Zm-5.71-2.51c.24-.18.45-.31.61-.41a7.28,7.28,0,0,1,.68-.37,3.16,3.16,0,0,1,.93-.3,3.64,3.64,0,0,1,1,0,4.2,4.2,0,0,1,3.59,5,3.41,3.41,0,0,1-.29.81l4.89,2.91-1,.72-4.57-2.69a7.6,7.6,0,0,1-1.12.93l-1.1.78,2.75,3.86-1,.68-7.45-10.45Zm13,6.49-1,.67-7.45-10.44.95-.68,3.65,5.11.61-8.15,1-.74-.47,7,8.61,3-1.16.83-7.6-2.66-.17,2Z"/><path d="M913.59,747.85l-.94.69-7.55-10.38.94-.68,5.69,2.93.08-.06-1-6.31.94-.68,7.55,10.37-.94.69-6.17-8.48-.07.06.85,5.12-.81.59-4.61-2.39-.07.06Zm2.12-13.1a13.68,13.68,0,0,0,1.54,2.5,14.19,14.19,0,0,0,1.91,2.24,3.84,3.84,0,0,0,1.86.9,2.53,2.53,0,0,0,1.92-.52,2.47,2.47,0,0,0,1.08-1.66,3.75,3.75,0,0,0-.28-2.06,19.12,19.12,0,0,0-3.45-4.74,3.87,3.87,0,0,0-1.87-.9,2.5,2.5,0,0,0-1.91.52,2.54,2.54,0,0,0-1.09,1.67A3.83,3.83,0,0,0,915.71,734.75Zm2.67,5.61a20.33,20.33,0,0,1-3.74-5.14,4.78,4.78,0,0,1-.31-2.77,4,4,0,0,1,4.2-3.06,4.78,4.78,0,0,1,2.53,1.15,13.7,13.7,0,0,1,2.08,2.42,14.62,14.62,0,0,1,1.67,2.72,4.91,4.91,0,0,1,.32,2.78,4,4,0,0,1-4.2,3.06A4.94,4.94,0,0,1,918.38,740.36Zm10.31-3.5-.94.68-7.55-10.37.93-.68L932,731.64l.08-.06-6.22-8.53.95-.69,7.55,10.38-.94.68-10.86-5.15-.07.05Zm2.11-13.11a13.86,13.86,0,0,0,1.55,2.51,14.19,14.19,0,0,0,1.91,2.24,3.84,3.84,0,0,0,1.86.9,2.53,2.53,0,0,0,1.92-.52,2.49,2.49,0,0,0,1.08-1.67,3.82,3.82,0,0,0-.28-2.05,14.65,14.65,0,0,0-1.54-2.51,14,14,0,0,0-1.91-2.23,3.83,3.83,0,0,0-1.87-.9,2.78,2.78,0,0,0-3,2.19A3.79,3.79,0,0,0,930.8,723.75Zm2.68,5.62A14.55,14.55,0,0,1,931.4,727a14.14,14.14,0,0,1-1.66-2.73,4.78,4.78,0,0,1-.32-2.77,4,4,0,0,1,4.2-3.05,4.71,4.71,0,0,1,2.54,1.15,13.7,13.7,0,0,1,2.08,2.42,14.3,14.3,0,0,1,1.67,2.72,4.9,4.9,0,0,1,.32,2.78,3.69,3.69,0,0,1-1.54,2.29,3.65,3.65,0,0,1-2.66.76A4.84,4.84,0,0,1,933.48,729.37ZM941,712.06l.65.88-1.89,1.37,6.27,8.61,1.88-1.37.65.88-4.72,3.43-.64-.88,1.88-1.37L938.77,715l-1.89,1.37-.64-.88Zm4.44-3.24a4.68,4.68,0,0,1,4.73-.77,5.3,5.3,0,0,1,1.66,1.09,13.7,13.7,0,0,1,1.56,1.83,14.83,14.83,0,0,1,1.26,2,5,5,0,0,1,.53,1.92A4.64,4.64,0,0,1,953,719.2l-2.55,1.86-7.56-10.38Zm8.21,4.8a12.21,12.21,0,0,0-1.2-2,11.63,11.63,0,0,0-1.5-1.74,3.81,3.81,0,0,0-1.41-.9,3.62,3.62,0,0,0-3.45.69l-1.61,1.17,6.27,8.6,1.6-1.17a3.62,3.62,0,0,0,1.72-3.07A4,4,0,0,0,953.6,713.62Z"/><g class="cls-4"><path class="cls-5" d="M419,760.6a361.87,361.87,0,1,0-299.64,77.86L137,745.7a267.46,267.46,0,1,1,221.45-57.55Z"/></g><g class="cls-6"><path class="cls-5" d="M132.75,355.17A138.78,138.78,0,1,0,314.68,428.8,138.78,138.78,0,0,0,132.75,355.17ZM213.61,546a68.47,68.47,0,1,1,36.33-89.76A68.46,68.46,0,0,1,213.61,546Z"/></g></svg>