<svg id="Слой_1" data-name="Слой 1" xmlns="http://www.w3.org/2000/svg" xmlns:xlink="http://www.w3.org/1999/xlink" viewBox="0 0 1440 747.1"><defs><style>.cls-1{fill:#fff;}.cls-2{mask:url(#mask);}.cls-3,.cls-5{fill:none;stroke:#000;}.cls-3{stroke-width:10px;}.cls-4{mask:url(#mask-2);}.cls-5{stroke-width:3px;}.cls-6{mask:url(#mask-3);}</style><mask id="mask" x="1102.87" y="16.43" width="645" height="645" maskUnits="userSpaceOnUse"><g id="path-34-inside-6_73:3" data-name="path-34-inside-6 73:3"><path class="cls-1" d="M1296.2,48.89a317.53,317.53,0,1,1-188.32,287.88l93.58.63a223.93,223.93,0,1,0,132.83-203Z"/></g></mask><mask id="mask-2" x="1311.2" y="210.76" width="242.08" height="242.08" maskUnits="userSpaceOnUse"><g id="path-38-inside-10_73:3" data-name="path-38-inside-10 73:3"><path class="cls-1" d="M1323.64,291A116,116,0,1,0,1473,223.2,116,116,0,0,0,1323.64,291Zm143.54,53.88a37.31,37.31,0,1,1-21.83-48A37.31,37.31,0,0,1,1467.18,344.92Z"/></g></mask><mask id="mask-3" x="-216.7" y="177.87" width="431.24" height="432.66" maskUnits="userSpaceOnUse"><g id="path-264-inside-20_73:3" data-name="path-264-inside-20 73:3"><path class="cls-1" d="M208.9,364.72A211.32,211.32,0,0,0,144.11,240a211.32,211.32,0,0,0-128.7-56.51,211.34,211.34,0,0,0-135.68,36.71,211.42,211.42,0,0,0-82.64,113.71,211.38,211.38,0,0,0,7,140.39,211.33,211.33,0,0,0,93.49,105A211.33,211.33,0,0,0,36.2,602.34a211.4,211.4,0,0,0,122.48-69L96.2,478.69a128.31,128.31,0,0,1-74.36,41.89,128.28,128.28,0,0,1-84.19-14,128.31,128.31,0,0,1-56.77-63.73,128.42,128.42,0,0,1-4.23-85.25,128.39,128.39,0,0,1,50.18-69A128.3,128.3,0,0,1,9.21,266.24a128.34,128.34,0,0,1,78.15,34.31,128.29,128.29,0,0,1,39.33,75.75Z"/></g></mask></defs><g class="cls-2"><path class="cls-3" d="M1296.2,48.89a317.53,317.53,0,1,1-188.32,287.88l93.58.63a223.93,223.93,0,1,0,132.83-203Z"/></g><g class="cls-4"><path class="cls-3" d="M1323.64,291A116,116,0,1,0,1473,223.2,116,116,0,0,0,1323.64,291Zm143.54,53.88a37.31,37.31,0,1,1-21.83-48A37.31,37.31,0,0,1,1467.18,344.92Z"/></g><path class="cls-5" d="M1067.87,702.43l-84-74"/><line class="cls-5" x1="280.87" y1="451.93" x2="480.87" y2="451.93"/><line class="cls-5" x1="381.75" y1="606.64" x2="293.75" y2="670.64"/><path d="M1123.19,700.43c.51,0,.94,0,1.25,0s.77.08,1.34.17a5.56,5.56,0,0,1,1.59.5,6.48,6.48,0,0,1,1.42.94,7.18,7.18,0,0,1,0,10.59,6.57,6.57,0,0,1-1.42,1,6.26,6.26,0,0,1-1.59.5c-.57.08-1,.13-1.34.15s-.74,0-1.25,0h-2.32v8.13h-2v-22Zm5.48,9.19a5.76,5.76,0,0,0,.45-2.25,5.63,5.63,0,0,0-.45-2.24,4.85,4.85,0,0,0-1.23-1.68,3.75,3.75,0,0,0-1-.66,4.13,4.13,0,0,0-1.15-.34,8.34,8.34,0,0,0-1-.11c-.26,0-.61,0-1.07,0h-2.32v10.13h2.32l1.07,0c.26,0,.59-.06,1-.12a4.49,4.49,0,0,0,1.15-.34,4,4,0,0,0,1-.66A5,5,0,0,0,1128.67,709.62Zm14.21,12.81V710.34h-.17l-5.83,12.09h-2v-16h2v12.09h.15l5.86-12.09h2v16Zm7.61-5.13c-.07-.75-.1-1.7-.1-2.87s0-2.12.1-2.88a7.31,7.31,0,0,1,.56-2.1,5.28,5.28,0,0,1,5.29-3.27c1.06,0,2.46.09,4.22.27v1.87c-1.78-.18-3.18-.27-4.22-.27a4,4,0,0,0-2.14.52,3.63,3.63,0,0,0-1.27,1.53,6.06,6.06,0,0,0-.39,1.33,9.77,9.77,0,0,0-.14,1.37c0,.38,0,.92,0,1.63s0,1.26,0,1.64a9.64,9.64,0,0,0,.14,1.36,6.06,6.06,0,0,0,.39,1.33,3.73,3.73,0,0,0,1.27,1.54,4,4,0,0,0,2.14.5,31.84,31.84,0,0,0,4.55-.4v1.87a31.81,31.81,0,0,1-4.55.41,5.28,5.28,0,0,1-5.29-3.27A7.29,7.29,0,0,1,1150.49,717.3Zm18.4,1.38h4v3.75h-4Zm30-18a23.82,23.82,0,0,1,4.5-.48,7.23,7.23,0,0,1,2.62.44,4.26,4.26,0,0,1,1.78,1.19,4.91,4.91,0,0,1,1,1.64,5.61,5.61,0,0,1,.31,1.9,6.09,6.09,0,0,1-.29,2,11.89,11.89,0,0,1-.89,1.88l-6.48,11.29h8.32v1.88h-10.84V721l7.22-12.66c.24-.41.41-.73.51-1a4.42,4.42,0,0,0,.29-.89,4.22,4.22,0,0,0,.16-1.19,3.85,3.85,0,0,0-.16-1.15,3.17,3.17,0,0,0-.52-1,2.5,2.5,0,0,0-1.14-.81,5.11,5.11,0,0,0-1.86-.3,25.53,25.53,0,0,0-4.5.49Z"/><path d="M164.19,439.43c.51,0,.93,0,1.25,0s.78.08,1.33.17a5.52,5.52,0,0,1,1.6.5,6.25,6.25,0,0,1,1.42.94,7.18,7.18,0,0,1,0,10.59,6.34,6.34,0,0,1-1.42,1,6.21,6.21,0,0,1-1.6.5c-.55.08-1,.13-1.33.15s-.74,0-1.25,0h-2.32v8.13h-2v-22Zm5.47,9.19a5.59,5.59,0,0,0,.46-2.25,5.47,5.47,0,0,0-.46-2.24,4.59,4.59,0,0,0-1.22-1.68,4.08,4.08,0,0,0-1-.66,4,4,0,0,0-1.16-.34,7.83,7.83,0,0,0-1-.11c-.26,0-.62,0-1.07,0h-2.32v10.13h2.32l1.07,0c.26,0,.6-.06,1-.12a4.34,4.34,0,0,0,1.16-.34,4.39,4.39,0,0,0,1-.66A4.73,4.73,0,0,0,169.66,448.62Zm14.21,12.81V449.34h-.15l-5.85,12.09h-2v-16h2v12.09H178l5.86-12.09h2v16Zm7.62-5.13c-.07-.75-.11-1.7-.11-2.87s0-2.12.11-2.88a7,7,0,0,1,.56-2.1,5.27,5.27,0,0,1,5.3-3.27c1,0,2.45.09,4.22.27v1.87c-1.79-.18-3.2-.27-4.22-.27a3.91,3.91,0,0,0-2.14.52,3.58,3.58,0,0,0-1.28,1.53,5.13,5.13,0,0,0-.39,1.33,9.77,9.77,0,0,0-.14,1.37c0,.38,0,.92,0,1.63s0,1.26,0,1.64a9.64,9.64,0,0,0,.14,1.36,5.13,5.13,0,0,0,.39,1.33,3.67,3.67,0,0,0,1.28,1.54,3.92,3.92,0,0,0,2.14.5,31.36,31.36,0,0,0,4.53-.4v1.87a31.32,31.32,0,0,1-4.53.41,5.27,5.27,0,0,1-5.3-3.27A7,7,0,0,1,191.49,456.3Zm18.4,1.38h4v3.75h-4Zm40,3.75h-2v-6h-9v-1.56L246.55,439l1.7.88-6.94,13.53v.15h6.59v-4.12h2v4.12h2v1.88h-2Z"/><path d="M174.19,703.43c.51,0,.93,0,1.25,0s.78.08,1.33.17a5.52,5.52,0,0,1,1.6.5,6.25,6.25,0,0,1,1.42.94,7.18,7.18,0,0,1,0,10.59,6.34,6.34,0,0,1-1.42,1,6.21,6.21,0,0,1-1.6.5c-.55.08-1,.13-1.33.15s-.74,0-1.25,0h-2.32v8.13h-2v-22Zm5.47,9.19a5.59,5.59,0,0,0,.46-2.25,5.47,5.47,0,0,0-.46-2.24,4.59,4.59,0,0,0-1.22-1.68,4.08,4.08,0,0,0-1-.66,4,4,0,0,0-1.16-.34,7.83,7.83,0,0,0-1-.11c-.26,0-.62,0-1.07,0h-2.32v10.13h2.32l1.07,0c.26,0,.6-.06,1-.12a4.34,4.34,0,0,0,1.16-.34,4.39,4.39,0,0,0,1-.66A4.73,4.73,0,0,0,179.66,712.62Zm14.21,12.81V713.34h-.15l-5.85,12.09h-2v-16h2v12.09H188l5.86-12.09h2v16Zm7.62-5.13c-.07-.75-.11-1.7-.11-2.87s0-2.12.11-2.88a7,7,0,0,1,.56-2.1,5.27,5.27,0,0,1,5.3-3.27c1,0,2.45.09,4.22.27v1.87c-1.79-.18-3.2-.27-4.22-.27a3.91,3.91,0,0,0-2.14.52,3.58,3.58,0,0,0-1.28,1.53,5.13,5.13,0,0,0-.39,1.33,9.77,9.77,0,0,0-.14,1.37c0,.38,0,.92,0,1.63s0,1.26,0,1.64a9.64,9.64,0,0,0,.14,1.36,5.13,5.13,0,0,0,.39,1.33,3.67,3.67,0,0,0,1.28,1.54,3.92,3.92,0,0,0,2.14.5,31.36,31.36,0,0,0,4.53-.4v1.87a31.32,31.32,0,0,1-4.53.41,5.27,5.27,0,0,1-5.3-3.27A7,7,0,0,1,201.49,720.3Zm18.4,1.38h4v3.75h-4Zm38.51-2.95a6.67,6.67,0,0,0-.81-3.74,3.12,3.12,0,0,0-2.75-1.15,4.23,4.23,0,0,0-1.22.17l-.92-1.19,4.77-7.52H249.9v-1.87h10v1.72L255,712.34l.11.11a3.27,3.27,0,0,1,1-.16,3.85,3.85,0,0,1,1.77.39,3.33,3.33,0,0,1,1.22,1,5.09,5.09,0,0,1,.76,1.49,8.5,8.5,0,0,1,.4,1.75,15.36,15.36,0,0,1,.1,1.86c0,2.35-.47,4.1-1.43,5.23a5.35,5.35,0,0,1-4.32,1.69,29.52,29.52,0,0,1-4.75-.48v-1.91a26.32,26.32,0,0,0,4.75.51,4.29,4.29,0,0,0,1.6-.26,2.89,2.89,0,0,0,1.09-.7,3.27,3.27,0,0,0,.64-1.13,5.81,5.81,0,0,0,.33-1.37A12.87,12.87,0,0,0,258.4,718.73Z"/><g class="cls-6"><path class="cls-3" d="M208.9,364.72A211.32,211.32,0,0,0,144.11,240a211.32,211.32,0,0,0-128.7-56.51,211.34,211.34,0,0,0-135.68,36.71,211.42,211.42,0,0,0-82.64,113.71,211.38,211.38,0,0,0,7,140.39,211.33,211.33,0,0,0,93.49,105A211.33,211.33,0,0,0,36.2,602.34a211.4,211.4,0,0,0,122.48-69L96.2,478.69a128.31,128.31,0,0,1-74.36,41.89,128.28,128.28,0,0,1-84.19-14,128.31,128.31,0,0,1-56.77-63.73,128.42,128.42,0,0,1-4.23-85.25,128.39,128.39,0,0,1,50.18-69A128.3,128.3,0,0,1,9.21,266.24a128.34,128.34,0,0,1,78.15,34.31,128.29,128.29,0,0,1,39.33,75.75Z"/></g></svg>