<svg xmlns="http://www.w3.org/2000/svg" xmlns:xlink="http://www.w3.org/1999/xlink" viewBox="0 0 1846.22 1528.16"><defs><style>.cls-1{fill:#fff;}.cls-2{mask:url(#mask);}.cls-3{fill:none;stroke:#000;stroke-width:10px;}.cls-4{mask:url(#mask-2);}.cls-5{mask:url(#mask-3);}.cls-6{mask:url(#mask-4);}.cls-7{mask:url(#mask-5);}.cls-8{mask:url(#mask-6);}.cls-9{mask:url(#mask-7);}.cls-10{mask:url(#mask-8);}</style><mask id="mask" x="361.22" y="324.16" width="1204" height="1204" maskUnits="userSpaceOnUse"><g id="path-160-inside-11_73:3" data-name="path-160-inside-11 73:3"><path class="cls-1" d="M1560.22,926.16c0,329.71-267.29,597-597,597s-597-267.29-597-597,267.29-597,597-597S1560.22,596.45,1560.22,926.16Zm-1121,0c0,289.38,234.59,524,524,524s524-234.58,524-524-234.58-524-524-524S439.26,636.79,439.26,926.16Z"/></g></mask><mask id="mask-2" x="462.11" y="880.88" width="228.9" height="413.67" maskUnits="userSpaceOnUse"><g id="path-174-inside-12_73:3" data-name="path-174-inside-12 73:3"><path class="cls-1" d="M497.12,887.55a332.52,332.52,0,0,1,173.24,400.72l-62.52-19.9A266.9,266.9,0,0,0,468.78,946.72Z"/></g></mask><mask id="mask-3" x="1041.03" y="762.74" width="112.1" height="119.26" maskUnits="userSpaceOnUse"><g id="path-175-inside-13_73:3" data-name="path-175-inside-13 73:3"><path class="cls-1" d="M1146.76,855.61a190,190,0,0,0-61-85.85l-37.7,47.38a129.45,129.45,0,0,1,41.57,58.49Z"/></g></mask><mask id="mask-4" x="0" y="851.41" width="576.8" height="673.54" maskUnits="userSpaceOnUse"><g id="path-176-inside-14_73:3" data-name="path-176-inside-14 73:3"><path class="cls-1" d="M569.73,1425.42A332.51,332.51,0,1,1,301.18,856.93l7,63.6A268.52,268.52,0,1,0,525,1379.62Z"/></g></mask><mask id="mask-5" x="1493.51" y="128.45" width="235.02" height="235.02" maskUnits="userSpaceOnUse"><g id="path-179-inside-17_73:3" data-name="path-179-inside-17 73:3"><path class="cls-1" d="M1716.32,285.49a112.48,112.48,0,1,1-65.77-144.84A112.48,112.48,0,0,1,1716.32,285.49Zm-152.77-57.35a50.7,50.7,0,1,0,65.29-29.65A50.7,50.7,0,0,0,1563.55,228.14Z"/></g></mask><mask id="mask-6" x="205.68" y="1067.62" width="227.94" height="249.57" maskUnits="userSpaceOnUse"><g id="path-180-inside-18_73:3" data-name="path-180-inside-18 73:3"><path class="cls-1" d="M426.62,1263.83a119.78,119.78,0,1,1-91.84-191.13l-2.26,62.66a57.08,57.08,0,1,0,43.76,91.08Z"/></g></mask><mask id="mask-7" x="1354.06" y="0" width="492.16" height="492.16" maskUnits="userSpaceOnUse"><g id="path-234-inside-19_73:3" data-name="path-234-inside-19 73:3"><path class="cls-1" d="M1612.29,5.31c133,6.71,235.33,120,228.62,252.92S1721,493.56,1588,486.85s-235.33-120-228.62-252.92S1479.32-1.4,1612.29,5.31ZM1591,427.67c100.29,5.06,185.7-72.14,190.76-172.43a181.82,181.82,0,0,0-363.18-18.32C1413.49,337.2,1490.69,422.61,1591,427.67Z"/></g></mask><mask id="mask-8" x="1025.06" y="988.51" width="117.74" height="115.4" maskUnits="userSpaceOnUse"><g id="path-404-inside-25_73:3" data-name="path-404-inside-25 73:3"><path class="cls-1" d="M1058.13,1097.23a190.09,190.09,0,0,0,77.77-69.47l-51.18-32.35a129.45,129.45,0,0,1-53,47.33Z"/></g></mask></defs><g id="Слой_2" data-name="Слой 2"><g id="Слой_1-2" data-name="Слой 1"><g class="cls-2"><path class="cls-3" d="M1560.22,926.16c0,329.71-267.29,597-597,597s-597-267.29-597-597,267.29-597,597-597S1560.22,596.45,1560.22,926.16Zm-1121,0c0,289.38,234.59,524,524,524s524-234.58,524-524-234.58-524-524-524S439.26,636.79,439.26,926.16Z"/></g><path d="M1000.36,1106.59a11.21,11.21,0,0,1-7.73-.94,14.54,14.54,0,0,1-6.16-6,22.57,22.57,0,0,1-1.64-3.65,33.4,33.4,0,0,1-1.14-3.54c-.25-1-.6-2.43-1-4.38s-.77-3.43-1-4.44a36.69,36.69,0,0,1-.48-3.65,21.73,21.73,0,0,1-.1-4,14.83,14.83,0,0,1,2.94-8.14,11.32,11.32,0,0,1,6.57-4.15q5.21-1.18,10.16,3.72l.41-.09-1.15-5.08,5.2-1.19,13,57.21-5.2,1.19-4.7-20.69-.4.1Q1005.57,1105.41,1000.36,1106.59Zm-5.29-5.81a6.56,6.56,0,0,0,5,.75,6.69,6.69,0,0,0,4.22-2.84,10.83,10.83,0,0,0,1.77-5q.33-3.45-1.31-10.64t-3.42-10.16a11,11,0,0,0-3.77-3.8,6.77,6.77,0,0,0-5-.7,6.7,6.7,0,0,0-4.19,2.79,11,11,0,0,0-1.8,5.07q-.31,3.45,1.31,10.64t3.42,10.16A10.49,10.49,0,0,0,995.07,1100.78Z"/><path d="M945.33,1076.09q-5,11.76-11.74,31.75l-5.44-.49c.19-.51.64-1.79,1.35-3.85s1.12-3.34,1.32-3.94.6-1.77,1.24-3.61,1.1-3.1,1.39-3.85.69-1.93,1.28-3.61,1.09-2.94,1.48-3.89.85-2.19,1.46-3.75,1.18-2.95,1.71-4.16,1.08-2.57,1.74-4.07,1.29-3,2-4.47c.83-1.82,1.48-3.19,1.95-4.09a23,23,0,0,1,1.87-3.14,9.34,9.34,0,0,1,2.49-2.58q4.2-2.94,12.33-2.21l-.44,5q-5.94-.52-8.29,1a6.53,6.53,0,0,0-1.94,2,19.31,19.31,0,0,0-1.52,2.58c-.41.81-1.17,2.44-2.28,4.91l2.16.19a104.53,104.53,0,0,1,6,17.85q2.18,9.32,3.69,20.49l-5.43-.48q-2.55-20.24-7.89-33.5Z"/><path d="M856.67,1021.14q3.14,2.45,4.48,3.61a9.59,9.59,0,0,1,3.6,6.86,9.47,9.47,0,0,1-.6,3.94,14.37,14.37,0,0,1-1.39,2.88c-.47.62-1.1,1.4-1.9,2.32l-30.79,35.57-4-3.49,30.79-35.57c.56-.65,1-1.16,1.27-1.54a9.23,9.23,0,0,0,.9-1.48,5.84,5.84,0,0,0,.52-1.87,4.91,4.91,0,0,0-1.95-4.11q-2.15-1.86-4.17-3.34Z"/><path d="M815.72,999.66l4.24,7c.53.88,1,1.55,1.32,2a7.76,7.76,0,0,0,1.64,1.49,6.18,6.18,0,0,0,2.5,1.16,9,9,0,0,0,6.74-1.35,8.89,8.89,0,0,0,4-4.78,6.89,6.89,0,0,0-.82-5.93,9.94,9.94,0,0,0-2.34-2.73,8.25,8.25,0,0,0-2.58-1.45,7.22,7.22,0,0,0-2.87-.31,12.94,12.94,0,0,0-2.81.44,17.47,17.47,0,0,0-2.83,1q-1.56.71-2.52,1.23c-.63.35-1.37.79-2.23,1.31Zm-15.35,17.11a16.18,16.18,0,0,1-2.3-6,9,9,0,0,1,1.25-6c.82-1.47,2.56-3,5.19-4.61L831.2,984,834,988.6l-4.39,2.66.22.36q7.14.58,10.35,5.9a10.92,10.92,0,0,1,1.16,9.14,13.49,13.49,0,0,1-6.32,7.83,13.06,13.06,0,0,1-10.17,1.87,13.25,13.25,0,0,1-3.28-1.32A9.59,9.59,0,0,1,819,1013a17.36,17.36,0,0,1-1.66-2c-.38-.52-.82-1.18-1.31-2L811.8,1002l-4.34,2.63q-3.11,1.89-3.82,3.19a4.34,4.34,0,0,0-.47,2.68,9.35,9.35,0,0,0,1.47,3.64,98,98,0,0,0,7,9.8l-4.35,2.64A108.45,108.45,0,0,1,800.37,1016.77Z"/><path d="M783.18,956.81q1.32,5.52,5,8a14.36,14.36,0,0,0,4,1.9,13.4,13.4,0,0,0,4.52.48,33.8,33.8,0,0,0,3.81-.39c.95-.17,2.23-.45,3.83-.82l19.25-4.57,1.23,5.19-41.51,9.84-1.23-5.19,6.44-1.53-.09-.4A20,20,0,0,1,782,965a14.63,14.63,0,0,1-3.64-7.06,62.36,62.36,0,0,1-1.2-7.42l4.86-1.15A64.48,64.48,0,0,0,783.18,956.81Z"/><path d="M819.81,909.3a122.14,122.14,0,0,1-1.94,12.84l-5-.4a116.85,116.85,0,0,0,2-12.84,13.74,13.74,0,0,0-.22-4,8.47,8.47,0,0,0-1.24-2.9,7.61,7.61,0,0,0-1.93-1.91,8.17,8.17,0,0,0-2.17-1.09,9.45,9.45,0,0,0-2.14-.43,7.8,7.8,0,0,0-4.37.83,7.48,7.48,0,0,0-3,2.76,17.7,17.7,0,0,0-1.81,6,24.38,24.38,0,0,1-1.75,6.22,11.46,11.46,0,0,1-4.09,4.64,9.56,9.56,0,0,1-6.27,1.55,9.94,9.94,0,0,1-7.48-4.23q-2.9-3.91-2.36-10.68.36-4.62,1.91-13l5,.39q-1.54,8.44-1.91,13c-.24,3.07.17,5.35,1.25,6.83a5.37,5.37,0,0,0,4,2.37,5.07,5.07,0,0,0,3.28-.79,6.12,6.12,0,0,0,2.16-2.46,26.67,26.67,0,0,0,1.56-5.93,19.88,19.88,0,0,1,2.3-6.8,12.75,12.75,0,0,1,12-6,13.35,13.35,0,0,1,4.91,1.35,13.78,13.78,0,0,1,4.06,3.08,12.79,12.79,0,0,1,2.69,5A18,18,0,0,1,819.81,909.3Z"/><path d="M798.16,846.61A9.21,9.21,0,0,0,795,850.8a9.48,9.48,0,0,0-.72,5.24,7.45,7.45,0,0,0,2.28,4.19,22.1,22.1,0,0,0,6,3.7l7.07-17.1a22.25,22.25,0,0,0-6.86-1.61A7.4,7.4,0,0,0,798.16,846.61Zm-8.82,10.87a14.52,14.52,0,0,1,1-8.59,14.35,14.35,0,0,1,5.33-6.77,12.28,12.28,0,0,1,7.43-2.16,18.21,18.21,0,0,1,4.28.64,34.42,34.42,0,0,1,4.13,1.26q1.72.61,4.77,1.88l-9.17,22.18c1.74.72,3.1,1.26,4.06,1.63a32.22,32.22,0,0,0,3.48,1.08,14.27,14.27,0,0,0,3.63.46q6-.14,8.42-6.07a114.13,114.13,0,0,0,4-11.89l4.62,1.91a111.23,111.23,0,0,1-4,11.89,15.08,15.08,0,0,1-5.56,7.12,13.7,13.7,0,0,1-7.77,2.33,19.72,19.72,0,0,1-5.72-.87c-1.92-.59-4.32-1.47-7.2-2.66q-3-1.26-4.72-2c-1.13-.53-2.4-1.2-3.81-2a20,20,0,0,1-3.47-2.61A12.34,12.34,0,0,1,789.34,857.48Z"/><path d="M822,798.87a12.37,12.37,0,0,1,4.48-3.4,11.59,11.59,0,0,1,5.15-1,12.42,12.42,0,0,1,3.11.45,10.42,10.42,0,0,1,2.86,1.34c1,.59,1.71,1.11,2.28,1.55s1.38,1.07,2.37,1.91l20.87,17.72-3.46,4.07-20.86-17.73c-1.16-1-2-1.7-2.66-2.14a8.8,8.8,0,0,0-2.23-1.24,6.79,6.79,0,0,0-2.71-.61,8.57,8.57,0,0,0-7.93,9.34,7.32,7.32,0,0,0,1,2.61,11.82,11.82,0,0,0,1.58,2q.84.76,2.58,2.25l20.86,17.72-3.45,4.07L813.29,810.1l3.46-4.06,3.55,3,.27-.32a12.66,12.66,0,0,1-.5-5.4A8.57,8.57,0,0,1,822,798.87Z"/><path d="M869.93,773.09l4.4-2.72L893.89,789l.35-.22a146.38,146.38,0,0,0-15.74-33.58l4.54-2.8a151.74,151.74,0,0,1,17.18,39.54l-5.46,3.38L876.25,778l-.35.22,7.24,24.28-5.46,3.38a151.52,151.52,0,0,1-27.73-33l4.53-2.81a146.64,146.64,0,0,0,23,29.06l.35-.22Z"/><path d="M913.89,743.57a13.6,13.6,0,0,1,6.32-3.41,13.32,13.32,0,0,1,7.15.09,14.14,14.14,0,0,1,6.06,3.52A16.77,16.77,0,0,1,937,749.4a75.53,75.53,0,0,1,4.32,17.52,16.75,16.75,0,0,1-.59,6.62,14.54,14.54,0,0,1-3.72,6,13.61,13.61,0,0,1-6.3,3.35,13.82,13.82,0,0,1-7.17,0,14.56,14.56,0,0,1-6-3.57,16.71,16.71,0,0,1-3.61-5.59,63.06,63.06,0,0,1-2.7-8.65,64,64,0,0,1-1.63-8.87,16.78,16.78,0,0,1,.59-6.67A14.28,14.28,0,0,1,913.89,743.57Zm15.62,3.66a8.63,8.63,0,0,0-14.24,3.51,12.22,12.22,0,0,0-.41,4.09,29,29,0,0,0,.46,4.14c.24,1.2.61,2.79,1.1,4.79s.91,3.58,1.26,4.75a30.13,30.13,0,0,0,1.52,3.92,12.27,12.27,0,0,0,2.26,3.39,8.63,8.63,0,0,0,14.24-3.51,12.36,12.36,0,0,0,.41-4,27.67,27.67,0,0,0-.47-4.18c-.24-1.2-.6-2.8-1.1-4.79s-.91-3.58-1.25-4.76a28.63,28.63,0,0,0-1.52-3.87A12.08,12.08,0,0,0,929.51,747.23Z"/><path d="M983.86,741.34q-5.65-.4-9.15,2.4a14.51,14.51,0,0,0-3,3.3,13.3,13.3,0,0,0-1.8,4.17,31.8,31.8,0,0,0-.76,3.75q-.2,1.45-.36,3.9l-1.39,19.74-5.32-.37,3-42.56,5.32.37-.47,6.61.42,0a19.79,19.79,0,0,1,6.07-5,14.59,14.59,0,0,1,7.82-1.37,63.74,63.74,0,0,1,7.44,1.07l-.35,5A61.66,61.66,0,0,0,983.86,741.34Z"/><path d="M1011.46,787l-5-2,21.9-54.43,4.95,2-12.54,31.15,22.41-9.93,6.23,2.5-19.93,9,5.81,31.31-6-2.42L1025,767.31l-6.78,2.89Z"/><g class="cls-4"><path class="cls-3" d="M497.12,887.55a332.52,332.52,0,0,1,173.24,400.72l-62.52-19.9A266.9,266.9,0,0,0,468.78,946.72Z"/></g><g class="cls-5"><path class="cls-3" d="M1146.76,855.61a190,190,0,0,0-61-85.85l-37.7,47.38a129.45,129.45,0,0,1,41.57,58.49Z"/></g><g class="cls-6"><path class="cls-3" d="M569.73,1425.42A332.51,332.51,0,1,1,301.18,856.93l7,63.6A268.52,268.52,0,1,0,525,1379.62Z"/></g><g class="cls-7"><path class="cls-3" d="M1716.32,285.49a112.48,112.48,0,1,1-65.77-144.84A112.48,112.48,0,0,1,1716.32,285.49Zm-152.77-57.35a50.7,50.7,0,1,0,65.29-29.65A50.7,50.7,0,0,0,1563.55,228.14Z"/></g><g class="cls-8"><path class="cls-3" d="M426.62,1263.83a119.78,119.78,0,1,1-91.84-191.13l-2.26,62.66a57.08,57.08,0,1,0,43.76,91.08Z"/></g><g class="cls-9"><path class="cls-3" d="M1612.29,5.31c133,6.71,235.33,120,228.62,252.92S1721,493.56,1588,486.85s-235.33-120-228.62-252.92S1479.32-1.4,1612.29,5.31ZM1591,427.67c100.29,5.06,185.7-72.14,190.76-172.43a181.82,181.82,0,0,0-363.18-18.32C1413.49,337.2,1490.69,422.61,1591,427.67Z"/></g><g class="cls-10"><path class="cls-3" d="M1058.13,1097.23a190.09,190.09,0,0,0,77.77-69.47l-51.18-32.35a129.45,129.45,0,0,1-53,47.33Z"/></g></g></g></svg>